<svg width="86" height="86" viewBox="0 0 86 86" fill="none" xmlns="http://www.w3.org/2000/svg">
<path d="M34.1334 2.8C20.1334 6.26666 6.66671 21.6 6.66671 34.1333C6.66671 35.6 5.46671 37.7333 4.00004 39.0667C1.86671 40.8 1.33337 42.9333 1.33337 49.6C1.33337 59.0667 2.00004 60.6667 6.80004 62.4C13.2 64.9333 14.6667 62.5333 14.6667 49.8667C14.6667 41.0667 14.2667 38.4 12.6667 37.8667C7.60004 35.8667 12.5334 22.1333 21.0667 14.4C26 9.86666 36.9334 5.33333 42.6667 5.33333C48.4 5.33333 59.3334 9.86666 64.2667 14.4C72.8 22.1333 77.7334 35.8667 72.6667 37.8667C71.0667 38.4 70.6667 41.0667 70.6667 49.8667C70.6667 60 70.9334 61.3333 73.4667 62.6667C75.6 63.8667 76 64.9333 75.3334 67.7333C74 72.8 72.4 74.5333 67.2 75.4667C63.8667 76.1333 61.8667 75.7333 60.1334 74.1333C58.2667 72.5333 55.7334 72 51.3334 72.2667C46.1334 72.5333 44.8 73.2 43.8667 75.7333C42 80.6667 46.9334 84.5333 53.7334 83.6C56.6667 83.2 59.4667 82.2667 59.8667 81.6C60.2667 80.9333 63.4667 80 66.8 79.4667C74.2667 78.4 78.1334 74.6667 79.4667 67.3333C80 64.4 81.2 61.2 82.2667 60.2667C85.0667 57.3333 84.5334 42 81.4667 39.0667C80.1334 37.7333 78.6667 34.4 78.2667 31.7333C75.2 12 53.7334 -2.13334 34.1334 2.8ZM10.6667 49.4667C10.6667 57.7333 10.4 58.8 8.40004 58.4C3.73337 57.6 4.80004 40 9.46671 40C10.1334 40 10.6667 44.2667 10.6667 49.4667ZM78.5334 41.8667C79.4667 42.9333 80 46.8 79.7334 50.9333C79.4667 56.4 78.8 58.1333 77.0667 58.4C74.9334 58.8 74.6667 57.7333 74.6667 49.4667C74.6667 40 75.6 38.2667 78.5334 41.8667ZM57.0667 77.6C56.1334 80.2667 48 80.6667 48 78.1333C48 76.5333 49.3334 76 52.8 76C56 76 57.3334 76.5333 57.0667 77.6Z" fill="black"/>
<path d="M24 24C21.7334 26.2667 21.3334 28.4 21.3334 38.5333C21.3334 50 21.4667 50.5333 25.0667 53.3333C27.0667 54.9333 28.9334 57.4667 29.3334 58.9333C29.7334 60.5333 31.0667 62.4 32.2667 63.2C34.1334 64.2667 35.4667 63.7333 39.0667 60.2667C42.8 56.6667 44.4 56 50.2667 56C55.0667 56 58 55.2 60.5334 53.2C63.8667 50.6667 64 49.8667 64 38.5333C64 21.7333 63.4667 21.3333 42.6667 21.3333C28.4 21.3333 26.4 21.6 24 24ZM58.4 26.9333C59.3334 27.8667 60 32.6667 60 38.9333C60 50.9333 59.0667 52 48.5334 52C43.2 52 41.4667 52.6667 37.7334 56.2667L33.3334 60.5333V56.5333C33.3334 53.3333 32.5334 52.2667 29.3334 51.0667C25.3334 49.6 25.3334 49.4667 25.3334 39.0667C25.3334 32.6667 26 27.8667 26.9334 26.9333C29.0667 24.8 56.2667 24.8 58.4 26.9333Z" fill="black"/>
<path d="M30.6667 38.6667C30.6667 40.6667 31.3334 41.3333 33.0667 41.0667C34.2667 40.8 35.3334 39.7333 35.3334 38.6667C35.3334 37.6 34.2667 36.5333 33.0667 36.2667C31.3334 36 30.6667 36.6667 30.6667 38.6667Z" fill="black"/>
<path d="M40 38.6667C40 40.4 40.9333 41.3333 42.6667 41.3333C44.4 41.3333 45.3333 40.4 45.3333 38.6667C45.3333 36.9333 44.4 36 42.6667 36C40.9333 36 40 36.9333 40 38.6667Z" fill="black"/>
<path d="M50.0001 37.3333C48.9334 39.2 50.4001 41.3333 52.8001 41.3333C53.8668 41.3333 54.6668 40.1333 54.6668 38.6667C54.6668 35.8667 51.4668 34.9333 50.0001 37.3333Z" fill="black"/>
</svg>
