<svg width="74" height="74" viewBox="0 0 74 74" fill="none" xmlns="http://www.w3.org/2000/svg">
<g clip-path="url(#clip0_959_330)">
<path d="M27.6894 37C27.6894 31.8594 31.8746 27.6893 37 27.6893C42.1254 27.6893 46.3107 31.8594 46.3107 37C46.3107 42.1406 42.1254 46.3107 37 46.3107C31.8746 46.3107 27.6894 42.1406 27.6894 37ZM37 42.6713C40.1238 42.6713 42.6713 40.1238 42.6713 37C42.6713 33.8762 40.1238 31.3287 37 31.3287C33.8762 31.3287 31.3287 33.8762 31.3287 37C31.3287 40.1238 33.8762 42.6713 37 42.6713Z" fill="black"/>
<path d="M50.4807 35.1803C51.4816 35.1803 52.3004 35.9992 52.3004 37C52.3004 38.0008 51.4816 38.8197 50.4807 38.8197C49.4799 38.8197 48.6611 38.0008 48.6611 37C48.6611 35.9992 49.4799 35.1803 50.4807 35.1803Z" fill="black"/>
<path d="M58.2599 37C58.2599 38.0008 57.441 38.8197 56.4402 38.8197C55.4394 38.8197 54.6205 38.0008 54.6205 37C54.6205 35.9992 55.4394 35.1803 56.4402 35.1803C57.441 35.1803 58.2599 35.9992 58.2599 37Z" fill="black"/>
<path d="M60.5799 37C60.5799 33.3 63.5975 30.2824 67.2975 30.2824C70.9975 30.2824 74 33.3 74 37C74 40.7 70.9824 43.7176 67.2824 43.7176C63.5824 43.7176 60.5799 40.7 60.5799 37ZM67.2824 40.0783C68.9807 40.0783 70.3607 38.6984 70.3607 37C70.3607 35.3016 68.9807 33.9217 67.2824 33.9217C65.584 33.9217 64.2041 35.3016 64.2041 37C64.2041 38.6984 65.5992 40.0783 67.2824 40.0783Z" fill="black"/>
<path d="M17.5598 38.8197C16.5549 38.8197 15.7402 38.005 15.7402 37C15.7402 35.995 16.5549 35.1803 17.5598 35.1803C18.5648 35.1803 19.3795 35.995 19.3795 37C19.3795 38.005 18.5648 38.8197 17.5598 38.8197Z" fill="black"/>
<path d="M23.5193 38.8197C22.5185 38.8197 21.6996 38.0008 21.6996 37C21.6996 35.9992 22.5185 35.1803 23.5193 35.1803C24.5201 35.1803 25.339 35.9992 25.339 37C25.339 38.0008 24.5201 38.8197 23.5193 38.8197Z" fill="black"/>
<path d="M6.71768 30.2824C10.4177 30.2824 13.4353 33.3 13.4353 37C13.4353 40.7 10.4177 43.7176 6.71768 43.7176C3.01768 43.7176 5.47601e-05 40.7 5.47601e-05 37C5.47601e-05 33.3 3.01768 30.2824 6.71768 30.2824ZM6.71768 40.0783C8.41604 40.0783 9.79596 38.6984 9.79596 37C9.79596 35.3016 8.41604 33.9217 6.71768 33.9217C5.01932 33.9217 3.6394 35.3016 3.6394 37C3.6394 38.6984 5.01932 40.0783 6.71768 40.0783Z" fill="black"/>
<path d="M37 48.6611C38.0008 48.6611 38.8197 49.4799 38.8197 50.4807C38.8197 51.4816 38.0008 52.3004 37 52.3004C35.9992 52.3004 35.1804 51.4816 35.1804 50.4807C35.1804 49.4799 35.9992 48.6611 37 48.6611Z" fill="black"/>
<path d="M37 54.6205C38.0008 54.6205 38.8197 55.4393 38.8197 56.4402C38.8197 57.441 38.0008 58.2598 37 58.2598C35.9992 58.2598 35.1804 57.441 35.1804 56.4402C35.1804 55.4393 35.9992 54.6205 37 54.6205Z" fill="black"/>
<path d="M37 60.5799C40.7 60.5799 43.7177 63.5975 43.7177 67.2975C43.7177 70.9975 40.7 74 37 74C33.3 74 30.2824 70.9824 30.2824 67.2824C30.2824 63.5824 33.3 60.5799 37 60.5799ZM37 70.3607C38.6984 70.3607 40.0783 68.9807 40.0783 67.2824C40.0783 65.584 38.6984 64.2041 37 64.2041C35.3017 64.2041 33.9218 65.584 33.9218 67.2824C33.9218 68.9807 35.3017 70.3607 37 70.3607Z" fill="black"/>
<path d="M37 25.3389C35.9992 25.3389 35.1804 24.5201 35.1804 23.5193C35.1804 22.5184 35.9992 21.6996 37 21.6996C38.0008 21.6996 38.8197 22.5184 38.8197 23.5193C38.8197 24.5201 38.0008 25.3389 37 25.3389Z" fill="black"/>
<path d="M37 19.3795C35.9951 19.3795 35.1804 18.5648 35.1804 17.5598C35.1804 16.5549 35.9951 15.7402 37 15.7402C38.005 15.7402 38.8197 16.5549 38.8197 17.5598C38.8197 18.5648 38.005 19.3795 37 19.3795Z" fill="black"/>
<path d="M37 13.4201C33.3 13.4201 30.2824 10.4025 30.2824 6.70246C30.2824 3.00246 33.3 0 37 0C40.7 0 43.7177 3.01762 43.7177 6.71762C43.7177 10.4176 40.7 13.4201 37 13.4201ZM37 3.63934C35.3017 3.63934 33.9218 5.01926 33.9218 6.71762C33.9218 8.41598 35.3017 9.7959 37 9.7959C38.6984 9.7959 40.0783 8.41598 40.0783 6.71762C40.0783 5.01926 38.6984 3.63934 37 3.63934Z" fill="black"/>
<path d="M47.8119 45.2492C48.5246 45.9619 48.5246 47.1143 47.8119 47.8271C47.0992 48.5398 45.9467 48.5398 45.234 47.8271C44.5213 47.1143 44.5213 45.9619 45.234 45.2492C45.9619 44.5365 47.1144 44.5365 47.8119 45.2492Z" fill="black"/>
<path d="M50.7386 52.5582C49.7336 52.5582 48.9189 51.7435 48.9189 50.7385C48.9189 49.7335 49.7336 48.9189 50.7386 48.9189C51.7435 48.9189 52.5582 49.7335 52.5582 50.7385C52.5582 51.7435 51.7435 52.5582 50.7386 52.5582Z" fill="black"/>
<path d="M63.1578 53.6652C65.7812 56.2885 65.7812 60.5344 63.1578 63.1578C60.5345 65.7812 56.2886 65.7812 53.6652 63.1578C51.0419 60.5344 51.0419 56.2885 53.6652 53.6652C56.2886 51.057 60.5496 51.057 63.1578 53.6652ZM56.2431 60.5951C57.441 61.793 59.382 61.793 60.58 60.5951C61.7779 59.3971 61.7779 57.4562 60.58 56.2582C59.382 55.0602 57.441 55.0602 56.2431 56.2582C55.0451 57.441 55.0451 59.3971 56.2431 60.5951Z" fill="black"/>
<path d="M23.2615 25.0811C22.2565 25.0811 21.4418 24.2665 21.4418 23.2615C21.4418 22.2565 22.2565 21.4418 23.2615 21.4418C24.2665 21.4418 25.0812 22.2565 25.0812 23.2615C25.0812 24.2665 24.2665 25.0811 23.2615 25.0811Z" fill="black"/>
<path d="M27.4619 29.2816C26.457 29.2816 25.6423 28.4669 25.6423 27.4619C25.6423 26.4569 26.457 25.6422 27.4619 25.6422C28.4669 25.6422 29.2816 26.4569 29.2816 27.4619C29.2816 28.4669 28.4669 29.2816 27.4619 29.2816Z" fill="black"/>
<path d="M10.8422 20.3348C8.21886 17.7115 8.21886 13.4656 10.8422 10.8422C13.4656 8.21885 17.7115 8.21885 20.3348 10.8422C22.9582 13.4656 22.9582 17.7115 20.3348 20.3348C17.7115 22.9582 13.4504 22.943 10.8422 20.3348ZM17.757 13.4049C16.559 12.207 14.618 12.207 13.4201 13.4049C12.2221 14.6029 12.2221 16.5439 13.4201 17.7418C14.618 18.9398 16.559 18.9398 17.757 17.7418C18.9549 16.559 18.9549 14.6029 17.757 13.4049Z" fill="black"/>
<path d="M23.2615 52.5582C22.2565 52.5582 21.4418 51.7435 21.4418 50.7385C21.4418 49.7335 22.2565 48.9189 23.2615 48.9189C24.2665 48.9189 25.0812 49.7335 25.0812 50.7385C25.0812 51.7435 24.2665 52.5582 23.2615 52.5582Z" fill="black"/>
<path d="M28.7509 45.2492C29.4636 45.9619 29.4636 47.1143 28.7509 47.8271C28.0382 48.5398 26.8857 48.5398 26.173 47.8271C25.4603 47.1143 25.4603 45.9619 26.173 45.2492C26.8857 44.5365 28.0382 44.5365 28.7509 45.2492Z" fill="black"/>
<path d="M20.3348 53.6652C22.9582 56.2885 22.9582 60.5344 20.3348 63.1578C17.7115 65.7812 13.4656 65.7812 10.8422 63.1578C8.21886 60.5344 8.21886 56.2885 10.8422 53.6652C13.4504 51.057 17.7115 51.057 20.3348 53.6652ZM13.4049 60.5951C14.6029 61.793 16.5439 61.793 17.7418 60.5951C18.9398 59.3971 18.9398 57.4562 17.7418 56.2582C16.5439 55.0602 14.6029 55.0602 13.4049 56.2582C12.207 57.441 12.207 59.3971 13.4049 60.5951Z" fill="black"/>
<path d="M46.5381 29.2816C45.5331 29.2816 44.7184 28.4669 44.7184 27.4619C44.7184 26.4569 45.5331 25.6422 46.5381 25.6422C47.5431 25.6422 48.3578 26.4569 48.3578 27.4619C48.3578 28.4669 47.5431 29.2816 46.5381 29.2816Z" fill="black"/>
<path d="M50.7386 25.0811C49.7336 25.0811 48.9189 24.2665 48.9189 23.2615C48.9189 22.2565 49.7336 21.4418 50.7386 21.4418C51.7435 21.4418 52.5582 22.2565 52.5582 23.2615C52.5582 24.2665 51.7435 25.0811 50.7386 25.0811Z" fill="black"/>
<path d="M53.6652 20.3348C51.0419 17.7115 51.0419 13.4656 53.6652 10.8422C56.2886 8.21885 60.5345 8.21885 63.1578 10.8422C65.7812 13.4656 65.7812 17.7115 63.1578 20.3348C60.5496 22.943 56.2886 22.943 53.6652 20.3348ZM60.5951 13.4049C59.3972 12.207 57.4562 12.207 56.2583 13.4049C55.0603 14.6029 55.0603 16.5439 56.2583 17.7418C57.4562 18.9398 59.3972 18.9398 60.5951 17.7418C61.7931 16.559 61.7931 14.6029 60.5951 13.4049Z" fill="black"/>
</g>
<defs>
<clipPath id="clip0_959_330">
<rect width="74" height="74" fill="white" transform="matrix(-1 0 0 1 74 0)"/>
</clipPath>
</defs>
</svg>
