<?xml version="1.0" encoding="UTF-8"?>
<svg xmlns="http://www.w3.org/2000/svg" xmlns:xlink="http://www.w3.org/1999/xlink" width="28px" height="21px" viewBox="0 0 28 21" version="1.1">
<g id="surface1">
<path style=" stroke:none;fill-rule:nonzero;fill:rgb(100%,60%,20%);fill-opacity:1;" d="M 0 0 L 28 0 L 28 7 L 0 7 Z M 0 0 "/>
<path style=" stroke:none;fill-rule:nonzero;fill:rgb(100%,100%,100%);fill-opacity:1;" d="M 0 7 L 28 7 L 28 14 L 0 14 Z M 0 7 "/>
<path style=" stroke:none;fill-rule:nonzero;fill:rgb(7.058824%,53.333333%,2.745098%);fill-opacity:1;" d="M 0 14 L 28 14 L 28 21 L 0 21 Z M 0 14 "/>
<path style=" stroke:none;fill-rule:nonzero;fill:rgb(0%,0%,53.333333%);fill-opacity:1;" d="M 16.800781 10.5 C 16.800781 12.046875 15.546875 13.300781 14 13.300781 C 12.453125 13.300781 11.199219 12.046875 11.199219 10.5 C 11.199219 8.953125 12.453125 7.699219 14 7.699219 C 15.546875 7.699219 16.800781 8.953125 16.800781 10.5 Z M 16.800781 10.5 "/>
<path style=" stroke:none;fill-rule:nonzero;fill:rgb(100%,100%,100%);fill-opacity:1;" d="M 16.449219 10.5 C 16.449219 11.851562 15.351562 12.949219 14 12.949219 C 12.648438 12.949219 11.550781 11.851562 11.550781 10.5 C 11.550781 9.148438 12.648438 8.050781 14 8.050781 C 15.351562 8.050781 16.449219 9.148438 16.449219 10.5 Z M 16.449219 10.5 "/>
<path style=" stroke:none;fill-rule:nonzero;fill:rgb(0%,0%,53.333333%);fill-opacity:1;" d="M 14.488281 10.5 C 14.488281 10.769531 14.269531 10.988281 14 10.988281 C 13.730469 10.988281 13.511719 10.769531 13.511719 10.5 C 13.511719 10.230469 13.730469 10.011719 14 10.011719 C 14.269531 10.011719 14.488281 10.230469 14.488281 10.5 Z M 14.488281 10.5 "/>
<path style=" stroke:none;fill-rule:nonzero;fill:rgb(0%,0%,53.333333%);fill-opacity:1;" d="M 16.554688 10.835938 C 16.542969 10.90625 16.480469 10.953125 16.414062 10.945312 C 16.34375 10.9375 16.296875 10.875 16.304688 10.804688 C 16.3125 10.734375 16.375 10.6875 16.445312 10.695312 C 16.515625 10.703125 16.5625 10.769531 16.554688 10.835938 Z M 16.554688 10.835938 "/>
<path style=" stroke:none;fill-rule:nonzero;fill:rgb(0%,0%,53.333333%);fill-opacity:1;" d="M 14 12.949219 L 14.085938 11.480469 L 14 10.78125 L 13.914062 11.480469 Z M 14 12.949219 "/>
<path style=" stroke:none;fill-rule:nonzero;fill:rgb(0%,0%,53.333333%);fill-opacity:1;" d="M 16.378906 11.488281 C 16.351562 11.550781 16.28125 11.582031 16.214844 11.554688 C 16.152344 11.527344 16.121094 11.453125 16.148438 11.390625 C 16.171875 11.324219 16.246094 11.296875 16.3125 11.320312 C 16.375 11.347656 16.40625 11.421875 16.378906 11.488281 Z M 16.378906 11.488281 "/>
<path style=" stroke:none;fill-rule:nonzero;fill:rgb(0%,0%,53.333333%);fill-opacity:1;" d="M 13.367188 12.867188 L 13.828125 11.46875 L 13.925781 10.769531 L 13.664062 11.425781 Z M 13.367188 12.867188 "/>
<path style=" stroke:none;fill-rule:nonzero;fill:rgb(0%,0%,53.333333%);fill-opacity:1;" d="M 16.042969 12.070312 C 16 12.125 15.921875 12.132812 15.867188 12.09375 C 15.8125 12.050781 15.800781 11.972656 15.84375 11.914062 C 15.886719 11.859375 15.964844 11.851562 16.019531 11.890625 C 16.074219 11.933594 16.085938 12.015625 16.042969 12.070312 Z M 16.042969 12.070312 "/>
<path style=" stroke:none;fill-rule:nonzero;fill:rgb(0%,0%,53.333333%);fill-opacity:1;" d="M 12.773438 12.621094 L 13.582031 11.390625 L 13.859375 10.742188 L 13.4375 11.308594 Z M 12.773438 12.621094 "/>
<path style=" stroke:none;fill-rule:nonzero;fill:rgb(0%,0%,53.333333%);fill-opacity:1;" d="M 15.566406 12.542969 C 15.511719 12.585938 15.433594 12.578125 15.390625 12.519531 C 15.347656 12.464844 15.359375 12.386719 15.414062 12.34375 C 15.46875 12.300781 15.546875 12.3125 15.589844 12.367188 C 15.632812 12.421875 15.621094 12.5 15.566406 12.542969 Z M 15.566406 12.542969 "/>
<path style=" stroke:none;fill-rule:nonzero;fill:rgb(0%,0%,53.333333%);fill-opacity:1;" d="M 12.269531 12.230469 L 13.367188 11.253906 L 13.800781 10.699219 L 13.246094 11.132812 Z M 12.269531 12.230469 "/>
<path style=" stroke:none;fill-rule:nonzero;fill:rgb(0%,0%,53.333333%);fill-opacity:1;" d="M 14.984375 12.878906 C 14.921875 12.90625 14.847656 12.875 14.820312 12.8125 C 14.792969 12.746094 14.824219 12.675781 14.886719 12.648438 C 14.953125 12.621094 15.027344 12.652344 15.054688 12.714844 C 15.078125 12.78125 15.050781 12.855469 14.984375 12.878906 Z M 14.984375 12.878906 "/>
<path style=" stroke:none;fill-rule:nonzero;fill:rgb(0%,0%,53.333333%);fill-opacity:1;" d="M 11.878906 11.726562 L 13.191406 11.0625 L 13.757812 10.640625 L 13.109375 10.917969 Z M 11.878906 11.726562 "/>
<path style=" stroke:none;fill-rule:nonzero;fill:rgb(0%,0%,53.333333%);fill-opacity:1;" d="M 14.335938 13.054688 C 14.265625 13.0625 14.203125 13.015625 14.195312 12.945312 C 14.183594 12.875 14.234375 12.8125 14.300781 12.804688 C 14.371094 12.796875 14.433594 12.84375 14.445312 12.914062 C 14.453125 12.980469 14.40625 13.046875 14.335938 13.054688 Z M 14.335938 13.054688 "/>
<path style=" stroke:none;fill-rule:nonzero;fill:rgb(0%,0%,53.333333%);fill-opacity:1;" d="M 11.632812 11.132812 L 13.074219 10.835938 L 13.730469 10.574219 L 13.03125 10.671875 Z M 11.632812 11.132812 "/>
<path style=" stroke:none;fill-rule:nonzero;fill:rgb(0%,0%,53.333333%);fill-opacity:1;" d="M 13.664062 13.054688 C 13.59375 13.042969 13.546875 12.980469 13.554688 12.914062 C 13.5625 12.84375 13.625 12.796875 13.695312 12.804688 C 13.765625 12.8125 13.8125 12.875 13.804688 12.945312 C 13.796875 13.015625 13.730469 13.0625 13.664062 13.054688 Z M 13.664062 13.054688 "/>
<path style=" stroke:none;fill-rule:nonzero;fill:rgb(0%,0%,53.333333%);fill-opacity:1;" d="M 11.550781 10.5 L 13.019531 10.585938 L 13.71875 10.5 L 13.019531 10.414062 Z M 11.550781 10.5 "/>
<path style=" stroke:none;fill-rule:nonzero;fill:rgb(0%,0%,53.333333%);fill-opacity:1;" d="M 13.011719 12.878906 C 12.949219 12.851562 12.917969 12.78125 12.945312 12.714844 C 12.972656 12.652344 13.046875 12.621094 13.109375 12.648438 C 13.175781 12.671875 13.203125 12.746094 13.179688 12.8125 C 13.152344 12.875 13.078125 12.90625 13.011719 12.878906 Z M 13.011719 12.878906 "/>
<path style=" stroke:none;fill-rule:nonzero;fill:rgb(0%,0%,53.333333%);fill-opacity:1;" d="M 11.632812 9.867188 L 13.03125 10.328125 L 13.730469 10.425781 L 13.074219 10.164062 Z M 11.632812 9.867188 "/>
<path style=" stroke:none;fill-rule:nonzero;fill:rgb(0%,0%,53.333333%);fill-opacity:1;" d="M 12.429688 12.542969 C 12.375 12.5 12.367188 12.421875 12.40625 12.367188 C 12.449219 12.3125 12.527344 12.300781 12.585938 12.34375 C 12.640625 12.386719 12.648438 12.464844 12.609375 12.519531 C 12.566406 12.574219 12.484375 12.585938 12.429688 12.542969 Z M 12.429688 12.542969 "/>
<path style=" stroke:none;fill-rule:nonzero;fill:rgb(0%,0%,53.333333%);fill-opacity:1;" d="M 11.878906 9.273438 L 13.109375 10.082031 L 13.757812 10.359375 L 13.191406 9.9375 Z M 11.878906 9.273438 "/>
<path style=" stroke:none;fill-rule:nonzero;fill:rgb(0%,0%,53.333333%);fill-opacity:1;" d="M 11.957031 12.066406 C 11.914062 12.011719 11.921875 11.933594 11.980469 11.890625 C 12.035156 11.847656 12.113281 11.859375 12.15625 11.914062 C 12.199219 11.96875 12.1875 12.046875 12.132812 12.089844 C 12.078125 12.132812 12 12.121094 11.957031 12.066406 Z M 11.957031 12.066406 "/>
<path style=" stroke:none;fill-rule:nonzero;fill:rgb(0%,0%,53.333333%);fill-opacity:1;" d="M 12.269531 8.769531 L 13.246094 9.867188 L 13.800781 10.300781 L 13.367188 9.746094 Z M 12.269531 8.769531 "/>
<path style=" stroke:none;fill-rule:nonzero;fill:rgb(0%,0%,53.333333%);fill-opacity:1;" d="M 11.621094 11.484375 C 11.59375 11.421875 11.625 11.347656 11.6875 11.320312 C 11.753906 11.292969 11.824219 11.324219 11.851562 11.386719 C 11.878906 11.453125 11.847656 11.527344 11.785156 11.554688 C 11.71875 11.578125 11.644531 11.550781 11.621094 11.484375 Z M 11.621094 11.484375 "/>
<path style=" stroke:none;fill-rule:nonzero;fill:rgb(0%,0%,53.333333%);fill-opacity:1;" d="M 12.773438 8.378906 L 13.4375 9.691406 L 13.859375 10.257812 L 13.582031 9.609375 Z M 12.773438 8.378906 "/>
<path style=" stroke:none;fill-rule:nonzero;fill:rgb(0%,0%,53.333333%);fill-opacity:1;" d="M 11.445312 10.835938 C 11.4375 10.765625 11.484375 10.703125 11.554688 10.695312 C 11.625 10.683594 11.6875 10.734375 11.695312 10.800781 C 11.703125 10.871094 11.65625 10.933594 11.585938 10.945312 C 11.519531 10.953125 11.453125 10.90625 11.445312 10.835938 Z M 11.445312 10.835938 "/>
<path style=" stroke:none;fill-rule:nonzero;fill:rgb(0%,0%,53.333333%);fill-opacity:1;" d="M 13.367188 8.132812 L 13.664062 9.574219 L 13.925781 10.230469 L 13.828125 9.53125 Z M 13.367188 8.132812 "/>
<path style=" stroke:none;fill-rule:nonzero;fill:rgb(0%,0%,53.333333%);fill-opacity:1;" d="M 11.445312 10.164062 C 11.457031 10.09375 11.519531 10.046875 11.585938 10.054688 C 11.65625 10.0625 11.703125 10.125 11.695312 10.195312 C 11.6875 10.265625 11.625 10.3125 11.554688 10.304688 C 11.484375 10.296875 11.4375 10.230469 11.445312 10.164062 Z M 11.445312 10.164062 "/>
<path style=" stroke:none;fill-rule:nonzero;fill:rgb(0%,0%,53.333333%);fill-opacity:1;" d="M 14 8.050781 L 13.914062 9.519531 L 14 10.21875 L 14.085938 9.519531 Z M 14 8.050781 "/>
<path style=" stroke:none;fill-rule:nonzero;fill:rgb(0%,0%,53.333333%);fill-opacity:1;" d="M 11.621094 9.511719 C 11.648438 9.449219 11.71875 9.417969 11.785156 9.445312 C 11.847656 9.472656 11.878906 9.546875 11.851562 9.609375 C 11.828125 9.675781 11.753906 9.703125 11.6875 9.679688 C 11.625 9.652344 11.59375 9.578125 11.621094 9.511719 Z M 11.621094 9.511719 "/>
<path style=" stroke:none;fill-rule:nonzero;fill:rgb(0%,0%,53.333333%);fill-opacity:1;" d="M 14.632812 8.132812 L 14.171875 9.53125 L 14.074219 10.230469 L 14.335938 9.574219 Z M 14.632812 8.132812 "/>
<path style=" stroke:none;fill-rule:nonzero;fill:rgb(0%,0%,53.333333%);fill-opacity:1;" d="M 11.957031 8.929688 C 12 8.875 12.078125 8.867188 12.132812 8.90625 C 12.1875 8.949219 12.199219 9.027344 12.15625 9.085938 C 12.113281 9.140625 12.035156 9.148438 11.980469 9.109375 C 11.925781 9.066406 11.914062 8.984375 11.957031 8.929688 Z M 11.957031 8.929688 "/>
<path style=" stroke:none;fill-rule:nonzero;fill:rgb(0%,0%,53.333333%);fill-opacity:1;" d="M 15.226562 8.378906 L 14.417969 9.609375 L 14.140625 10.257812 L 14.5625 9.691406 Z M 15.226562 8.378906 "/>
<path style=" stroke:none;fill-rule:nonzero;fill:rgb(0%,0%,53.333333%);fill-opacity:1;" d="M 12.433594 8.457031 C 12.488281 8.414062 12.566406 8.421875 12.609375 8.480469 C 12.652344 8.535156 12.640625 8.613281 12.585938 8.65625 C 12.53125 8.699219 12.453125 8.6875 12.410156 8.632812 C 12.367188 8.578125 12.378906 8.5 12.433594 8.457031 Z M 12.433594 8.457031 "/>
<path style=" stroke:none;fill-rule:nonzero;fill:rgb(0%,0%,53.333333%);fill-opacity:1;" d="M 15.730469 8.769531 L 14.632812 9.746094 L 14.199219 10.300781 L 14.753906 9.867188 Z M 15.730469 8.769531 "/>
<path style=" stroke:none;fill-rule:nonzero;fill:rgb(0%,0%,53.333333%);fill-opacity:1;" d="M 13.015625 8.121094 C 13.078125 8.09375 13.152344 8.125 13.179688 8.1875 C 13.207031 8.253906 13.175781 8.324219 13.113281 8.351562 C 13.046875 8.378906 12.972656 8.347656 12.945312 8.285156 C 12.921875 8.21875 12.949219 8.144531 13.015625 8.121094 Z M 13.015625 8.121094 "/>
<path style=" stroke:none;fill-rule:nonzero;fill:rgb(0%,0%,53.333333%);fill-opacity:1;" d="M 16.121094 9.273438 L 14.808594 9.9375 L 14.242188 10.359375 L 14.890625 10.082031 Z M 16.121094 9.273438 "/>
<path style=" stroke:none;fill-rule:nonzero;fill:rgb(0%,0%,53.333333%);fill-opacity:1;" d="M 13.664062 7.945312 C 13.734375 7.9375 13.796875 7.984375 13.804688 8.054688 C 13.816406 8.125 13.765625 8.1875 13.699219 8.195312 C 13.628906 8.203125 13.566406 8.15625 13.554688 8.085938 C 13.546875 8.019531 13.59375 7.953125 13.664062 7.945312 Z M 13.664062 7.945312 "/>
<path style=" stroke:none;fill-rule:nonzero;fill:rgb(0%,0%,53.333333%);fill-opacity:1;" d="M 16.367188 9.867188 L 14.925781 10.164062 L 14.269531 10.425781 L 14.96875 10.328125 Z M 16.367188 9.867188 "/>
<path style=" stroke:none;fill-rule:nonzero;fill:rgb(0%,0%,53.333333%);fill-opacity:1;" d="M 14.335938 7.945312 C 14.40625 7.957031 14.453125 8.019531 14.445312 8.085938 C 14.4375 8.15625 14.375 8.203125 14.304688 8.195312 C 14.234375 8.1875 14.1875 8.125 14.195312 8.054688 C 14.203125 7.984375 14.269531 7.9375 14.335938 7.945312 Z M 14.335938 7.945312 "/>
<path style=" stroke:none;fill-rule:nonzero;fill:rgb(0%,0%,53.333333%);fill-opacity:1;" d="M 16.449219 10.5 L 14.980469 10.414062 L 14.28125 10.5 L 14.980469 10.585938 Z M 16.449219 10.5 "/>
<path style=" stroke:none;fill-rule:nonzero;fill:rgb(0%,0%,53.333333%);fill-opacity:1;" d="M 14.988281 8.121094 C 15.050781 8.148438 15.082031 8.21875 15.054688 8.285156 C 15.027344 8.347656 14.953125 8.378906 14.890625 8.351562 C 14.824219 8.328125 14.796875 8.253906 14.820312 8.1875 C 14.847656 8.125 14.921875 8.09375 14.988281 8.121094 Z M 14.988281 8.121094 "/>
<path style=" stroke:none;fill-rule:nonzero;fill:rgb(0%,0%,53.333333%);fill-opacity:1;" d="M 16.367188 11.132812 L 14.96875 10.671875 L 14.269531 10.574219 L 14.925781 10.835938 Z M 16.367188 11.132812 "/>
<path style=" stroke:none;fill-rule:nonzero;fill:rgb(0%,0%,53.333333%);fill-opacity:1;" d="M 15.570312 8.457031 C 15.625 8.5 15.632812 8.578125 15.59375 8.632812 C 15.550781 8.6875 15.472656 8.699219 15.414062 8.65625 C 15.359375 8.613281 15.351562 8.535156 15.390625 8.480469 C 15.433594 8.425781 15.515625 8.414062 15.570312 8.457031 Z M 15.570312 8.457031 "/>
<path style=" stroke:none;fill-rule:nonzero;fill:rgb(0%,0%,53.333333%);fill-opacity:1;" d="M 16.121094 11.726562 L 14.890625 10.917969 L 14.242188 10.640625 L 14.808594 11.0625 Z M 16.121094 11.726562 "/>
<path style=" stroke:none;fill-rule:nonzero;fill:rgb(0%,0%,53.333333%);fill-opacity:1;" d="M 16.042969 8.933594 C 16.085938 8.988281 16.078125 9.066406 16.019531 9.109375 C 15.964844 9.152344 15.886719 9.140625 15.84375 9.085938 C 15.800781 9.03125 15.8125 8.953125 15.867188 8.910156 C 15.921875 8.867188 16 8.878906 16.042969 8.933594 Z M 16.042969 8.933594 "/>
<path style=" stroke:none;fill-rule:nonzero;fill:rgb(0%,0%,53.333333%);fill-opacity:1;" d="M 15.730469 12.230469 L 14.753906 11.132812 L 14.199219 10.699219 L 14.632812 11.253906 Z M 15.730469 12.230469 "/>
<path style=" stroke:none;fill-rule:nonzero;fill:rgb(0%,0%,53.333333%);fill-opacity:1;" d="M 16.378906 9.515625 C 16.40625 9.578125 16.375 9.652344 16.3125 9.679688 C 16.246094 9.707031 16.175781 9.675781 16.148438 9.613281 C 16.121094 9.546875 16.152344 9.472656 16.214844 9.445312 C 16.28125 9.421875 16.355469 9.449219 16.378906 9.515625 Z M 16.378906 9.515625 "/>
<path style=" stroke:none;fill-rule:nonzero;fill:rgb(0%,0%,53.333333%);fill-opacity:1;" d="M 15.226562 12.621094 L 14.5625 11.308594 L 14.140625 10.742188 L 14.417969 11.390625 Z M 15.226562 12.621094 "/>
<path style=" stroke:none;fill-rule:nonzero;fill:rgb(0%,0%,53.333333%);fill-opacity:1;" d="M 16.554688 10.164062 C 16.5625 10.234375 16.515625 10.296875 16.445312 10.304688 C 16.375 10.316406 16.3125 10.265625 16.304688 10.199219 C 16.296875 10.128906 16.34375 10.066406 16.414062 10.054688 C 16.480469 10.046875 16.546875 10.09375 16.554688 10.164062 Z M 16.554688 10.164062 "/>
<path style=" stroke:none;fill-rule:nonzero;fill:rgb(0%,0%,53.333333%);fill-opacity:1;" d="M 14.632812 12.867188 L 14.335938 11.425781 L 14.074219 10.769531 L 14.171875 11.46875 Z M 14.632812 12.867188 "/>
</g>
</svg>
