<svg width="86" height="86" viewBox="0 0 86 86" fill="none" xmlns="http://www.w3.org/2000/svg">
<path d="M40.0643 21.9476L40.0657 21.9511C40.3359 22.6417 40.6904 23.0376 41.096 23.2328C41.5039 23.4291 42.0522 23.4651 42.796 23.2526C44.3095 22.8201 46.4026 21.425 49.1317 18.9621L49.1327 18.9613C52.4481 15.9842 55.7811 14.3128 58.9617 14.0681C62.1604 13.8221 65.1323 15.0249 67.687 17.6465C70.3085 20.2011 71.5113 23.1731 71.2652 26.3717C71.0206 29.5523 69.3492 32.8853 66.3721 36.2007L66.3712 36.2016C63.9083 38.9308 62.5132 41.0239 62.0808 42.5374C61.8683 43.2812 61.9043 43.8295 62.1006 44.2374C62.2957 44.6428 62.6914 44.9972 63.3814 45.2674C64.1799 45.576 65.3611 45.3015 66.8126 44.3965C68.2332 43.5109 69.7833 42.0999 71.2375 40.4075C72.6893 38.7178 74.0293 36.7665 75.0371 34.8163C76.048 32.8602 76.7086 30.936 76.8348 29.295L76.8352 29.2911C77.1675 25.3691 77.1267 22.7094 76.5177 20.4818C75.9136 18.2719 74.7369 16.4412 72.7005 14.2071C68.0147 9.26308 61.7902 7.19381 55.3038 8.48915C51.544 9.33338 47.3214 11.8135 44.2343 14.5885C42.692 15.9749 41.4578 17.4133 40.7097 18.7285C39.9498 20.0642 39.7507 21.1637 40.0643 21.9476Z" fill="black" stroke="black"/>
<path d="M40.1333 40.5333C31.4667 49.2 27.8667 53.7333 28.4 55.2C28.9333 56.4 30 57.3333 30.9333 57.3333C32 57.3333 38.4 51.7333 45.2 44.8C53.8667 36.1333 57.4667 31.6 56.9333 30.1333C56.4 28.9333 55.3333 28 54.4 28C53.3333 28 46.9333 33.6 40.1333 40.5333Z" fill="black"/>
<path d="M16 42.2667C1.19999 54.6667 7.46666 77.6 25.6 77.6C32.8 77.6 38.4 74.9333 43.0667 69.3333C46.6667 65.2 46.6667 61.3333 43.0667 61.3333C41.8667 61.3333 38.6667 63.4667 35.8667 66C29.3333 71.8667 22.9333 72.4 18 67.3333C12.9333 62.4 13.4667 56 19.3333 49.4667C21.8667 46.6667 24 43.4667 24 42.2667C24 38.6667 20.1333 38.6667 16 42.2667Z" fill="black"/>
</svg>
