<svg width="39" height="39" viewBox="0 0 39 39" fill="none" xmlns="http://www.w3.org/2000/svg">
<path d="M29 14.6154C28.325 14.9385 27.65 15.0462 26.8625 15.1538C27.65 14.7231 28.2125 14.0769 28.4375 13.2154C27.7625 13.6462 26.975 13.8615 26.075 14.0769C25.4 13.4308 24.3875 13 23.375 13C21.0125 13 19.2125 15.1538 19.775 17.3077C16.7375 17.2 14.0375 15.8 12.125 13.6462C11.1125 15.2615 11.675 17.3077 13.25 18.3846C12.6875 18.3846 12.125 18.1692 11.5625 17.9538C11.5625 19.5692 12.8 21.0769 14.4875 21.5077C13.925 21.6154 13.3625 21.7231 12.8 21.6154C13.25 23.0154 14.6 24.0923 16.2875 24.0923C14.9375 25.0615 12.9125 25.6 11 25.3846C12.6875 26.3538 14.6 27 16.625 27C23.4875 27 27.3125 21.5077 27.0875 16.4462C27.875 16.0154 28.55 15.3692 29 14.6154Z" fill="#56565A"/>
<circle cx="19.6345" cy="19.6345" r="18.6345" stroke="#424242"/>
</svg>
