<svg width="260" height="260" viewBox="0 0 260 260" fill="none" xmlns="http://www.w3.org/2000/svg">
<path d="M259.51 259.52C259.343 256.912 259.56 254.201 259.32 251.309C259.236 250.297 259.289 249.159 259.202 248.189C259.089 246.939 259.102 245.507 258.966 244.128C258.794 242.406 258.787 240.371 258.601 238.734C258.273 235.845 258.123 232.877 257.747 230.124C257.238 226.41 256.922 222.872 256.367 219.581C255.433 214.046 254.358 208.269 253.178 202.889C252.323 198.989 251.406 195.473 250.426 191.689C249.326 187.433 248.032 183.54 246.739 179.308C245.639 175.693 244.373 172.415 243.116 168.815C241.816 165.076 240.199 161.555 238.832 158.115C237.124 153.82 235.158 150.037 233.347 146.092C232.202 143.599 230.847 141.16 229.62 138.705C228.302 136.059 226.72 133.491 225.468 131.187C223.752 128.027 221.951 125.241 220.194 122.314C218.502 119.496 216.605 116.669 214.839 113.98C212.513 110.438 210.202 107.399 207.8 104.132C205.736 101.323 203.783 98.877 201.712 96.304C199.318 93.33 196.775 90.368 194.42 87.715C191.393 84.304 188.371 80.971 185.365 77.952C182.965 75.54 180.589 73.13 178.257 70.977C175.257 68.21 172.42 65.506 169.564 63.123C166.232 60.344 162.908 57.46 159.75 55.095C156.792 52.879 153.966 50.482 151.05 48.495C147.889 46.336 144.799 44.081 141.831 42.241C138.017 39.876 134.298 37.359 130.663 35.351C126.45 33.024 122.15 30.442 118.185 28.517C113.575 26.278 108.951 23.898 104.675 22.101C100.575 20.376 96.5648 18.596 92.8008 17.213C88.3008 15.561 84.2948 14.022 80.2168 12.743C74.1718 10.843 68.1461 9.06502 62.7861 7.74302C53.5581 5.45902 45.178 3.98601 37.835 2.84301C30.712 1.73101 24.3975 1.20302 19.5635 0.808019L17.1592 0.608007C15.5212 0.472007 13.6514 0.371019 12.5264 0.308019C8.35826 0.00491145 4.17636 -0.0708725 0 0.0810145H259.51V259.52Z" fill="#0a2646222736"/>
</svg>
