<svg width="260" height="260" viewBox="0 0 260 260" fill="none" xmlns="http://www.w3.org/2000/svg">
<path d="M259.51 259.52C259.343 256.912 259.56 254.201 259.32 251.309C259.236 250.297 259.289 249.159 259.202 248.189C259.089 246.939 259.102 245.507 258.966 244.128C258.794 242.406 258.787 240.371 258.601 238.734C258.273 235.845 258.123 232.877 257.747 230.124C257.238 226.41 256.922 222.872 256.367 219.581C255.433 214.046 254.358 208.269 253.178 202.889C252.323 198.989 251.406 195.473 250.426 191.689C249.326 187.433 248.032 183.54 246.739 179.308C245.639 175.693 244.373 172.415 243.116 168.815C241.816 165.076 240.199 161.555 238.832 158.115C237.124 153.82 235.158 150.037 233.347 146.092C232.202 143.599 230.847 141.16 229.62 138.705C228.302 136.059 226.72 133.491 225.468 131.187C223.752 128.027 221.951 125.241 220.194 122.314C218.502 119.496 216.605 116.669 214.839 113.98C212.513 110.438 210.202 107.399 207.8 104.132C205.736 101.323 203.783 98.8771 201.712 96.3041C199.318 93.3301 196.775 90.3681 194.42 87.7151C191.393 84.3041 188.371 80.9711 185.365 77.9521C182.965 75.5401 180.589 73.1301 178.257 70.9771C175.257 68.2101 172.42 65.5061 169.564 63.1231C166.232 60.3441 162.908 57.4601 159.75 55.0951C156.792 52.8791 153.966 50.4821 151.05 48.4951C147.889 46.3361 144.799 44.0811 141.831 42.2411C138.017 39.8761 134.298 37.3591 130.663 35.3511C126.45 33.0241 122.15 30.4421 118.185 28.5171C113.575 26.2781 108.951 23.8981 104.675 22.1011C100.575 20.3761 96.5648 18.5961 92.8008 17.2131C88.3008 15.5611 84.2948 14.0221 80.2168 12.7431C74.1718 10.8431 68.1461 9.06514 62.7861 7.74314C53.5581 5.45914 45.178 3.98613 37.835 2.84313C30.712 1.73113 24.3975 1.20314 19.5635 0.808141L17.1592 0.608129C15.5212 0.472129 13.6514 0.371141 12.5264 0.308141C8.35826 0.00503352 4.17636 -0.0707504 0 0.0811366H259.51V259.52Z" fill="#F1F4FF"/>
</svg>
