<?xml version="1.0" encoding="UTF-8"?>
<svg xmlns="http://www.w3.org/2000/svg" xmlns:xlink="http://www.w3.org/1999/xlink" width="26px" height="20px" viewBox="0 0 26 20" version="1.1">
<g id="surface1">
<rect x="0" y="0" width="26" height="20" style="fill:rgb(0%,38.431373%,20%);fill-opacity:1;stroke:none;"/>
<path style="fill-rule:evenodd;fill:rgb(100%,100%,100%);fill-opacity:1;stroke-width:0.4;stroke-linecap:butt;stroke-linejoin:miter;stroke:rgb(100%,100%,100%);stroke-opacity:1;stroke-miterlimit:4;" d="M 1071.961322 2779.700726 C 1046.041704 2818.527056 1064.820202 2844.033404 1091.268792 2845.733827 C 1108.989347 2846.867443 1145.4884 2820.794287 1145.4884 2789.903265 L 1135.437936 2784.518591 C 1140.992139 2800.105804 1135.17345 2805.207074 1123.271585 2815.976421 C 1099.996826 2837.231711 1051.860394 2838.932134 1071.961322 2779.700726 Z M 1071.961322 2779.700726 " transform="matrix(0.0147692,0,0,0.0137833,-5.28125,-27.954167)"/>
<path style="fill-rule:evenodd;fill:rgb(100%,100%,100%);fill-opacity:1;stroke-width:1;stroke-linecap:butt;stroke-linejoin:miter;stroke:rgb(100%,100%,100%);stroke-opacity:1;stroke-miterlimit:4;" d="M 1277.202374 2881.726119 C 1422.934101 2885.693773 1469.483618 2744.558646 1379.293928 2623.828597 L 1370.565894 2637.148579 C 1376.384584 2693.545949 1384.583646 2749.093108 1385.377104 2806.624093 C 1367.921035 2827.312576 1342.265904 2819.660671 1337.240672 2796.704958 C 1337.505157 2765.530532 1327.190208 2739.173972 1314.494885 2713.951028 L 1307.08928 2727.27101 C 1315.552828 2747.959492 1324.809835 2771.198609 1326.661236 2796.704958 C 1284.872465 2846.584039 1239.116406 2856.786578 1256.043503 2791.03688 C 1223.247252 2848.567866 1272.9706 2889.094619 1329.306095 2800.672612 C 1341.472446 2861.037636 1388.286449 2823.628325 1391.195794 2810.591747 C 1396.221026 2770.915206 1393.576167 2707.149335 1383.261217 2656.703446 C 1423.992044 2726.987606 1425.314474 2777.716898 1403.626631 2811.725363 C 1379.8229 2849.418077 1327.454694 2866.989117 1277.202374 2881.726119 Z M 1277.202374 2881.726119 " transform="matrix(0.0147692,0,0,0.0137833,-5.28125,-27.954167)"/>
<path style="fill-rule:evenodd;fill:rgb(100%,100%,100%);fill-opacity:1;stroke-width:1;stroke-linecap:butt;stroke-linejoin:miter;stroke:rgb(100%,100%,100%);stroke-opacity:1;stroke-miterlimit:4;" d="M 1359.986458 2722.16974 C 1328.777123 2724.436971 1312.643484 2718.202086 1329.570581 2694.962969 C 1346.233192 2672.290659 1361.83786 2690.428507 1366.069634 2720.469317 C 1370.036922 2748.809704 1311.321054 2785.085399 1290.95564 2785.085399 C 1260.275277 2785.085399 1245.993039 2745.408857 1274.293029 2709.983374 C 1238.058462 2813.70919 1353.109825 2753.62757 1359.986458 2722.16974 Z M 1338.298615 2698.080411 C 1334.595813 2698.080411 1331.686468 2704.5987 1333.537869 2706.015719 C 1339.092073 2709.69997 1347.820107 2707.432739 1348.613565 2705.732316 C 1350.729452 2701.481258 1343.588333 2698.363815 1338.298615 2698.080411 Z M 1338.298615 2698.080411 " transform="matrix(0.0147692,0,0,0.0137833,-5.28125,-27.954167)"/>
<path style="fill-rule:evenodd;fill:rgb(100%,100%,100%);fill-opacity:1;stroke-width:1;stroke-linecap:butt;stroke-linejoin:miter;stroke:rgb(100%,100%,100%);stroke-opacity:1;stroke-miterlimit:4;" d="M 1190.451001 2771.198609 C 1160.564096 2830.146614 1190.451001 2854.519347 1228.801456 2847.717654 C 1251.282757 2843.466596 1279.582747 2827.595979 1295.980872 2806.057285 C 1296.509844 2758.162031 1295.716386 2710.833585 1291.484612 2664.638755 C 1306.560308 2646.500907 1290.162183 2646.784311 1284.607979 2627.512848 C 1281.96312 2638.565599 1275.615459 2650.751965 1281.698634 2659.537485 C 1285.930408 2706.299123 1288.310782 2753.62757 1288.310782 2801.806227 C 1258.15939 2825.895556 1235.413603 2834.96448 1219.279964 2834.681076 C 1185.690255 2834.397672 1178.549136 2806.340689 1190.451001 2771.198609 Z M 1190.451001 2771.198609 " transform="matrix(0.0147692,0,0,0.0137833,-5.28125,-27.954167)"/>
<path style="fill-rule:evenodd;fill:rgb(100%,100%,100%);fill-opacity:1;stroke-width:1;stroke-linecap:butt;stroke-linejoin:miter;stroke:rgb(100%,100%,100%);stroke-opacity:1;stroke-miterlimit:4;" d="M 1251.811728 2786.785822 C 1251.282757 2742.291415 1250.489299 2691.562122 1246.522011 2660.6711 C 1262.126678 2643.383464 1245.728553 2642.816657 1240.703321 2623.545193 C 1237.793976 2634.597944 1231.181829 2646.500907 1237.000518 2655.286427 C 1239.380891 2702.898277 1242.02575 2750.510127 1242.554722 2798.121977 C 1245.993039 2795.854746 1250.224813 2795.004534 1251.811728 2786.785822 Z M 1251.811728 2786.785822 " transform="matrix(0.0147692,0,0,0.0137833,-5.28125,-27.954167)"/>
<path style="fill-rule:evenodd;fill:rgb(100%,100%,100%);fill-opacity:1;stroke-width:0.4;stroke-linecap:butt;stroke-linejoin:miter;stroke:rgb(100%,100%,100%);stroke-opacity:1;stroke-miterlimit:4;" d="M 1135.437936 2784.518591 C 1131.470647 2779.700726 1128.825788 2774.316052 1125.916444 2769.78159 C 1125.387472 2762.979897 1129.883732 2756.745012 1130.412704 2753.344166 C 1135.437936 2761.279474 1138.611766 2767.230955 1142.579055 2771.198609 M 1147.868773 2774.316052 C 1155.538864 2777.433495 1164.79587 2777.433495 1173.259418 2777.433495 C 1206.055669 2778.000302 1240.438835 2772.615629 1236.736033 2817.110036 C 1234.620145 2851.685308 1206.055669 2878.608676 1171.672503 2878.89208 C 1129.883732 2878.608676 1094.178137 2832.697249 1158.712694 2747.959492 C 1164.79587 2746.825877 1172.994932 2748.5263 1179.60708 2749.093108 C 1190.979973 2750.226723 1202.881838 2749.093108 1216.370619 2738.323761 C 1214.783703 2710.266778 1214.783703 2683.910218 1211.345387 2658.687273 C 1205.526697 2649.901753 1212.138845 2637.998791 1215.312675 2626.662636 C 1220.337907 2646.217503 1236.471547 2646.500907 1221.131365 2664.071947 C 1224.834167 2692.12893 1225.098653 2720.469317 1225.098653 2737.473549 C 1217.428562 2749.376511 1211.345387 2762.129686 1188.5996 2766.664148 C 1165.324842 2763.263301 1154.745406 2730.671856 1130.412704 2741.724607 C 1137.024851 2712.250605 1198.91455 2705.448912 1204.997725 2728.688029 C 1201.030437 2752.777358 1143.372513 2743.141626 1128.032331 2821.361094 C 1123.271585 2845.450423 1148.66223 2867.839329 1174.846334 2865.855502 C 1200.236979 2864.155079 1227.479026 2846.584039 1230.123885 2816.826632 C 1232.239772 2791.887092 1197.327635 2794.721131 1182.516425 2795.004534 C 1161.093067 2795.571342 1147.604287 2792.170496 1139.405224 2787.636034 M 1161.357553 2733.505895 C 1165.324842 2730.105048 1178.549136 2727.554414 1183.309882 2733.222491 C 1179.60708 2735.773126 1176.168763 2738.323761 1173.259418 2741.441203 C 1168.234186 2738.890568 1165.060356 2736.339933 1161.357553 2733.505895 Z M 1161.357553 2733.505895 " transform="matrix(0.0147692,0,0,0.0137833,-5.28125,-27.954167)"/>
<path style="fill-rule:evenodd;fill:rgb(100%,100%,100%);fill-opacity:1;stroke-width:1;stroke-linecap:butt;stroke-linejoin:miter;stroke:rgb(100%,100%,100%);stroke-opacity:1;stroke-miterlimit:4;" d="M 1193.889318 2651.035369 C 1197.327635 2657.553658 1199.179036 2664.638755 1199.179036 2672.007255 C 1197.063149 2682.209794 1188.070628 2692.12893 1179.078108 2692.412334 C 1173.259418 2692.412334 1166.911757 2690.995314 1162.415497 2681.926391 C 1161.886525 2680.792775 1159.506152 2678.24214 1157.125779 2679.375756 C 1147.075315 2696.096584 1139.66971 2703.181681 1130.412704 2702.898277 C 1112.427663 2702.614873 1117.717381 2686.460852 1100.790284 2681.359583 C 1093.913651 2681.359583 1082.276271 2688.44468 1076.457582 2702.331469 C 1053.976281 2765.813936 1033.610867 2702.048065 1042.338902 2672.574063 C 1043.661331 2700.91445 1050.537964 2717.635278 1057.414598 2717.06847 C 1062.704315 2716.501663 1067.200576 2704.882104 1073.548237 2692.412334 C 1078.573469 2682.776602 1090.475334 2665.77237 1103.170657 2665.77237 C 1114.808036 2666.055774 1107.666917 2687.311064 1130.67719 2687.02766 C 1142.050083 2687.02766 1152.365033 2678.24214 1162.679983 2661.237908 C 1165.060356 2660.6711 1165.589327 2664.922158 1166.118299 2666.339178 C 1167.705215 2672.007255 1178.020164 2688.161276 1191.773431 2673.424274 C 1190.979973 2670.306832 1191.244459 2664.922158 1187.806142 2663.788543 Z M 1193.889318 2651.035369 " transform="matrix(0.0147692,0,0,0.0137833,-5.28125,-27.954167)"/>
<path style="fill-rule:evenodd;fill:rgb(100%,100%,100%);fill-opacity:1;stroke-width:0.4;stroke-linecap:butt;stroke-linejoin:miter;stroke:rgb(100%,100%,100%);stroke-opacity:1;stroke-miterlimit:4;" d="M 1266.887424 2598.322249 C 1254.721073 2604.27373 1245.728553 2598.889057 1240.438835 2593.504383 C 1249.431355 2591.520556 1256.307989 2588.403114 1258.423876 2581.318017 C 1254.192101 2572.532497 1244.670609 2568.564843 1231.446315 2568.281439 C 1213.461274 2568.848247 1204.204268 2576.216747 1203.146324 2586.135883 C 1211.609873 2586.419287 1219.015478 2583.868652 1222.189308 2592.087364 C 1207.378098 2599.172461 1190.186515 2601.723096 1171.408017 2601.723096 C 1140.727654 2603.423519 1136.231393 2589.536729 1128.032331 2577.066959 C 1127.503359 2576.500151 1124.594014 2575.083132 1123.271585 2575.366536 C 1113.750093 2575.366536 1106.873459 2608.524788 1096.029538 2608.524788 C 1085.450102 2607.107769 1087.830475 2586.986094 1084.656644 2575.64994 C 1082.011785 2593.504383 1088.094961 2660.104293 1121.155698 2587.836306 C 1122.213641 2585.285671 1123.536071 2586.135883 1124.329528 2588.11971 C 1133.322049 2608.241385 1151.307089 2615.326481 1170.879045 2616.176693 C 1187.277171 2617.310308 1207.90707 2610.225212 1230.388371 2597.472037 C 1236.207061 2603.990326 1240.967807 2611.358827 1253.398644 2612.775846 C 1267.680882 2613.626058 1283.28555 2603.140115 1286.723866 2590.103537 C 1288.575267 2583.301844 1288.839753 2569.981862 1281.698634 2569.981862 C 1271.912656 2569.698458 1264.771537 2593.504383 1266.887424 2615.326481 C 1267.15191 2614.759674 1268.209854 2609.658404 1268.209854 2609.658404 M 1224.569681 2581.034613 C 1230.917343 2577.91717 1237.265004 2576.500151 1242.290236 2583.301844 C 1239.380891 2584.152056 1236.471547 2585.285671 1233.826688 2587.269498 C 1231.181829 2585.002267 1227.21454 2583.868652 1224.569681 2581.034613 Z M 1272.177142 2595.771614 C 1274.028543 2588.686518 1274.822001 2583.01844 1280.640691 2579.33419 C 1281.698634 2586.986094 1281.96312 2591.237152 1272.177142 2595.771614 Z M 1311.321054 2606.824365 C 1309.469653 2600.872884 1307.618252 2595.48821 1306.824794 2588.969921 C 1305.502365 2575.366536 1316.875258 2567.998035 1327.454694 2569.131651 C 1338.034129 2569.981862 1345.175248 2574.23292 1355.490198 2577.633767 C 1363.424775 2580.184401 1374.268697 2582.451632 1384.583646 2585.285671 C 1390.402336 2587.836306 1384.583646 2594.637999 1382.996731 2595.48821 C 1357.077114 2605.69075 1338.827587 2621.561366 1322.429462 2622.411578 C 1312.643484 2622.978386 1303.915449 2616.460097 1295.980872 2603.423519 C 1295.716386 2577.91717 1294.658443 2548.159764 1292.27807 2529.455109 C 1295.980872 2525.770859 1296.77433 2522.93682 1298.625731 2519.819377 C 1300.477133 2544.475514 1301.27059 2570.54867 1301.799562 2596.621826 C 1303.915449 2601.156288 1306.560308 2605.123942 1311.321054 2606.824365 Z M 1327.719179 2608.808192 C 1313.965913 2612.775846 1315.817314 2601.156288 1314.494885 2593.787787 C 1312.907969 2585.569075 1313.965913 2575.933343 1324.545349 2578.483978 C 1338.563101 2582.168229 1351.258424 2586.986094 1363.424775 2592.087364 Z M 1327.719179 2608.808192 " transform="matrix(0.0147692,0,0,0.0137833,-5.28125,-27.954167)"/>
<path style="fill-rule:evenodd;fill:rgb(100%,100%,100%);fill-opacity:1;stroke-width:0.4;stroke-linecap:butt;stroke-linejoin:miter;stroke:rgb(100%,100%,100%);stroke-opacity:1;stroke-miterlimit:4;" d="M 1314.230399 2621.277963 L 1316.0818 2630.63029 L 1317.668716 2630.63029 L 1317.139744 2621.84477 " transform="matrix(0.0147692,0,0,0.0137833,-5.28125,-27.954167)"/>
<path style="fill-rule:evenodd;fill:rgb(100%,100%,100%);fill-opacity:1;stroke-width:4;stroke-linecap:round;stroke-linejoin:round;stroke:rgb(100%,100%,100%);stroke-opacity:1;stroke-miterlimit:4;" d="M 1094.178137 2718.48549 L 1101.319256 2711.400393 L 1109.253832 2718.202086 L 1101.848227 2725.003779 Z M 1111.898691 2716.218259 L 1119.03981 2708.849758 L 1127.238873 2715.934855 L 1119.568782 2722.453144 Z M 1062.439829 2641.399637 L 1069.580949 2634.314541 L 1077.780011 2641.116233 L 1070.10992 2647.917926 Z M 1065.61366 2662.654927 L 1072.754779 2655.569831 L 1080.689356 2662.371524 L 1073.283751 2669.173216 Z M 1194.153804 2698.080411 L 1200.765951 2692.979141 L 1206.584641 2699.49743 L 1199.972493 2704.315296 Z M 1108.460375 2562.613362 L 1112.956635 2557.795496 L 1118.246353 2562.329958 L 1113.485607 2566.581016 Z M 1120.097754 2560.912938 L 1124.594014 2556.095073 L 1129.883732 2560.912938 L 1125.122986 2565.163996 Z M 1365.805148 2614.759674 L 1361.308888 2618.443924 L 1357.077114 2614.192866 L 1361.573374 2610.792019 Z M 1365.805148 2614.759674 " transform="matrix(0.0147692,0,0,0.0137833,-5.28125,-27.954167)"/>
<path style="fill-rule:evenodd;fill:rgb(100%,100%,100%);fill-opacity:1;stroke-width:0.4;stroke-linecap:butt;stroke-linejoin:miter;stroke:rgb(100%,100%,100%);stroke-opacity:1;stroke-miterlimit:4;" d="M 1158.712694 2747.392684 L 1158.183722 2755.327993 L 1170.879045 2756.461608 L 1180.929509 2748.809704 Z M 1158.712694 2747.392684 " transform="matrix(0.0147692,0,0,0.0137833,-5.28125,-27.954167)"/>
<path style="fill-rule:evenodd;fill:rgb(100%,100%,100%);fill-opacity:1;stroke-width:1;stroke-linecap:butt;stroke-linejoin:miter;stroke:rgb(100%,100%,100%);stroke-opacity:1;stroke-miterlimit:4;" d="M 1265.300509 2599.739268 L 1269.003311 2598.889057 L 1268.47434 2609.375 L 1266.093967 2610.225212 Z M 1265.300509 2599.739268 " transform="matrix(0.0147692,0,0,0.0137833,-5.28125,-27.954167)"/>
<path style=" stroke:none;fill-rule:nonzero;fill:rgb(100%,100%,100%);fill-opacity:1;" d="M 13 13.597656 C 15.097656 13.597656 16.800781 12.003906 16.800781 10.046875 C 16.789062 8.988281 16.300781 8 15.476562 7.363281 C 15.976562 7.902344 16.253906 8.617188 16.257812 9.363281 C 16.257812 11.0625 14.800781 12.441406 13 12.441406 C 11.199219 12.441406 9.742188 11.0625 9.742188 9.359375 C 9.742188 8.597656 10.035156 7.894531 10.523438 7.359375 C 9.695312 7.996094 9.207031 8.992188 9.199219 10.050781 C 9.199219 12.003906 10.902344 13.597656 13 13.597656 Z M 13 13.597656 "/>
<path style="fill-rule:nonzero;fill:rgb(100%,100%,100%);fill-opacity:1;stroke-width:8;stroke-linecap:butt;stroke-linejoin:miter;stroke:rgb(0%,0%,0%);stroke-opacity:1;stroke-miterlimit:4;" d="M -54.106521 1622.803935 C -141.824669 1667.164441 -252.0872 1654.866479 -345.13402 1595.133521 C -348.823101 1592.937456 -350.872591 1596.011947 -347.18351 1606.99227 C -336.936062 1635.980323 -329.148003 1658.819396 -359.070548 1701.862263 C -372.187281 1721.187632 -357.021059 1723.822909 -334.886573 1722.066058 C -222.98445 1711.085734 -113.131817 1686.050597 -59.845091 1664.968377 Z M -56.15601 1675.070274 C -90.997331 1689.125088 -150.842422 1705.815179 -218.065675 1718.113141 C -245.118936 1722.066058 -243.889242 1739.195362 -195.93119 1744.90513 C -147.153341 1750.175685 -84.029067 1715.038651 -45.908563 1683.854533 Z M -56.15601 1675.070274 " transform="matrix(0.00952981,0,0,0.00889375,13,1.1375)"/>
<path style="fill-rule:nonzero;fill:rgb(100%,100%,100%);fill-opacity:1;stroke-width:8;stroke-linecap:butt;stroke-linejoin:miter;stroke:rgb(0%,0%,0%);stroke-opacity:1;stroke-miterlimit:4;" d="M 0 1578.882642 C 11.887039 1578.882642 34.021525 1574.0513 56.15601 1570.97681 C 97.145799 1563.949403 66.813355 1627.196065 0 1627.196065 L 0 1647.839072 C 68.043049 1647.839072 138.955383 1574.0513 124.19906 1541.11033 C 102.884369 1492.796908 45.088767 1534.082923 0 1534.082923 C -45.088767 1534.082923 -102.884369 1492.796908 -124.19906 1541.11033 C -138.955383 1574.0513 -68.043049 1647.839072 0 1647.839072 L 0 1627.196065 C -66.813355 1627.196065 -97.145799 1563.949403 -56.15601 1570.97681 C -34.021525 1574.0513 -11.887039 1578.882642 0 1578.882642 Z M 0 1578.882642 " transform="matrix(0.00952981,0,0,0.00889375,13,1.1375)"/>
<path style="fill-rule:nonzero;fill:rgb(100%,100%,100%);fill-opacity:1;stroke-width:8;stroke-linecap:butt;stroke-linejoin:miter;stroke:rgb(0%,0%,0%);stroke-opacity:1;stroke-miterlimit:4;" d="M 54.106521 1622.803935 C 141.824669 1667.164441 252.0872 1654.866479 345.13402 1595.133521 C 348.823101 1592.937456 350.872591 1596.011947 347.18351 1606.99227 C 336.936062 1635.980323 329.148003 1658.819396 359.070548 1701.862263 C 372.187281 1721.187632 357.021059 1723.822909 334.886573 1722.066058 C 222.98445 1711.085734 113.131817 1686.050597 59.845091 1664.968377 Z M 56.15601 1675.070274 C 90.997331 1689.125088 150.022626 1705.815179 218.065675 1718.113141 C 245.118936 1722.066058 243.889242 1739.195362 195.93119 1744.90513 C 147.153341 1750.175685 84.029067 1715.038651 45.908563 1683.854533 Z M 56.15601 1675.070274 " transform="matrix(0.00952981,0,0,0.00889375,13,1.1375)"/>
<path style="fill-rule:nonzero;fill:rgb(100%,100%,100%);fill-opacity:1;stroke-width:8;stroke-linecap:butt;stroke-linejoin:miter;stroke:rgb(0%,0%,0%);stroke-opacity:1;stroke-miterlimit:4;" d="M 2.869285 1664.968377 C 4.918775 1682.097681 8.197958 1718.991567 31.152239 1703.179902 C 61.894581 1682.097681 68.862845 1665.846803 68.862845 1635.980323 C 68.862845 1617.094167 45.908563 1588.98454 0 1588.98454 C -45.908563 1588.98454 -68.862845 1617.094167 -68.862845 1635.980323 C -68.862845 1665.846803 -61.894581 1682.097681 -31.152239 1703.179902 C -8.197958 1718.991567 -6.148468 1682.097681 -2.869285 1664.968377 C -2.049489 1658.819396 2.869285 1661.01546 2.869285 1664.968377 Z M 2.869285 1664.968377 " transform="matrix(0.00952981,0,0,0.00889375,13,1.1375)"/>
<path style="fill-rule:nonzero;fill:rgb(100%,100%,100%);fill-opacity:1;stroke-width:8;stroke-linecap:butt;stroke-linejoin:miter;stroke:rgb(0%,0%,0%);stroke-opacity:1;stroke-miterlimit:4;" d="M -29.10275 383.784259 C -41.809584 309.996486 -150.842422 305.165144 -168.058133 292.867182 C -188.14313 280.130007 -184.863947 292.867182 -177.895683 313.070977 C -157.810686 364.898103 -90.177535 385.980323 -59.025296 392.129304 C -34.021525 396.082221 -25.823567 397.839072 -29.10275 383.784259 Z M -29.10275 383.784259 " transform="matrix(0.00952981,0,0,0.00889375,13,1.1375)"/>
<path style="fill-rule:nonzero;fill:rgb(100%,100%,100%);fill-opacity:1;stroke-width:8;stroke-linecap:butt;stroke-linejoin:miter;stroke:rgb(0%,0%,0%);stroke-opacity:1;stroke-miterlimit:4;" d="M 4.098979 385.980323 C 15.166222 309.996486 -93.04682 273.981026 -106.163553 256.851722 C -120.919876 238.843992 -122.969366 249.824315 -116.001102 270.906535 C -102.884369 316.145467 -56.15601 368.851019 -27.873056 382.905833 C -4.918775 395.203795 2.049489 400.035137 4.098979 385.980323 Z M 4.098979 385.980323 " transform="matrix(0.00952981,0,0,0.00889375,13,1.1375)"/>
<path style="fill-rule:nonzero;fill:rgb(100%,100%,100%);fill-opacity:1;stroke-width:8;stroke-linecap:butt;stroke-linejoin:miter;stroke:rgb(0%,0%,0%);stroke-opacity:1;stroke-miterlimit:4;" d="M 93.04682 429.901616 C 102.884369 338.98454 15.166222 324.929726 -8.197958 295.941673 C -22.954282 277.933942 -24.183975 288.03584 -18.855303 309.11806 C -9.017753 354.796205 34.84132 408.819396 61.894581 425.9487 C 82.799373 439.125088 91.817127 443.95643 93.04682 429.901616 Z M 93.04682 429.901616 " transform="matrix(0.00952981,0,0,0.00889375,13,1.1375)"/>
<path style="fill-rule:nonzero;fill:rgb(100%,100%,100%);fill-opacity:1;stroke-width:8;stroke-linecap:butt;stroke-linejoin:miter;stroke:rgb(0%,0%,0%);stroke-opacity:1;stroke-miterlimit:4;" d="M 65.99356 410.137034 C -25.003771 350.843289 -88.947841 383.784259 -115.181306 381.148981 C -140.185077 378.074491 -147.973137 393.886156 -104.933859 418.042867 C -52.057032 447.030921 22.134486 443.078004 50.827338 432.097681 C 81.159781 419.799719 72.142028 414.089951 65.99356 410.137034 Z M 202.899454 450.105411 C 175.026397 352.160928 109.852634 367.972593 90.997331 356.113844 C 72.142028 343.815882 70.092539 346.890372 74.191517 368.851019 C 81.979577 407.94097 149.202831 450.983837 181.994661 464.160225 C 193.8817 468.113141 209.047922 473.822909 202.899454 450.105411 Z M 202.899454 450.105411 " transform="matrix(0.00952981,0,0,0.00889375,13,1.1375)"/>
<path style="fill-rule:nonzero;fill:rgb(100%,100%,100%);fill-opacity:1;stroke-width:8;stroke-linecap:butt;stroke-linejoin:miter;stroke:rgb(0%,0%,0%);stroke-opacity:1;stroke-miterlimit:4;" d="M 190.192619 466.795502 C 111.902123 403.988053 50.827338 450.983837 27.05326 443.95643 C 9.017753 439.125088 16.805813 450.983837 24.183975 455.815179 C 74.191517 490.952214 136.086098 509.83837 184.044151 487.877723 C 202.899454 479.97189 204.129147 478.215039 190.192619 466.795502 Z M 359.070548 530.92059 C 359.890344 468.991567 232.002204 443.078004 204.948943 404.866479 C 188.962926 382.027407 175.026397 393.886156 182.814457 431.219255 C 195.111394 479.093465 282.829542 531.799016 331.197492 541.900914 C 359.890344 548.049895 359.070548 537.947997 359.070548 530.92059 Z M 359.070548 530.92059 " transform="matrix(0.00952981,0,0,0.00889375,13,1.1375)"/>
<path style="fill-rule:nonzero;fill:rgb(100%,100%,100%);fill-opacity:1;stroke-width:8;stroke-linecap:butt;stroke-linejoin:miter;stroke:rgb(0%,0%,0%);stroke-opacity:1;stroke-miterlimit:4;" d="M 354.971569 541.900914 C 273.811788 468.991567 206.178637 493.148278 181.174866 486.120871 C 156.171095 479.97189 145.923648 494.90513 184.863947 525.210822 C 232.821999 560.78707 307.013517 567.814476 338.165756 560.78707 C 368.908098 554.198876 361.120038 547.171469 354.971569 541.900914 Z M 500.075421 649.068869 C 477.12114 543.218552 404.159316 520.818693 386.123809 501.054111 C 368.908098 480.850316 350.872591 486.999297 366.038812 534.873507 C 384.074319 591.971188 443.099615 642.041462 473.841956 653.900211 C 504.1744 667.076599 502.124911 656.974701 500.075421 649.068869 Z M 500.075421 649.068869 " transform="matrix(0.00952981,0,0,0.00889375,13,1.1375)"/>
<path style="fill-rule:nonzero;fill:rgb(100%,100%,100%);fill-opacity:1;stroke-width:8;stroke-linecap:butt;stroke-linejoin:miter;stroke:rgb(0%,0%,0%);stroke-opacity:1;stroke-miterlimit:4;" d="M 498.845728 663.123682 C 439.820432 567.814476 363.169527 570.888967 338.985552 558.151792 C 316.03127 544.096978 300.045253 555.955727 331.197492 596.80253 C 366.858608 646.872804 441.050126 674.982431 475.07165 677.178496 C 509.093175 678.935348 502.944706 670.151089 498.845728 663.123682 Z M 498.845728 663.123682 " transform="matrix(0.00952981,0,0,0.00889375,13,1.1375)"/>
<path style="fill-rule:nonzero;fill:rgb(100%,100%,100%);fill-opacity:1;stroke-width:8;stroke-linecap:butt;stroke-linejoin:miter;stroke:rgb(0%,0%,0%);stroke-opacity:1;stroke-miterlimit:4;" d="M 575.086734 776.001405 C 609.108259 667.955025 530.817763 627.986648 523.029703 609.978918 C 514.011949 591.971188 504.994196 591.971188 500.075421 610.857344 C 477.940935 688.158819 548.85327 762.825018 559.920513 778.19747 C 570.987756 791.813071 573.037245 784.785664 575.086734 776.001405 Z M 575.086734 776.001405 " transform="matrix(0.00952981,0,0,0.00889375,13,1.1375)"/>
<path style="fill-rule:nonzero;fill:rgb(100%,100%,100%);fill-opacity:1;stroke-width:8;stroke-linecap:butt;stroke-linejoin:miter;stroke:rgb(0%,0%,0%);stroke-opacity:1;stroke-miterlimit:4;" d="M 559.100717 805.867885 C 532.047456 685.084329 461.135122 692.111736 445.149104 674.982431 C 427.933393 657.853127 425.883904 670.151089 429.163087 692.111736 C 436.951147 750.966268 507.863481 790.934645 539.835516 811.13844 C 550.082963 816.848208 561.970002 823.875615 559.100717 805.867885 Z M 627.143766 948.172874 C 675.921614 833.977512 618.126012 757.115249 600.090505 739.985945 C 582.054998 724.17428 570.987756 717.146873 577.136224 739.985945 C 584.924284 775.12298 557.051227 865.16163 600.090505 931.04357 C 614.027034 953.004216 616.076523 974.086437 627.143766 948.172874 Z M 627.143766 948.172874 " transform="matrix(0.00952981,0,0,0.00889375,13,1.1375)"/>
<path style="fill-rule:nonzero;fill:rgb(100%,100%,100%);fill-opacity:1;stroke-width:8;stroke-linecap:butt;stroke-linejoin:miter;stroke:rgb(0%,0%,0%);stroke-opacity:1;stroke-miterlimit:4;" d="M 600.910301 971.011947 C 611.977544 901.177091 571.807551 837.052003 529.178171 812.016866 C 504.1744 797.083626 502.944706 801.036543 502.944706 822.118763 C 504.994196 887.122277 566.068981 941.145467 584.104488 971.011947 C 600.910301 999.121574 600.090505 978.039353 600.910301 971.011947 Z M 600.910301 971.011947 " transform="matrix(0.00952981,0,0,0.00889375,13,1.1375)"/>
<path style="fill-rule:nonzero;fill:rgb(100%,100%,100%);fill-opacity:1;stroke-width:8;stroke-linecap:butt;stroke-linejoin:miter;stroke:rgb(0%,0%,0%);stroke-opacity:1;stroke-miterlimit:4;" d="M 589.843058 1152.8461 C 554.181942 1021.082221 629.193255 945.098384 652.147537 930.165144 C 673.872125 913.914266 687.808653 908.204498 677.971104 932.800422 C 662.804882 970.133521 679.200797 1072.909346 621.815093 1137.91286 C 604.189484 1159.873507 596.811322 1183.151792 589.843058 1152.8461 Z M 589.843058 1152.8461 " transform="matrix(0.00952981,0,0,0.00889375,13,1.1375)"/>
<path style="fill-rule:nonzero;fill:rgb(100%,100%,100%);fill-opacity:1;stroke-width:8;stroke-linecap:butt;stroke-linejoin:miter;stroke:rgb(0%,0%,0%);stroke-opacity:1;stroke-miterlimit:4;" d="M 598.041016 1123.858046 C 627.963562 1008.784259 563.199696 943.780745 543.114699 931.04357 C 523.849499 917.867182 511.96246 913.03584 520.980213 934.11806 C 532.867252 966.180604 520.160418 1056.219255 570.16796 1111.999297 C 586.153977 1130.885453 591.892548 1150.210822 598.041016 1123.858046 Z M 598.041016 1123.858046 " transform="matrix(0.00952981,0,0,0.00889375,13,1.1375)"/>
<path style="fill-rule:nonzero;fill:rgb(100%,100%,100%);fill-opacity:1;stroke-width:8;stroke-linecap:butt;stroke-linejoin:miter;stroke:rgb(0%,0%,0%);stroke-opacity:1;stroke-miterlimit:4;" d="M 561.150206 1069.834856 C 507.043685 1127.810963 505.813992 1213.018271 529.997967 1263.088545 C 545.164189 1292.076599 546.80378 1289.880534 561.150206 1268.798313 C 598.860812 1208.186929 575.90653 1119.90513 577.95602 1080.815179 C 579.185713 1043.921293 566.888777 1064.125088 561.150206 1069.834856 Z M 561.150206 1069.834856 " transform="matrix(0.00952981,0,0,0.00889375,13,1.1375)"/>
<path style="fill-rule:nonzero;fill:rgb(100%,100%,100%);fill-opacity:1;stroke-width:8;stroke-linecap:butt;stroke-linejoin:miter;stroke:rgb(0%,0%,0%);stroke-opacity:1;stroke-miterlimit:4;" d="M 650.098048 1162.069571 C 650.098048 1242.006325 600.910301 1307.009838 548.85327 1327.213633 C 518.930724 1338.193956 518.930724 1335.119466 523.029703 1310.962755 C 536.966231 1220.924104 605.829076 1187.983134 630.832847 1158.995081 C 655.016822 1130.885453 650.098048 1154.163739 650.098048 1162.069571 Z M 650.098048 1162.069571 " transform="matrix(0.00952981,0,0,0.00889375,13,1.1375)"/>
<path style="fill-rule:nonzero;fill:rgb(100%,100%,100%);fill-opacity:1;stroke-width:8;stroke-linecap:butt;stroke-linejoin:miter;stroke:rgb(0%,0%,0%);stroke-opacity:1;stroke-miterlimit:4;" d="M 464.004407 1400.12298 C 552.132453 1320.186226 504.994196 1263.966971 509.093175 1212.139845 C 511.142664 1184.030218 500.075421 1191.057625 489.827974 1201.159522 C 434.081862 1256.061138 430.802678 1354.005622 443.099615 1392.217147 C 448.01839 1408.907238 455.806449 1407.150387 464.004407 1400.12298 Z M 464.004407 1400.12298 " transform="matrix(0.00952981,0,0,0.00889375,13,1.1375)"/>
<path style="fill-rule:nonzero;fill:rgb(100%,100%,100%);fill-opacity:1;stroke-width:8;stroke-linecap:butt;stroke-linejoin:miter;stroke:rgb(0%,0%,0%);stroke-opacity:1;stroke-miterlimit:4;" d="M 582.054998 1347.856641 C 552.952249 1436.13844 475.891446 1490.16163 411.12758 1492.796908 C 373.007076 1494.992973 373.826872 1491.918482 386.943605 1466.004919 C 436.131351 1372.013352 523.029703 1361.033029 561.970002 1336.876318 C 598.041016 1314.915671 584.924284 1339.072382 582.054998 1347.856641 Z M 582.054998 1347.856641 " transform="matrix(0.00952981,0,0,0.00889375,13,1.1375)"/>
<path style="fill-rule:nonzero;fill:rgb(100%,100%,100%);fill-opacity:1;stroke-width:8;stroke-linecap:butt;stroke-linejoin:miter;stroke:rgb(0%,0%,0%);stroke-opacity:1;stroke-miterlimit:4;" d="M 343.084531 1513.000703 C 457.036143 1455.903022 434.081862 1361.033029 454.986654 1336.876318 C 470.152876 1320.186226 452.117369 1321.943078 443.099615 1328.092059 C 375.876362 1367.18201 322.179739 1429.111033 320.950045 1494.992973 C 320.950045 1520.02811 322.999534 1523.1026 343.084531 1513.000703 Z M 343.084531 1513.000703 " transform="matrix(0.00952981,0,0,0.00889375,13,1.1375)"/>
<path style="fill-rule:nonzero;fill:rgb(100%,100%,100%);fill-opacity:1;stroke-width:8;stroke-linecap:butt;stroke-linejoin:miter;stroke:rgb(0%,0%,0%);stroke-opacity:1;stroke-miterlimit:4;" d="M 186.913436 1618.851019 C 331.197492 1642.129304 398.010848 1533.204498 439.820432 1523.1026 C 461.954918 1517.832045 445.9689 1509.047786 434.901657 1508.169361 C 338.985552 1497.189037 216.835982 1541.988756 179.945172 1592.05903 C 165.188848 1611.823612 165.188848 1616.215741 186.913436 1618.851019 Z M 186.913436 1618.851019 " transform="matrix(0.00952981,0,0,0.00889375,13,1.1375)"/>
<path style="fill-rule:nonzero;fill:rgb(100%,100%,100%);fill-opacity:1;stroke-width:8;stroke-linecap:butt;stroke-linejoin:miter;stroke:rgb(0%,0%,0%);stroke-opacity:1;stroke-miterlimit:4;" d="M 332.837084 1447.997189 C 304.144232 1542.867182 195.93119 1621.047084 115.181306 1627.196065 C 77.060803 1629.831342 77.060803 1625.878426 90.997331 1600.843289 C 156.171095 1483.134223 268.893013 1462.930429 309.063006 1433.063949 C 343.084531 1407.150387 336.116267 1439.21293 332.837084 1447.997189 Z M 29.10275 383.784259 C 41.809584 309.996486 150.842422 305.165144 168.058133 292.867182 C 188.14313 280.130007 184.863947 292.867182 177.895683 313.070977 C 157.810686 364.898103 90.177535 385.980323 59.025296 392.129304 C 34.021525 396.082221 25.823567 397.839072 29.10275 383.784259 Z M 29.10275 383.784259 " transform="matrix(0.00952981,0,0,0.00889375,13,1.1375)"/>
<path style="fill-rule:nonzero;fill:rgb(100%,100%,100%);fill-opacity:1;stroke-width:8;stroke-linecap:butt;stroke-linejoin:miter;stroke:rgb(0%,0%,0%);stroke-opacity:1;stroke-miterlimit:4;" d="M -4.098979 385.980323 C -15.166222 309.996486 93.04682 273.981026 106.163553 256.851722 C 120.919876 238.843992 122.969366 249.824315 116.001102 270.906535 C 102.884369 316.145467 56.15601 368.851019 27.873056 382.905833 C 4.918775 395.203795 -2.049489 400.035137 -4.098979 385.980323 Z M -4.098979 385.980323 " transform="matrix(0.00952981,0,0,0.00889375,13,1.1375)"/>
<path style="fill-rule:nonzero;fill:rgb(100%,100%,100%);fill-opacity:1;stroke-width:8;stroke-linecap:butt;stroke-linejoin:miter;stroke:rgb(0%,0%,0%);stroke-opacity:1;stroke-miterlimit:4;" d="M -93.04682 429.901616 C -102.884369 338.98454 -15.166222 324.929726 8.197958 295.941673 C 22.954282 277.933942 24.183975 288.03584 18.855303 309.11806 C 9.017753 354.796205 -34.84132 408.819396 -61.894581 425.9487 C -82.799373 439.125088 -91.817127 443.95643 -93.04682 429.901616 Z M -93.04682 429.901616 " transform="matrix(0.00952981,0,0,0.00889375,13,1.1375)"/>
<path style="fill-rule:nonzero;fill:rgb(100%,100%,100%);fill-opacity:1;stroke-width:8;stroke-linecap:butt;stroke-linejoin:miter;stroke:rgb(0%,0%,0%);stroke-opacity:1;stroke-miterlimit:4;" d="M -65.99356 410.137034 C 25.003771 350.843289 88.947841 383.784259 115.181306 381.148981 C 140.185077 378.074491 147.973137 393.886156 104.933859 418.042867 C 52.057032 447.030921 -22.134486 443.078004 -50.827338 432.097681 C -81.159781 419.799719 -72.142028 414.089951 -65.99356 410.137034 Z M -202.899454 450.105411 C -175.026397 352.160928 -109.852634 367.972593 -90.997331 356.113844 C -72.142028 343.815882 -70.092539 346.890372 -74.191517 368.851019 C -81.979577 407.94097 -149.202831 450.983837 -181.994661 464.160225 C -193.8817 468.113141 -209.047922 473.822909 -202.899454 450.105411 Z M -202.899454 450.105411 " transform="matrix(0.00952981,0,0,0.00889375,13,1.1375)"/>
<path style="fill-rule:nonzero;fill:rgb(100%,100%,100%);fill-opacity:1;stroke-width:8;stroke-linecap:butt;stroke-linejoin:miter;stroke:rgb(0%,0%,0%);stroke-opacity:1;stroke-miterlimit:4;" d="M -190.192619 466.795502 C -111.902123 403.988053 -50.827338 450.983837 -27.05326 443.95643 C -9.017753 439.125088 -16.805813 450.983837 -24.183975 455.815179 C -74.191517 490.952214 -136.086098 509.83837 -184.044151 487.877723 C -202.899454 479.97189 -204.129147 478.215039 -190.192619 466.795502 Z M -359.070548 530.92059 C -359.890344 468.991567 -232.002204 443.078004 -204.948943 404.866479 C -188.962926 382.027407 -175.026397 393.886156 -182.814457 431.219255 C -195.111394 479.093465 -282.829542 531.799016 -331.197492 541.900914 C -359.890344 548.049895 -359.070548 537.947997 -359.070548 530.92059 Z M -359.070548 530.92059 " transform="matrix(0.00952981,0,0,0.00889375,13,1.1375)"/>
<path style="fill-rule:nonzero;fill:rgb(100%,100%,100%);fill-opacity:1;stroke-width:8;stroke-linecap:butt;stroke-linejoin:miter;stroke:rgb(0%,0%,0%);stroke-opacity:1;stroke-miterlimit:4;" d="M -354.971569 541.900914 C -273.811788 468.991567 -206.178637 493.148278 -181.174866 486.120871 C -156.171095 479.97189 -145.923648 494.90513 -184.863947 525.210822 C -232.821999 560.78707 -307.013517 567.814476 -338.165756 560.78707 C -368.908098 554.198876 -361.120038 547.171469 -354.971569 541.900914 Z M -500.075421 649.068869 C -477.12114 543.218552 -404.159316 520.818693 -386.123809 501.054111 C -368.908098 480.850316 -350.872591 486.999297 -366.038812 534.873507 C -384.074319 591.971188 -443.099615 642.041462 -473.841956 653.900211 C -504.1744 667.076599 -502.124911 656.974701 -500.075421 649.068869 Z M -500.075421 649.068869 " transform="matrix(0.00952981,0,0,0.00889375,13,1.1375)"/>
<path style="fill-rule:nonzero;fill:rgb(100%,100%,100%);fill-opacity:1;stroke-width:8;stroke-linecap:butt;stroke-linejoin:miter;stroke:rgb(0%,0%,0%);stroke-opacity:1;stroke-miterlimit:4;" d="M -498.845728 663.123682 C -439.820432 567.814476 -363.169527 570.888967 -338.985552 558.151792 C -316.03127 544.096978 -300.045253 555.955727 -331.197492 596.80253 C -366.858608 646.872804 -441.050126 674.982431 -475.07165 677.178496 C -509.093175 678.935348 -502.944706 670.151089 -498.845728 663.123682 Z M -498.845728 663.123682 " transform="matrix(0.00952981,0,0,0.00889375,13,1.1375)"/>
<path style="fill-rule:nonzero;fill:rgb(100%,100%,100%);fill-opacity:1;stroke-width:8;stroke-linecap:butt;stroke-linejoin:miter;stroke:rgb(0%,0%,0%);stroke-opacity:1;stroke-miterlimit:4;" d="M -575.086734 776.001405 C -609.108259 667.955025 -530.817763 627.986648 -523.029703 609.978918 C -514.011949 591.971188 -504.994196 591.971188 -500.075421 610.857344 C -477.940935 688.158819 -548.85327 762.825018 -559.920513 778.19747 C -570.987756 791.813071 -573.037245 784.785664 -575.086734 776.001405 Z M -575.086734 776.001405 " transform="matrix(0.00952981,0,0,0.00889375,13,1.1375)"/>
<path style="fill-rule:nonzero;fill:rgb(100%,100%,100%);fill-opacity:1;stroke-width:8;stroke-linecap:butt;stroke-linejoin:miter;stroke:rgb(0%,0%,0%);stroke-opacity:1;stroke-miterlimit:4;" d="M -559.100717 805.867885 C -532.047456 685.084329 -461.135122 692.111736 -445.149104 674.982431 C -427.933393 657.853127 -425.883904 670.151089 -429.163087 692.111736 C -436.951147 750.966268 -507.863481 790.934645 -539.835516 811.13844 C -550.082963 816.848208 -561.970002 823.875615 -559.100717 805.867885 Z M -627.143766 948.172874 C -675.921614 833.977512 -618.126012 757.115249 -600.090505 739.985945 C -582.054998 724.17428 -570.987756 717.146873 -577.136224 739.985945 C -584.924284 775.12298 -557.051227 865.16163 -600.090505 931.04357 C -614.027034 953.004216 -616.076523 974.086437 -627.143766 948.172874 Z M -627.143766 948.172874 " transform="matrix(0.00952981,0,0,0.00889375,13,1.1375)"/>
<path style="fill-rule:nonzero;fill:rgb(100%,100%,100%);fill-opacity:1;stroke-width:8;stroke-linecap:butt;stroke-linejoin:miter;stroke:rgb(0%,0%,0%);stroke-opacity:1;stroke-miterlimit:4;" d="M -600.910301 971.011947 C -611.977544 901.177091 -571.807551 837.052003 -529.178171 812.016866 C -504.1744 797.083626 -502.944706 801.036543 -502.944706 822.118763 C -504.994196 887.122277 -566.068981 941.145467 -584.104488 971.011947 C -600.910301 999.121574 -600.090505 978.039353 -600.910301 971.011947 Z M -600.910301 971.011947 " transform="matrix(0.00952981,0,0,0.00889375,13,1.1375)"/>
<path style="fill-rule:nonzero;fill:rgb(100%,100%,100%);fill-opacity:1;stroke-width:8;stroke-linecap:butt;stroke-linejoin:miter;stroke:rgb(0%,0%,0%);stroke-opacity:1;stroke-miterlimit:4;" d="M -589.843058 1152.8461 C -554.181942 1021.082221 -629.193255 945.098384 -652.147537 930.165144 C -673.872125 913.914266 -687.808653 908.204498 -677.971104 932.800422 C -662.804882 970.133521 -679.200797 1072.909346 -621.815093 1137.91286 C -604.189484 1159.873507 -598.041016 1183.151792 -589.843058 1152.8461 Z M -589.843058 1152.8461 " transform="matrix(0.00952981,0,0,0.00889375,13,1.1375)"/>
<path style="fill-rule:nonzero;fill:rgb(100%,100%,100%);fill-opacity:1;stroke-width:8;stroke-linecap:butt;stroke-linejoin:miter;stroke:rgb(0%,0%,0%);stroke-opacity:1;stroke-miterlimit:4;" d="M -598.041016 1123.858046 C -627.963562 1008.784259 -563.199696 943.780745 -543.114699 931.04357 C -523.849499 917.867182 -511.96246 913.03584 -520.980213 934.11806 C -532.867252 966.180604 -520.160418 1056.219255 -570.16796 1111.999297 C -586.153977 1130.885453 -591.892548 1150.210822 -598.041016 1123.858046 Z M -598.041016 1123.858046 " transform="matrix(0.00952981,0,0,0.00889375,13,1.1375)"/>
<path style="fill-rule:nonzero;fill:rgb(100%,100%,100%);fill-opacity:1;stroke-width:8;stroke-linecap:butt;stroke-linejoin:miter;stroke:rgb(0%,0%,0%);stroke-opacity:1;stroke-miterlimit:4;" d="M -561.150206 1069.834856 C -507.043685 1127.810963 -505.813992 1213.018271 -529.997967 1263.088545 C -545.164189 1292.076599 -546.80378 1289.880534 -561.150206 1268.798313 C -598.860812 1208.186929 -575.90653 1119.90513 -577.95602 1080.815179 C -579.185713 1043.921293 -566.888777 1064.125088 -561.150206 1069.834856 Z M -561.150206 1069.834856 " transform="matrix(0.00952981,0,0,0.00889375,13,1.1375)"/>
<path style="fill-rule:nonzero;fill:rgb(100%,100%,100%);fill-opacity:1;stroke-width:8;stroke-linecap:butt;stroke-linejoin:miter;stroke:rgb(0%,0%,0%);stroke-opacity:1;stroke-miterlimit:4;" d="M -650.098048 1162.069571 C -650.098048 1242.006325 -600.910301 1307.009838 -548.85327 1327.213633 C -518.930724 1338.193956 -518.930724 1335.119466 -523.029703 1310.962755 C -536.966231 1220.924104 -605.829076 1187.983134 -630.832847 1158.995081 C -655.016822 1130.885453 -650.098048 1154.163739 -650.098048 1162.069571 Z M -650.098048 1162.069571 " transform="matrix(0.00952981,0,0,0.00889375,13,1.1375)"/>
<path style="fill-rule:nonzero;fill:rgb(100%,100%,100%);fill-opacity:1;stroke-width:8;stroke-linecap:butt;stroke-linejoin:miter;stroke:rgb(0%,0%,0%);stroke-opacity:1;stroke-miterlimit:4;" d="M -464.004407 1400.12298 C -552.132453 1320.186226 -504.994196 1263.966971 -509.093175 1212.139845 C -511.142664 1184.030218 -500.075421 1191.057625 -489.827974 1201.159522 C -434.081862 1256.061138 -430.802678 1354.005622 -443.099615 1392.217147 C -448.01839 1408.907238 -455.806449 1407.150387 -464.004407 1400.12298 Z M -464.004407 1400.12298 " transform="matrix(0.00952981,0,0,0.00889375,13,1.1375)"/>
<path style="fill-rule:nonzero;fill:rgb(100%,100%,100%);fill-opacity:1;stroke-width:8;stroke-linecap:butt;stroke-linejoin:miter;stroke:rgb(0%,0%,0%);stroke-opacity:1;stroke-miterlimit:4;" d="M -582.054998 1347.856641 C -552.952249 1436.13844 -475.891446 1490.16163 -411.12758 1492.796908 C -373.007076 1494.992973 -373.826872 1491.918482 -386.943605 1466.004919 C -436.131351 1372.013352 -523.029703 1361.033029 -561.970002 1336.876318 C -598.041016 1314.915671 -584.924284 1339.072382 -582.054998 1347.856641 Z M -582.054998 1347.856641 " transform="matrix(0.00952981,0,0,0.00889375,13,1.1375)"/>
<path style="fill-rule:nonzero;fill:rgb(100%,100%,100%);fill-opacity:1;stroke-width:8;stroke-linecap:butt;stroke-linejoin:miter;stroke:rgb(0%,0%,0%);stroke-opacity:1;stroke-miterlimit:4;" d="M -343.084531 1513.000703 C -457.036143 1455.903022 -434.081862 1361.033029 -454.986654 1336.876318 C -470.152876 1320.186226 -452.117369 1321.943078 -443.099615 1328.092059 C -375.876362 1367.18201 -322.179739 1429.111033 -320.950045 1494.992973 C -320.950045 1520.02811 -322.999534 1523.1026 -343.084531 1513.000703 Z M -343.084531 1513.000703 " transform="matrix(0.00952981,0,0,0.00889375,13,1.1375)"/>
<path style="fill-rule:nonzero;fill:rgb(100%,100%,100%);fill-opacity:1;stroke-width:8;stroke-linecap:butt;stroke-linejoin:miter;stroke:rgb(0%,0%,0%);stroke-opacity:1;stroke-miterlimit:4;" d="M -186.913436 1618.851019 C -331.197492 1642.129304 -398.010848 1533.204498 -439.820432 1523.1026 C -461.954918 1517.832045 -445.9689 1509.047786 -434.901657 1508.169361 C -338.985552 1497.189037 -216.835982 1541.988756 -179.945172 1592.05903 C -165.188848 1611.823612 -165.188848 1616.215741 -186.913436 1618.851019 Z M -186.913436 1618.851019 " transform="matrix(0.00952981,0,0,0.00889375,13,1.1375)"/>
<path style="fill-rule:nonzero;fill:rgb(100%,100%,100%);fill-opacity:1;stroke-width:8;stroke-linecap:butt;stroke-linejoin:miter;stroke:rgb(0%,0%,0%);stroke-opacity:1;stroke-miterlimit:4;" d="M -332.837084 1447.997189 C -304.144232 1542.867182 -195.93119 1621.047084 -115.181306 1627.196065 C -77.060803 1629.831342 -77.060803 1625.878426 -90.997331 1600.843289 C -156.171095 1483.134223 -268.893013 1462.930429 -309.063006 1433.063949 C -343.084531 1407.150387 -336.116267 1439.21293 -332.837084 1447.997189 Z M -332.837084 1447.997189 " transform="matrix(0.00952981,0,0,0.00889375,13,1.1375)"/>
<path style=" stroke:none;fill-rule:nonzero;fill:rgb(0%,38.431373%,20%);fill-opacity:1;" d="M 14.609375 5.371094 C 14.429688 5.246094 13.765625 5.316406 13.636719 5.234375 C 13.878906 5.421875 14.410156 5.289062 14.613281 5.371094 Z M 16.222656 5.6875 C 16.078125 5.449219 15.230469 5.289062 15.105469 5.074219 C 15.328125 5.484375 15.980469 5.429688 16.222656 5.6875 Z M 16.101562 5.960938 C 15.78125 5.679688 15.050781 5.796875 14.828125 5.628906 C 15.34375 6.0625 15.628906 5.726562 16.09375 5.960938 Z M 14.257812 4.699219 C 14.457031 4.800781 14.707031 4.894531 14.828125 5.128906 C 14.6875 4.949219 14.429688 4.878906 14.21875 4.730469 C 14.230469 4.730469 14.246094 4.710938 14.257812 4.699219 Z M 17.386719 6.535156 C 17.261719 6.265625 16.820312 5.976562 16.78125 5.875 C 16.902344 6.222656 17.269531 6.304688 17.382812 6.535156 Z M 17.496094 7.003906 C 17.117188 6.445312 16.519531 6.503906 16.277344 6.296875 C 16.460938 6.5 17.148438 6.628906 17.496094 7.003906 Z M 18.382812 7.867188 C 18.410156 7.269531 17.9375 7.050781 17.917969 6.710938 C 17.90625 7.113281 18.40625 7.652344 18.382812 7.867188 Z M 18.148438 8.1875 C 18.050781 7.671875 17.402344 7.636719 17.289062 7.332031 C 17.289062 7.617188 18.050781 7.914062 18.144531 8.1875 Z M 18.679688 7.894531 C 19.023438 8.289062 18.785156 8.882812 18.925781 9.316406 C 18.757812 8.996094 18.84375 8.195312 18.683594 7.894531 Z M 18.117188 9.5625 C 18.628906 10.082031 18.421875 10.660156 18.628906 10.910156 C 18.375 10.5625 18.410156 9.886719 18.117188 9.566406 Z M 19.1875 9.636719 C 18.746094 10.089844 19.011719 10.773438 18.78125 11.097656 C 19.039062 10.820312 19.003906 9.972656 19.1875 9.636719 Z M 18.628906 9.636719 C 18.574219 9.113281 18.050781 8.835938 18.003906 8.554688 C 17.945312 8.835938 18.507812 9.285156 18.628906 9.636719 Z M 18.367188 10.886719 C 18.449219 11.253906 18.136719 12.039062 18.234375 12.277344 C 18.019531 11.863281 18.410156 11.070312 18.367188 10.890625 Z M 19.039062 11.726562 C 18.832031 12.375 18.410156 12.332031 18.28125 12.726562 C 18.375 12.351562 18.929688 12.011719 19.039062 11.726562 Z M 17.679688 12.027344 C 17.402344 12.464844 17.632812 12.960938 17.402344 13.273438 C 17.730469 12.960938 17.554688 12.382812 17.679688 12.027344 Z M 18.347656 13.222656 C 18.011719 13.800781 17.328125 13.746094 17.050781 14.164062 C 17.328125 13.636719 18.175781 13.550781 18.351562 13.222656 Z M 17.136719 13.148438 C 16.546875 13.535156 16.730469 13.933594 16.277344 14.359375 C 16.839844 13.933594 16.792969 13.460938 17.136719 13.148438 Z M 16.859375 14.699219 C 16.289062 14.679688 15.46875 15.375 14.972656 15.320312 C 15.46875 15.421875 16.382812 14.796875 16.859375 14.695312 Z M 15.9375 14.074219 C 15.898438 14.617188 14.410156 14.964844 14.25 15.328125 C 14.429688 14.851562 15.738281 14.496094 15.9375 14.078125 Z M 12.574219 4.074219 C 12.382812 3.921875 12.152344 3.796875 12.085938 3.644531 C 12.132812 3.839844 12.320312 3.980469 12.511719 4.117188 C 12.53125 4.109375 12.554688 4.078125 12.574219 4.070312 Z M 12.25 4.230469 C 11.953125 4.097656 11.609375 4.105469 11.457031 3.921875 C 11.554688 4.105469 11.875 4.175781 12.152344 4.273438 C 12.179688 4.257812 12.21875 4.238281 12.25 4.234375 Z M 11.390625 5.367188 C 11.570312 5.242188 12.234375 5.316406 12.363281 5.234375 C 12.121094 5.421875 11.589844 5.289062 11.386719 5.367188 Z M 9.777344 5.6875 C 9.921875 5.449219 10.769531 5.289062 10.894531 5.074219 C 10.675781 5.484375 10.019531 5.429688 9.777344 5.6875 Z M 9.898438 5.960938 C 10.21875 5.679688 10.953125 5.796875 11.171875 5.628906 C 10.65625 6.0625 10.371094 5.726562 9.90625 5.960938 Z M 11.171875 5.128906 C 11.351562 4.769531 11.863281 4.730469 12 4.511719 C 11.796875 4.832031 11.363281 4.886719 11.171875 5.128906 Z M 12.632812 4.816406 C 13.164062 4.585938 13.679688 4.785156 13.925781 4.675781 C 13.621094 4.824219 12.894531 4.753906 12.636719 4.816406 Z M 8.617188 6.535156 C 8.738281 6.265625 9.175781 5.972656 9.21875 5.875 C 9.097656 6.222656 8.730469 6.304688 8.617188 6.535156 Z M 8.503906 7.003906 C 8.882812 6.445312 9.480469 6.503906 9.722656 6.296875 C 9.542969 6.5 8.855469 6.628906 8.503906 7.003906 Z M 7.617188 7.867188 C 7.589844 7.269531 8.0625 7.050781 8.085938 6.710938 C 8.09375 7.113281 7.597656 7.652344 7.617188 7.867188 Z M 7.851562 8.1875 C 7.949219 7.671875 8.597656 7.636719 8.710938 7.332031 C 8.710938 7.617188 7.949219 7.914062 7.855469 8.1875 Z M 7.320312 7.894531 C 6.980469 8.289062 7.214844 8.878906 7.078125 9.316406 C 7.242188 8.996094 7.15625 8.195312 7.320312 7.894531 Z M 7.882812 9.5625 C 7.371094 10.082031 7.578125 10.660156 7.371094 10.910156 C 7.625 10.5625 7.589844 9.886719 7.882812 9.566406 Z M 6.816406 9.636719 C 7.253906 10.089844 6.988281 10.773438 7.214844 11.097656 C 6.960938 10.820312 6.996094 9.972656 6.816406 9.636719 Z M 7.371094 9.636719 C 7.425781 9.113281 7.949219 8.835938 7.996094 8.554688 C 8.054688 8.835938 7.492188 9.285156 7.371094 9.636719 Z M 7.632812 10.886719 C 7.550781 11.253906 7.863281 12.039062 7.765625 12.277344 C 7.980469 11.863281 7.589844 11.070312 7.632812 10.890625 Z M 6.960938 11.726562 C 7.171875 12.375 7.589844 12.332031 7.722656 12.726562 C 7.625 12.351562 7.074219 12.011719 6.960938 11.726562 Z M 8.320312 12.027344 C 8.597656 12.464844 8.367188 12.960938 8.597656 13.273438 C 8.269531 12.960938 8.445312 12.382812 8.320312 12.027344 Z M 7.652344 13.222656 C 7.988281 13.800781 8.671875 13.746094 8.953125 14.164062 C 8.671875 13.636719 7.824219 13.550781 7.652344 13.222656 Z M 8.863281 13.148438 C 9.453125 13.535156 9.273438 13.933594 9.722656 14.359375 C 9.160156 13.933594 9.210938 13.460938 8.863281 13.148438 Z M 9.140625 14.695312 C 9.710938 14.679688 10.535156 15.375 11.027344 15.320312 C 10.535156 15.417969 9.617188 14.796875 9.140625 14.695312 Z M 10.066406 14.070312 C 10.101562 14.617188 11.589844 14.960938 11.753906 15.328125 C 11.570312 14.851562 10.265625 14.496094 10.0625 14.074219 Z M 12.226562 4.832031 C 12.34375 4.355469 12.917969 4.265625 12.992188 3.980469 C 12.964844 4.285156 12.285156 4.621094 12.226562 4.832031 Z M 13.914062 3.640625 C 13.832031 4.007812 13.210938 4.210938 13.125 4.488281 C 13.15625 4.113281 13.792969 3.902344 13.914062 3.640625 Z M 13.425781 4.507812 C 13.722656 4.0625 14.332031 4.175781 14.542969 3.921875 C 14.390625 4.222656 13.636719 4.230469 13.425781 4.503906 Z M 13.425781 4.507812 "/>
<path style="fill:none;stroke-width:1.8;stroke-linecap:round;stroke-linejoin:round;stroke:rgb(96.862745%,77.647059%,3.137255%);stroke-opacity:1;stroke-miterlimit:4;" d="M 429.807692 240 C 429.807692 295.5 380.480769 340.40625 319.519231 340.40625 C 258.557692 340.40625 209.230769 295.5 209.230769 240.09375 C 209.230769 184.59375 258.557692 139.6875 319.519231 139.6875 C 380.480769 139.6875 429.807692 184.6875 429.807692 240.09375 Z M 429.807692 240 " transform="matrix(0.040625,0,0,0.0416667,0,0)"/>
<path style=" stroke:none;fill-rule:nonzero;fill:rgb(96.862745%,77.647059%,3.137255%);fill-opacity:1;" d="M 12.105469 14.1875 L 12.085938 14.238281 C 12.074219 14.269531 12.042969 14.292969 12 14.289062 L 11.675781 14.207031 L 11.78125 13.886719 L 12.105469 13.957031 C 12.144531 13.964844 12.164062 14 12.148438 14.035156 L 12.140625 14.074219 M 11.367188 13.875 L 11.382812 13.824219 C 11.390625 13.789062 11.429688 13.769531 11.464844 13.785156 C 11.570312 13.824219 11.675781 13.859375 11.78125 13.886719 L 11.679688 14.207031 C 11.566406 14.179688 11.460938 14.148438 11.359375 14.113281 C 11.328125 14.097656 11.316406 14.027344 11.332031 13.992188 "/>
<path style=" stroke:none;fill-rule:nonzero;fill:rgb(0%,38.431373%,20%);fill-opacity:1;" d="M 12.042969 14.160156 L 12.027344 14.195312 C 12.019531 14.222656 11.988281 14.234375 11.960938 14.230469 L 11.691406 14.164062 L 11.765625 13.929688 C 11.863281 13.957031 11.964844 13.980469 12.03125 13.992188 C 12.066406 14 12.082031 14.023438 12.074219 14.050781 L 12.066406 14.078125 M 11.421875 13.914062 L 11.4375 13.871094 C 11.445312 13.851562 11.472656 13.835938 11.5 13.847656 C 11.578125 13.871094 11.664062 13.902344 11.765625 13.929688 L 11.691406 14.164062 C 11.601562 14.140625 11.515625 14.113281 11.429688 14.082031 C 11.398438 14.066406 11.386719 14.019531 11.398438 13.996094 "/>
<path style=" stroke:none;fill-rule:nonzero;fill:rgb(96.862745%,77.647059%,3.137255%);fill-opacity:1;" d="M 10.875 13.785156 L 10.847656 13.824219 C 10.828125 13.859375 10.785156 13.867188 10.75 13.855469 C 10.667969 13.804688 10.558594 13.75 10.464844 13.691406 L 10.660156 13.410156 C 10.753906 13.464844 10.851562 13.515625 10.949219 13.5625 C 10.980469 13.578125 10.988281 13.617188 10.96875 13.644531 L 10.945312 13.6875 M 10.265625 13.289062 L 10.292969 13.246094 C 10.316406 13.210938 10.355469 13.203125 10.386719 13.226562 C 10.460938 13.277344 10.554688 13.347656 10.660156 13.410156 L 10.460938 13.691406 C 10.367188 13.636719 10.277344 13.578125 10.1875 13.515625 C 10.160156 13.488281 10.171875 13.421875 10.1875 13.390625 "/>
<path style=" stroke:none;fill-rule:nonzero;fill:rgb(0%,38.431373%,20%);fill-opacity:1;" d="M 10.828125 13.738281 L 10.800781 13.769531 C 10.789062 13.792969 10.757812 13.796875 10.726562 13.785156 C 10.660156 13.742188 10.570312 13.699219 10.488281 13.648438 L 10.632812 13.445312 C 10.710938 13.5 10.804688 13.546875 10.871094 13.574219 C 10.894531 13.589844 10.90625 13.617188 10.890625 13.640625 L 10.871094 13.667969 M 10.3125 13.335938 L 10.332031 13.304688 C 10.347656 13.285156 10.375 13.277344 10.402344 13.296875 C 10.476562 13.347656 10.554688 13.398438 10.632812 13.445312 L 10.488281 13.648438 C 10.40625 13.601562 10.328125 13.554688 10.261719 13.503906 C 10.238281 13.484375 10.242188 13.433594 10.257812 13.414062 "/>
<path style=" stroke:none;fill-rule:nonzero;fill:rgb(96.862745%,77.647059%,3.137255%);fill-opacity:1;" d="M 9.824219 13.070312 L 9.78125 13.105469 C 9.75 13.128906 9.710938 13.125 9.675781 13.105469 C 9.617188 13.039062 9.527344 12.957031 9.453125 12.875 L 9.726562 12.652344 C 9.808594 12.742188 9.894531 12.820312 9.957031 12.878906 C 9.984375 12.902344 9.980469 12.941406 9.953125 12.960938 L 9.917969 12.996094 M 9.386719 12.4375 L 9.429688 12.398438 C 9.457031 12.378906 9.5 12.378906 9.523438 12.410156 C 9.585938 12.496094 9.652344 12.578125 9.726562 12.660156 L 9.453125 12.875 C 9.375 12.792969 9.304688 12.710938 9.242188 12.632812 C 9.222656 12.601562 9.253906 12.542969 9.28125 12.515625 "/>
<path style=" stroke:none;fill-rule:nonzero;fill:rgb(0%,38.431373%,20%);fill-opacity:1;" d="M 9.785156 13.015625 L 9.753906 13.042969 C 9.734375 13.058594 9.707031 13.054688 9.675781 13.035156 L 9.488281 12.839844 L 9.6875 12.683594 C 9.75 12.75 9.8125 12.8125 9.878906 12.871094 C 9.898438 12.894531 9.898438 12.925781 9.878906 12.941406 L 9.851562 12.960938 M 9.414062 12.496094 L 9.441406 12.472656 C 9.464844 12.453125 9.492188 12.457031 9.515625 12.480469 C 9.5625 12.542969 9.621094 12.613281 9.6875 12.6875 L 9.488281 12.839844 L 9.316406 12.640625 C 9.300781 12.617188 9.320312 12.570312 9.339844 12.554688 "/>
<path style=" stroke:none;fill-rule:nonzero;fill:rgb(96.862745%,77.647059%,3.137255%);fill-opacity:1;" d="M 9.027344 12.113281 L 8.972656 12.132812 C 8.941406 12.148438 8.902344 12.132812 8.875 12.109375 L 8.730469 11.824219 L 9.058594 11.6875 C 9.113281 11.792969 9.167969 11.894531 9.214844 11.960938 C 9.230469 11.996094 9.214844 12.027344 9.179688 12.046875 L 9.140625 12.0625 M 8.800781 11.386719 L 8.847656 11.363281 C 8.882812 11.351562 8.921875 11.363281 8.9375 11.394531 C 8.972656 11.496094 9.011719 11.59375 9.058594 11.6875 L 8.734375 11.824219 C 8.683594 11.734375 8.640625 11.640625 8.601562 11.542969 C 8.59375 11.5 8.640625 11.453125 8.675781 11.4375 "/>
<path style=" stroke:none;fill-rule:nonzero;fill:rgb(0%,38.431373%,20%);fill-opacity:1;" d="M 9.007812 12.050781 L 8.96875 12.0625 C 8.945312 12.074219 8.917969 12.0625 8.898438 12.039062 L 8.773438 11.804688 L 9.011719 11.703125 C 9.050781 11.78125 9.09375 11.859375 9.140625 11.933594 C 9.152344 11.960938 9.144531 11.992188 9.121094 12 L 9.085938 12.011719 M 8.804688 11.449219 L 8.84375 11.4375 C 8.867188 11.425781 8.898438 11.4375 8.910156 11.460938 C 8.941406 11.542969 8.972656 11.625 9.011719 11.703125 L 8.777344 11.804688 C 8.738281 11.726562 8.703125 11.648438 8.667969 11.566406 C 8.660156 11.539062 8.695312 11.5 8.71875 11.488281 "/>
<path style=" stroke:none;fill-rule:nonzero;fill:rgb(96.862745%,77.647059%,3.137255%);fill-opacity:1;" d="M 8.550781 10.980469 L 8.496094 10.988281 C 8.460938 10.992188 8.425781 10.96875 8.414062 10.9375 L 8.351562 10.628906 L 8.710938 10.582031 C 8.726562 10.6875 8.75 10.789062 8.777344 10.886719 C 8.78125 10.925781 8.757812 10.953125 8.722656 10.957031 L 8.671875 10.964844 M 8.550781 10.230469 L 8.609375 10.222656 C 8.644531 10.210938 8.675781 10.238281 8.679688 10.269531 C 8.6875 10.363281 8.695312 10.464844 8.710938 10.582031 L 8.351562 10.628906 C 8.332031 10.527344 8.320312 10.425781 8.3125 10.320312 C 8.320312 10.285156 8.382812 10.25 8.417969 10.246094 "/>
<path style=" stroke:none;fill-rule:nonzero;fill:rgb(0%,38.431373%,20%);fill-opacity:1;" d="M 8.550781 10.917969 L 8.511719 10.921875 C 8.488281 10.925781 8.460938 10.910156 8.449219 10.878906 L 8.40625 10.621094 L 8.660156 10.585938 C 8.675781 10.671875 8.691406 10.757812 8.714844 10.839844 C 8.71875 10.871094 8.703125 10.894531 8.671875 10.898438 L 8.640625 10.902344 M 8.539062 10.292969 L 8.578125 10.285156 C 8.609375 10.285156 8.632812 10.300781 8.632812 10.328125 C 8.640625 10.402344 8.644531 10.496094 8.660156 10.585938 L 8.40625 10.621094 C 8.390625 10.539062 8.375 10.445312 8.371094 10.367188 C 8.371094 10.335938 8.417969 10.308594 8.445312 10.304688 "/>
<path style=" stroke:none;fill-rule:nonzero;fill:rgb(96.862745%,77.647059%,3.137255%);fill-opacity:1;" d="M 8.4375 9.769531 L 8.382812 9.761719 C 8.339844 9.761719 8.320312 9.730469 8.316406 9.691406 C 8.328125 9.609375 8.335938 9.492188 8.355469 9.382812 L 8.710938 9.433594 C 8.695312 9.535156 8.683594 9.636719 8.679688 9.742188 C 8.675781 9.777344 8.644531 9.800781 8.609375 9.796875 L 8.558594 9.789062 M 8.664062 9.050781 L 8.722656 9.054688 C 8.757812 9.0625 8.78125 9.089844 8.777344 9.125 C 8.75 9.226562 8.726562 9.328125 8.710938 9.433594 L 8.351562 9.382812 C 8.367188 9.277344 8.386719 9.175781 8.410156 9.074219 C 8.425781 9.042969 8.496094 9.023438 8.53125 9.035156 "/>
<path style=" stroke:none;fill-rule:nonzero;fill:rgb(0%,38.431373%,20%);fill-opacity:1;" d="M 8.457031 9.707031 L 8.417969 9.707031 C 8.390625 9.699219 8.375 9.675781 8.371094 9.644531 L 8.40625 9.390625 L 8.660156 9.425781 C 8.648438 9.511719 8.640625 9.597656 8.636719 9.683594 C 8.632812 9.710938 8.609375 9.730469 8.578125 9.726562 L 8.546875 9.726562 M 8.632812 9.105469 L 8.671875 9.113281 C 8.703125 9.113281 8.71875 9.140625 8.714844 9.171875 C 8.699219 9.242188 8.671875 9.328125 8.660156 9.421875 L 8.40625 9.390625 L 8.449219 9.132812 C 8.460938 9.105469 8.511719 9.089844 8.539062 9.089844 "/>
<path style=" stroke:none;fill-rule:nonzero;fill:rgb(96.862745%,77.647059%,3.137255%);fill-opacity:1;" d="M 8.695312 8.582031 L 8.640625 8.558594 C 8.605469 8.546875 8.59375 8.511719 8.601562 8.476562 C 8.640625 8.390625 8.679688 8.285156 8.730469 8.1875 L 9.054688 8.328125 C 9.007812 8.425781 8.96875 8.519531 8.933594 8.621094 C 8.921875 8.648438 8.882812 8.664062 8.851562 8.648438 L 8.804688 8.628906 M 9.128906 7.945312 L 9.179688 7.972656 C 9.214844 7.984375 9.230469 8.019531 9.214844 8.054688 C 9.15625 8.144531 9.105469 8.234375 9.058594 8.328125 L 8.730469 8.1875 C 8.773438 8.089844 8.824219 7.992188 8.875 7.910156 C 8.902344 7.878906 8.972656 7.878906 9.007812 7.894531 "/>
<path style=" stroke:none;fill-rule:nonzero;fill:rgb(0%,38.431373%,20%);fill-opacity:1;" d="M 8.734375 8.527344 L 8.695312 8.511719 C 8.667969 8.503906 8.660156 8.472656 8.667969 8.445312 L 8.773438 8.207031 L 9.011719 8.308594 C 8.972656 8.386719 8.9375 8.46875 8.910156 8.550781 C 8.898438 8.574219 8.867188 8.585938 8.84375 8.574219 L 8.8125 8.5625 M 9.082031 7.996094 L 9.121094 8.011719 C 9.144531 8.019531 9.152344 8.050781 9.140625 8.078125 C 9.09375 8.152344 9.050781 8.230469 9.011719 8.308594 L 8.777344 8.207031 C 8.820312 8.125 8.855469 8.042969 8.902344 7.976562 C 8.917969 7.949219 8.96875 7.945312 8.996094 7.957031 "/>
<path style=" stroke:none;fill-rule:nonzero;fill:rgb(96.862745%,77.647059%,3.137255%);fill-opacity:1;" d="M 9.300781 7.507812 L 9.253906 7.472656 C 9.226562 7.449219 9.222656 7.414062 9.238281 7.378906 C 9.304688 7.3125 9.375 7.214844 9.449219 7.136719 L 9.726562 7.359375 C 9.652344 7.4375 9.585938 7.519531 9.523438 7.609375 C 9.496094 7.636719 9.453125 7.636719 9.425781 7.609375 L 9.386719 7.582031 M 9.910156 7.011719 L 9.949219 7.046875 C 9.980469 7.070312 9.980469 7.109375 9.957031 7.136719 C 9.875 7.207031 9.800781 7.28125 9.726562 7.359375 L 9.449219 7.136719 C 9.527344 7.054688 9.601562 6.976562 9.675781 6.910156 C 9.710938 6.886719 9.777344 6.910156 9.808594 6.929688 "/>
<path style=" stroke:none;fill-rule:nonzero;fill:rgb(0%,38.431373%,20%);fill-opacity:1;" d="M 9.351562 7.464844 L 9.320312 7.441406 C 9.300781 7.425781 9.300781 7.394531 9.316406 7.371094 L 9.488281 7.167969 L 9.683594 7.324219 C 9.625 7.390625 9.566406 7.460938 9.515625 7.535156 C 9.492188 7.554688 9.464844 7.558594 9.441406 7.542969 L 9.417969 7.519531 M 9.847656 7.046875 L 9.878906 7.070312 C 9.898438 7.085938 9.898438 7.117188 9.878906 7.136719 C 9.8125 7.199219 9.746094 7.261719 9.683594 7.328125 L 9.488281 7.171875 C 9.554688 7.101562 9.613281 7.035156 9.675781 6.980469 C 9.707031 6.957031 9.757812 6.972656 9.773438 6.988281 "/>
<path style=" stroke:none;fill-rule:nonzero;fill:rgb(96.862745%,77.647059%,3.137255%);fill-opacity:1;" d="M 10.195312 6.632812 L 10.167969 6.589844 C 10.148438 6.558594 10.15625 6.523438 10.183594 6.496094 C 10.265625 6.449219 10.363281 6.378906 10.460938 6.320312 L 10.65625 6.605469 C 10.5625 6.660156 10.472656 6.722656 10.382812 6.789062 C 10.355469 6.804688 10.316406 6.796875 10.292969 6.769531 L 10.265625 6.730469 M 10.9375 6.320312 L 10.964844 6.363281 C 10.988281 6.394531 10.976562 6.433594 10.949219 6.449219 C 10.859375 6.492188 10.761719 6.542969 10.65625 6.605469 L 10.460938 6.320312 C 10.554688 6.261719 10.652344 6.203125 10.746094 6.160156 C 10.785156 6.148438 10.84375 6.1875 10.863281 6.214844 "/>
<path style=" stroke:none;fill-rule:nonzero;fill:rgb(0%,38.431373%,20%);fill-opacity:1;" d="M 10.265625 6.609375 L 10.242188 6.578125 C 10.230469 6.554688 10.238281 6.527344 10.257812 6.507812 C 10.328125 6.464844 10.40625 6.410156 10.488281 6.363281 L 10.628906 6.5625 C 10.550781 6.609375 10.476562 6.664062 10.402344 6.714844 C 10.375 6.734375 10.347656 6.730469 10.332031 6.703125 L 10.3125 6.679688 M 10.867188 6.335938 L 10.890625 6.371094 C 10.902344 6.390625 10.894531 6.421875 10.871094 6.433594 C 10.789062 6.472656 10.707031 6.515625 10.628906 6.5625 L 10.488281 6.363281 L 10.726562 6.226562 C 10.757812 6.214844 10.800781 6.242188 10.820312 6.261719 "/>
<path style=" stroke:none;fill-rule:nonzero;fill:rgb(96.862745%,77.647059%,3.137255%);fill-opacity:1;" d="M 11.335938 6.039062 L 11.3125 5.984375 C 11.304688 5.949219 11.320312 5.917969 11.355469 5.898438 L 11.675781 5.804688 L 11.777344 6.125 C 11.667969 6.15625 11.5625 6.191406 11.460938 6.234375 C 11.421875 6.242188 11.390625 6.226562 11.378906 6.191406 L 11.367188 6.148438 M 12.128906 5.925781 L 12.148438 5.980469 C 12.160156 6.011719 12.140625 6.046875 12.105469 6.054688 C 11.996094 6.074219 11.886719 6.097656 11.777344 6.125 L 11.675781 5.804688 C 11.78125 5.769531 11.890625 5.742188 12 5.722656 C 12.039062 5.722656 12.082031 5.773438 12.09375 5.804688 "/>
<path style=" stroke:none;fill-rule:nonzero;fill:rgb(0%,38.431373%,20%);fill-opacity:1;" d="M 11.398438 6.027344 L 11.386719 5.988281 C 11.382812 5.964844 11.398438 5.945312 11.429688 5.929688 L 11.691406 5.847656 L 11.765625 6.078125 C 11.675781 6.101562 11.585938 6.132812 11.5 6.164062 C 11.472656 6.175781 11.445312 6.164062 11.4375 6.136719 L 11.421875 6.109375 M 12.0625 5.925781 L 12.074219 5.960938 C 12.082031 5.988281 12.066406 6.011719 12.03125 6.019531 C 11.957031 6.035156 11.863281 6.054688 11.765625 6.078125 L 11.691406 5.851562 C 11.78125 5.824219 11.871094 5.800781 11.960938 5.785156 C 11.992188 5.777344 12.023438 5.816406 12.03125 5.839844 "/>
<path style=" stroke:none;fill-rule:nonzero;fill:rgb(96.862745%,77.647059%,3.137255%);fill-opacity:1;" d="M 12.59375 5.757812 L 12.59375 5.703125 C 12.59375 5.671875 12.625 5.640625 12.664062 5.632812 L 12.996094 5.625 L 12.996094 5.960938 C 12.882812 5.960938 12.773438 5.96875 12.664062 5.980469 C 12.621094 5.980469 12.597656 5.953125 12.597656 5.917969 L 12.597656 5.875 M 13.398438 5.867188 L 13.398438 5.917969 C 13.398438 5.953125 13.371094 5.980469 13.328125 5.980469 C 13.21875 5.96875 13.105469 5.960938 12.996094 5.960938 L 12.996094 5.625 C 13.109375 5.625 13.226562 5.625 13.328125 5.632812 C 13.371094 5.640625 13.398438 5.703125 13.398438 5.742188 "/>
<path style=" stroke:none;fill-rule:nonzero;fill:rgb(0%,38.431373%,20%);fill-opacity:1;" d="M 12.667969 5.769531 L 12.667969 5.730469 C 12.667969 5.703125 12.6875 5.6875 12.71875 5.679688 L 13 5.675781 L 13 5.917969 C 12.894531 5.917969 12.792969 5.921875 12.71875 5.929688 C 12.691406 5.929688 12.667969 5.910156 12.667969 5.886719 L 12.667969 5.851562 M 13.328125 5.847656 L 13.328125 5.882812 C 13.328125 5.910156 13.308594 5.925781 13.277344 5.925781 C 13.183594 5.917969 13.09375 5.914062 13 5.917969 L 13 5.675781 L 13.277344 5.679688 C 13.308594 5.6875 13.328125 5.730469 13.328125 5.757812 "/>
<path style=" stroke:none;fill-rule:nonzero;fill:rgb(96.862745%,77.647059%,3.137255%);fill-opacity:1;" d="M 13.8125 5.816406 L 13.824219 5.765625 C 13.835938 5.734375 13.871094 5.714844 13.910156 5.714844 L 14.234375 5.792969 L 14.132812 6.117188 C 14.027344 6.089844 13.917969 6.066406 13.808594 6.050781 C 13.773438 6.039062 13.75 6.007812 13.765625 5.972656 L 13.777344 5.929688 M 14.546875 6.125 L 14.53125 6.175781 C 14.523438 6.210938 14.488281 6.230469 14.449219 6.214844 C 14.347656 6.179688 14.242188 6.144531 14.132812 6.117188 L 14.234375 5.792969 C 14.34375 5.820312 14.453125 5.851562 14.550781 5.886719 C 14.585938 5.902344 14.59375 5.972656 14.585938 6.003906 "/>
<path style=" stroke:none;fill-rule:nonzero;fill:rgb(0%,38.431373%,20%);fill-opacity:1;" d="M 13.875 5.847656 L 13.882812 5.808594 C 13.890625 5.785156 13.921875 5.769531 13.949219 5.773438 L 14.21875 5.835938 L 14.148438 6.070312 C 14.058594 6.046875 13.96875 6.027344 13.878906 6.011719 C 13.847656 6.003906 13.832031 5.980469 13.835938 5.953125 L 13.847656 5.925781 M 14.492188 6.089844 L 14.480469 6.125 C 14.46875 6.148438 14.441406 6.167969 14.414062 6.152344 C 14.328125 6.121094 14.238281 6.09375 14.148438 6.070312 L 14.21875 5.835938 C 14.3125 5.863281 14.40625 5.886719 14.488281 5.917969 C 14.515625 5.929688 14.527344 5.980469 14.515625 6 "/>
<path style=" stroke:none;fill-rule:nonzero;fill:rgb(96.862745%,77.647059%,3.137255%);fill-opacity:1;" d="M 15.039062 6.210938 L 15.066406 6.171875 C 15.089844 6.136719 15.128906 6.128906 15.164062 6.140625 C 15.246094 6.1875 15.355469 6.242188 15.453125 6.300781 L 15.261719 6.585938 C 15.167969 6.53125 15.066406 6.480469 14.964844 6.4375 C 14.9375 6.417969 14.925781 6.378906 14.945312 6.351562 L 14.972656 6.308594 M 15.65625 6.703125 L 15.625 6.746094 C 15.605469 6.773438 15.566406 6.785156 15.535156 6.765625 C 15.445312 6.703125 15.355469 6.644531 15.261719 6.585938 L 15.453125 6.300781 C 15.550781 6.359375 15.648438 6.414062 15.730469 6.476562 C 15.757812 6.5 15.746094 6.566406 15.726562 6.601562 "/>
<path style=" stroke:none;fill-rule:nonzero;fill:rgb(0%,38.431373%,20%);fill-opacity:1;" d="M 15.09375 6.257812 L 15.113281 6.226562 C 15.128906 6.203125 15.15625 6.199219 15.191406 6.207031 C 15.253906 6.25 15.34375 6.292969 15.425781 6.339844 L 15.289062 6.550781 C 15.207031 6.503906 15.125 6.460938 15.042969 6.421875 C 15.019531 6.402344 15.011719 6.378906 15.027344 6.355469 L 15.042969 6.324219 M 15.613281 6.652344 L 15.585938 6.6875 C 15.570312 6.707031 15.546875 6.710938 15.515625 6.695312 C 15.441406 6.644531 15.363281 6.59375 15.289062 6.546875 L 15.425781 6.339844 L 15.65625 6.484375 C 15.679688 6.507812 15.675781 6.554688 15.660156 6.578125 "/>
<path style=" stroke:none;fill-rule:nonzero;fill:rgb(96.862745%,77.647059%,3.137255%);fill-opacity:1;" d="M 16.101562 6.917969 L 16.140625 6.878906 C 16.167969 6.859375 16.210938 6.859375 16.242188 6.878906 L 16.46875 7.109375 L 16.203125 7.328125 C 16.125 7.25 16.046875 7.175781 15.964844 7.109375 C 15.941406 7.082031 15.941406 7.046875 15.96875 7.023438 L 16.007812 6.992188 M 16.542969 7.546875 L 16.5 7.582031 C 16.488281 7.59375 16.46875 7.601562 16.453125 7.601562 C 16.433594 7.597656 16.417969 7.589844 16.40625 7.574219 C 16.339844 7.488281 16.273438 7.40625 16.203125 7.328125 L 16.472656 7.109375 C 16.546875 7.191406 16.625 7.265625 16.683594 7.347656 C 16.699219 7.378906 16.671875 7.441406 16.644531 7.460938 "/>
<path style=" stroke:none;fill-rule:nonzero;fill:rgb(0%,38.431373%,20%);fill-opacity:1;" d="M 16.136719 6.972656 L 16.164062 6.945312 C 16.183594 6.929688 16.21875 6.933594 16.246094 6.949219 C 16.292969 7.007812 16.367188 7.074219 16.433594 7.140625 L 16.238281 7.300781 C 16.175781 7.234375 16.109375 7.171875 16.042969 7.113281 C 16.023438 7.089844 16.023438 7.0625 16.042969 7.046875 L 16.070312 7.023438 M 16.519531 7.484375 L 16.484375 7.511719 C 16.464844 7.527344 16.433594 7.523438 16.414062 7.503906 C 16.355469 7.433594 16.300781 7.367188 16.238281 7.300781 L 16.433594 7.140625 L 16.613281 7.335938 C 16.628906 7.367188 16.609375 7.414062 16.585938 7.429688 "/>
<path style=" stroke:none;fill-rule:nonzero;fill:rgb(96.862745%,77.647059%,3.137255%);fill-opacity:1;" d="M 16.902344 7.871094 L 16.957031 7.847656 C 16.988281 7.832031 17.03125 7.847656 17.054688 7.875 L 17.203125 8.148438 L 16.875 8.296875 C 16.824219 8.1875 16.761719 8.085938 16.714844 8.019531 C 16.699219 7.988281 16.714844 7.953125 16.75 7.9375 L 16.789062 7.917969 M 17.140625 8.589844 L 17.085938 8.613281 C 17.054688 8.628906 17.015625 8.613281 17 8.582031 C 16.964844 8.484375 16.921875 8.386719 16.875 8.292969 L 17.199219 8.148438 C 17.25 8.242188 17.292969 8.339844 17.335938 8.4375 C 17.34375 8.476562 17.292969 8.519531 17.261719 8.539062 "/>
<path style=" stroke:none;fill-rule:nonzero;fill:rgb(0%,38.431373%,20%);fill-opacity:1;" d="M 16.925781 7.933594 L 16.960938 7.917969 C 16.984375 7.902344 17.015625 7.917969 17.035156 7.941406 L 17.15625 8.171875 L 16.921875 8.273438 C 16.878906 8.195312 16.835938 8.121094 16.789062 8.046875 C 16.777344 8.019531 16.785156 7.992188 16.8125 7.980469 L 16.84375 7.964844 M 17.128906 8.527344 L 17.09375 8.542969 C 17.066406 8.554688 17.042969 8.542969 17.027344 8.515625 C 16.996094 8.445312 16.964844 8.363281 16.921875 8.273438 L 17.15625 8.171875 L 17.269531 8.410156 C 17.273438 8.441406 17.242188 8.480469 17.21875 8.492188 "/>
<path style=" stroke:none;fill-rule:nonzero;fill:rgb(96.862745%,77.647059%,3.137255%);fill-opacity:1;" d="M 17.386719 8.996094 L 17.445312 8.988281 C 17.480469 8.984375 17.515625 9.003906 17.53125 9.039062 L 17.589844 9.339844 L 17.234375 9.394531 C 17.214844 9.292969 17.191406 9.191406 17.164062 9.089844 C 17.160156 9.054688 17.179688 9.023438 17.222656 9.019531 L 17.265625 9.011719 M 17.394531 9.75 L 17.339844 9.757812 C 17.300781 9.761719 17.269531 9.742188 17.265625 9.703125 C 17.261719 9.601562 17.25 9.496094 17.234375 9.394531 L 17.589844 9.339844 C 17.605469 9.449219 17.625 9.554688 17.632812 9.652344 C 17.632812 9.691406 17.566406 9.726562 17.53125 9.730469 "/>
<path style=" stroke:none;fill-rule:nonzero;fill:rgb(0%,38.431373%,20%);fill-opacity:1;" d="M 17.386719 9.058594 L 17.429688 9.054688 C 17.457031 9.050781 17.480469 9.070312 17.488281 9.097656 C 17.5 9.171875 17.527344 9.261719 17.539062 9.351562 L 17.28125 9.390625 C 17.269531 9.304688 17.25 9.21875 17.230469 9.132812 C 17.226562 9.105469 17.238281 9.078125 17.269531 9.078125 L 17.300781 9.070312 M 17.40625 9.683594 L 17.367188 9.691406 C 17.339844 9.691406 17.3125 9.675781 17.308594 9.648438 C 17.304688 9.5625 17.296875 9.472656 17.28125 9.386719 L 17.539062 9.351562 C 17.554688 9.441406 17.570312 9.527344 17.574219 9.609375 C 17.574219 9.636719 17.53125 9.667969 17.5 9.671875 "/>
<path style=" stroke:none;fill-rule:nonzero;fill:rgb(96.862745%,77.647059%,3.137255%);fill-opacity:1;" d="M 17.511719 10.203125 L 17.570312 10.207031 C 17.609375 10.210938 17.636719 10.246094 17.640625 10.285156 L 17.601562 10.589844 L 17.246094 10.546875 C 17.261719 10.433594 17.269531 10.316406 17.269531 10.234375 C 17.273438 10.199219 17.308594 10.175781 17.347656 10.183594 L 17.390625 10.1875 M 17.292969 10.929688 L 17.238281 10.921875 C 17.195312 10.921875 17.175781 10.886719 17.179688 10.851562 C 17.203125 10.765625 17.230469 10.660156 17.246094 10.546875 L 17.601562 10.585938 C 17.585938 10.695312 17.570312 10.804688 17.550781 10.894531 C 17.535156 10.933594 17.464844 10.949219 17.429688 10.945312 "/>
<path style=" stroke:none;fill-rule:nonzero;fill:rgb(0%,38.431373%,20%);fill-opacity:1;" d="M 17.492188 10.265625 L 17.535156 10.265625 C 17.5625 10.273438 17.578125 10.300781 17.582031 10.328125 L 17.550781 10.585938 L 17.292969 10.554688 L 17.320312 10.296875 C 17.320312 10.265625 17.34375 10.246094 17.371094 10.25 L 17.40625 10.25 M 17.328125 10.871094 L 17.285156 10.867188 C 17.257812 10.863281 17.242188 10.835938 17.246094 10.808594 C 17.261719 10.734375 17.28125 10.648438 17.292969 10.554688 L 17.550781 10.585938 C 17.539062 10.671875 17.527344 10.753906 17.507812 10.835938 C 17.496094 10.871094 17.445312 10.886719 17.421875 10.878906 "/>
<path style=" stroke:none;fill-rule:nonzero;fill:rgb(96.862745%,77.647059%,3.137255%);fill-opacity:1;" d="M 17.269531 11.394531 L 17.324219 11.417969 C 17.359375 11.433594 17.371094 11.464844 17.363281 11.5 L 17.242188 11.792969 L 16.90625 11.652344 C 16.953125 11.558594 16.996094 11.460938 17.03125 11.363281 C 17.042969 11.328125 17.078125 11.316406 17.109375 11.328125 L 17.160156 11.347656 M 16.839844 12.035156 L 16.789062 12.011719 C 16.753906 11.996094 16.738281 11.960938 16.753906 11.929688 C 16.800781 11.855469 16.859375 11.757812 16.90625 11.652344 L 17.238281 11.792969 C 17.195312 11.886719 17.148438 11.980469 17.09375 12.070312 C 17.070312 12.101562 16.996094 12.101562 16.960938 12.082031 "/>
<path style=" stroke:none;fill-rule:nonzero;fill:rgb(0%,38.431373%,20%);fill-opacity:1;" d="M 17.234375 11.449219 L 17.273438 11.460938 C 17.292969 11.476562 17.300781 11.503906 17.296875 11.535156 L 17.191406 11.769531 L 16.953125 11.675781 C 16.992188 11.597656 17.023438 11.515625 17.054688 11.433594 C 17.066406 11.402344 17.09375 11.390625 17.121094 11.398438 L 17.152344 11.417969 M 16.886719 11.984375 L 16.847656 11.972656 C 16.824219 11.957031 16.816406 11.929688 16.832031 11.902344 C 16.875 11.828125 16.914062 11.753906 16.953125 11.675781 L 17.191406 11.769531 C 17.15625 11.851562 17.113281 11.929688 17.070312 12.003906 C 17.050781 12.027344 16.996094 12.035156 16.972656 12.019531 "/>
<path style=" stroke:none;fill-rule:nonzero;fill:rgb(96.862745%,77.647059%,3.137255%);fill-opacity:1;" d="M 16.675781 12.476562 L 16.722656 12.507812 C 16.75 12.535156 16.753906 12.570312 16.738281 12.605469 C 16.671875 12.671875 16.597656 12.761719 16.527344 12.847656 L 16.25 12.625 C 16.332031 12.542969 16.40625 12.445312 16.453125 12.375 C 16.476562 12.351562 16.519531 12.351562 16.546875 12.371094 L 16.582031 12.398438 M 16.070312 12.976562 L 16.03125 12.941406 C 16 12.917969 15.992188 12.878906 16.019531 12.855469 C 16.085938 12.792969 16.167969 12.714844 16.25 12.625 L 16.527344 12.847656 C 16.457031 12.925781 16.378906 13.003906 16.304688 13.078125 C 16.269531 13.101562 16.203125 13.078125 16.171875 13.054688 "/>
<path style=" stroke:none;fill-rule:nonzero;fill:rgb(0%,38.431373%,20%);fill-opacity:1;" d="M 16.625 12.515625 L 16.65625 12.542969 C 16.675781 12.558594 16.675781 12.582031 16.660156 12.613281 L 16.484375 12.8125 L 16.285156 12.660156 C 16.355469 12.582031 16.417969 12.507812 16.457031 12.449219 C 16.476562 12.429688 16.511719 12.425781 16.53125 12.441406 L 16.554688 12.460938 M 16.132812 12.941406 L 16.101562 12.917969 C 16.078125 12.898438 16.078125 12.871094 16.101562 12.847656 C 16.164062 12.785156 16.226562 12.722656 16.285156 12.660156 L 16.488281 12.8125 C 16.425781 12.882812 16.363281 12.949219 16.296875 13.007812 C 16.273438 13.023438 16.226562 13.011719 16.203125 12.996094 "/>
<path style=" stroke:none;fill-rule:nonzero;fill:rgb(96.862745%,77.647059%,3.137255%);fill-opacity:1;" d="M 15.78125 13.355469 L 15.8125 13.394531 C 15.832031 13.429688 15.824219 13.464844 15.800781 13.492188 L 15.527344 13.671875 L 15.324219 13.386719 C 15.417969 13.332031 15.507812 13.269531 15.597656 13.203125 C 15.625 13.1875 15.664062 13.191406 15.683594 13.222656 L 15.714844 13.257812 M 15.046875 13.675781 L 15.019531 13.632812 C 14.996094 13.601562 15.003906 13.5625 15.035156 13.542969 C 15.136719 13.496094 15.234375 13.445312 15.328125 13.386719 L 15.523438 13.671875 L 15.238281 13.835938 C 15.203125 13.847656 15.144531 13.808594 15.121094 13.777344 "/>
<path style=" stroke:none;fill-rule:nonzero;fill:rgb(0%,38.431373%,20%);fill-opacity:1;" d="M 15.71875 13.378906 L 15.738281 13.414062 C 15.753906 13.433594 15.746094 13.460938 15.722656 13.484375 L 15.496094 13.628906 L 15.351562 13.429688 L 15.578125 13.273438 C 15.605469 13.257812 15.636719 13.261719 15.648438 13.285156 L 15.667969 13.3125 M 15.117188 13.660156 L 15.09375 13.625 C 15.078125 13.605469 15.089844 13.574219 15.113281 13.558594 C 15.195312 13.519531 15.277344 13.476562 15.355469 13.429688 L 15.496094 13.628906 C 15.414062 13.679688 15.332031 13.730469 15.257812 13.765625 C 15.230469 13.777344 15.179688 13.753906 15.167969 13.734375 "/>
<path style=" stroke:none;fill-rule:nonzero;fill:rgb(96.862745%,77.647059%,3.137255%);fill-opacity:1;" d="M 14.65625 13.960938 L 14.671875 14.011719 C 14.6875 14.046875 14.664062 14.082031 14.632812 14.097656 L 14.316406 14.199219 L 14.210938 13.875 C 14.316406 13.84375 14.421875 13.808594 14.523438 13.765625 C 14.558594 13.757812 14.597656 13.773438 14.605469 13.808594 L 14.621094 13.851562 M 13.855469 14.078125 L 13.839844 14.023438 C 13.828125 13.992188 13.847656 13.957031 13.882812 13.949219 C 13.980469 13.933594 14.089844 13.910156 14.207031 13.875 L 14.316406 14.199219 C 14.207031 14.230469 14.097656 14.261719 13.992188 14.285156 C 13.949219 14.285156 13.910156 14.230469 13.898438 14.199219 "/>
<path style=" stroke:none;fill-rule:nonzero;fill:rgb(0%,38.431373%,20%);fill-opacity:1;" d="M 14.585938 13.972656 L 14.601562 14.007812 C 14.609375 14.035156 14.589844 14.058594 14.558594 14.070312 L 14.300781 14.152344 L 14.222656 13.921875 C 14.3125 13.898438 14.398438 13.867188 14.484375 13.835938 C 14.515625 13.824219 14.542969 13.835938 14.550781 13.863281 L 14.558594 13.890625 M 13.925781 14.078125 L 13.914062 14.042969 C 13.90625 14.015625 13.921875 13.992188 13.953125 13.984375 C 14.042969 13.964844 14.132812 13.945312 14.222656 13.921875 L 14.300781 14.152344 C 14.210938 14.179688 14.121094 14.203125 14.03125 14.222656 C 14 14.222656 13.960938 14.1875 13.949219 14.164062 "/>
<path style=" stroke:none;fill-rule:nonzero;fill:rgb(96.862745%,77.647059%,3.137255%);fill-opacity:1;" d="M 13.394531 14.25 L 13.394531 14.304688 C 13.394531 14.339844 13.367188 14.367188 13.328125 14.375 C 13.230469 14.375 13.109375 14.386719 12.996094 14.386719 L 12.992188 14.050781 C 13.101562 14.046875 13.214844 14.042969 13.324219 14.027344 C 13.367188 14.027344 13.390625 14.054688 13.390625 14.089844 L 13.390625 14.132812 M 12.59375 14.148438 L 12.59375 14.101562 C 12.59375 14.0625 12.617188 14.039062 12.660156 14.039062 C 12.753906 14.042969 12.867188 14.050781 12.992188 14.050781 L 12.992188 14.386719 L 12.660156 14.382812 C 12.621094 14.375 12.59375 14.3125 12.59375 14.273438 "/>
<path style=" stroke:none;fill-rule:nonzero;fill:rgb(0%,38.431373%,20%);fill-opacity:1;" d="M 13.324219 14.242188 L 13.324219 14.277344 C 13.324219 14.304688 13.300781 14.320312 13.269531 14.328125 L 12.992188 14.335938 L 12.992188 14.101562 C 13.09375 14.101562 13.195312 14.085938 13.269531 14.082031 C 13.300781 14.082031 13.320312 14.101562 13.324219 14.125 L 13.324219 14.160156 M 12.660156 14.171875 L 12.660156 14.128906 C 12.660156 14.109375 12.679688 14.085938 12.710938 14.085938 C 12.792969 14.089844 12.886719 14.101562 12.992188 14.097656 L 12.992188 14.335938 L 12.714844 14.335938 C 12.683594 14.328125 12.660156 14.285156 12.660156 14.257812 "/>
</g>
</svg>
