<?xml version="1.0" encoding="UTF-8"?>
<svg xmlns="http://www.w3.org/2000/svg" xmlns:xlink="http://www.w3.org/1999/xlink" width="28px" height="21px" viewBox="0 0 28 21" version="1.1">
<g id="surface1">
<rect x="0" y="0" width="28" height="21" style="fill:rgb(13.333333%,61.960784%,27.058824%);fill-opacity:1;stroke:none;"/>
<path style=" stroke:none;fill-rule:evenodd;fill:rgb(97.254902%,89.803922%,3.529412%);fill-opacity:1;" d="M 14.0625 19.074219 L 27.25 10.511719 L 13.984375 1.925781 L 0.75 10.53125 Z M 14.0625 19.074219 "/>
<path style=" stroke:none;fill-rule:evenodd;fill:rgb(16.862745%,28.627451%,63.921569%);fill-opacity:1;" d="M 19.808594 10.5 C 19.808594 13.574219 17.3125 16.070312 14.226562 16.070312 C 11.148438 16.066406 8.660156 13.566406 8.664062 10.488281 C 8.667969 7.410156 11.164062 4.917969 14.242188 4.921875 C 17.320312 4.925781 19.8125 7.421875 19.808594 10.5 Z M 19.808594 10.5 "/>
<path style=" stroke:none;fill-rule:evenodd;fill:rgb(100%,100%,93.72549%);fill-opacity:1;" d="M 12.394531 13.839844 L 12.21875 13.738281 L 12.042969 13.824219 L 12.082031 13.628906 L 11.945312 13.480469 L 12.140625 13.457031 L 12.238281 13.28125 L 12.320312 13.464844 L 12.511719 13.5 L 12.367188 13.632812 M 16.128906 14.78125 L 15.960938 14.683594 L 15.785156 14.769531 L 15.820312 14.574219 L 15.683594 14.429688 L 15.882812 14.40625 L 15.972656 14.226562 L 16.0625 14.410156 L 16.253906 14.445312 L 16.105469 14.582031 M 14.519531 13.269531 L 14.371094 13.183594 L 14.21875 13.261719 L 14.253906 13.089844 L 14.132812 12.964844 L 14.304688 12.945312 L 14.386719 12.789062 L 14.453125 12.949219 L 14.625 12.980469 L 14.496094 13.097656 M 18.300781 12.726562 L 18.152344 12.640625 L 18 12.71875 L 18.035156 12.546875 L 17.914062 12.425781 L 18.085938 12.40625 L 18.164062 12.253906 L 18.234375 12.410156 L 18.402344 12.441406 L 18.273438 12.554688 M 14.453125 11.59375 L 14.28125 11.496094 L 14.105469 11.585938 L 14.140625 11.382812 L 14.003906 11.238281 L 14.203125 11.21875 L 14.292969 11.039062 L 14.378906 11.222656 L 14.574219 11.257812 L 14.425781 11.398438 M 9.847656 9.867188 L 9.671875 9.769531 L 9.5 9.855469 L 9.542969 9.65625 L 9.398438 9.511719 L 9.597656 9.488281 L 9.6875 9.308594 L 9.773438 9.492188 L 9.964844 9.527344 L 9.820312 9.664062 M 10.402344 12.167969 L 10.230469 12.066406 L 10.054688 12.152344 L 10.09375 11.957031 L 9.953125 11.8125 L 10.148438 11.785156 L 10.242188 11.609375 L 10.328125 11.796875 L 10.523438 11.828125 L 10.378906 11.964844 M 16.152344 9.019531 L 15.996094 8.933594 L 15.835938 9.011719 L 15.871094 8.835938 L 15.75 8.707031 L 15.925781 8.683594 L 16.007812 8.527344 L 16.082031 8.691406 L 16.257812 8.722656 L 16.125 8.84375 M 15.832031 10.515625 L 15.714844 10.449219 L 15.589844 10.507812 L 15.613281 10.367188 L 15.519531 10.269531 L 15.65625 10.25 L 15.722656 10.128906 L 15.78125 10.257812 L 15.910156 10.28125 L 15.816406 10.378906 M 9.59375 12.582031 L 9.476562 12.515625 L 9.359375 12.574219 L 9.382812 12.441406 L 9.292969 12.347656 L 9.421875 12.328125 L 9.484375 12.210938 L 9.542969 12.332031 L 9.671875 12.359375 L 9.574219 12.445312 M 18.332031 13.117188 L 18.234375 13.066406 L 18.140625 13.113281 L 18.160156 13.011719 L 18.085938 12.941406 L 18.191406 12.929688 L 18.242188 12.839844 L 18.289062 12.929688 L 18.398438 12.949219 L 18.3125 13.015625 "/>
<path style=" stroke:none;fill-rule:evenodd;fill:rgb(100%,100%,93.72549%);fill-opacity:1;" d="M 9.59375 12.582031 L 9.476562 12.515625 L 9.359375 12.574219 L 9.382812 12.441406 L 9.292969 12.347656 L 9.421875 12.328125 L 9.484375 12.210938 L 9.542969 12.332031 L 9.671875 12.359375 L 9.574219 12.445312 "/>
<path style=" stroke:none;fill-rule:evenodd;fill:rgb(100%,100%,93.72549%);fill-opacity:1;" d="M 9.59375 12.582031 L 9.476562 12.515625 L 9.359375 12.574219 L 9.382812 12.441406 L 9.292969 12.347656 L 9.421875 12.328125 L 9.484375 12.210938 L 9.542969 12.332031 L 9.671875 12.359375 L 9.574219 12.445312 M 11.421875 12.578125 L 11.308594 12.515625 L 11.191406 12.574219 L 11.21875 12.441406 L 11.125 12.347656 L 11.257812 12.328125 L 11.316406 12.210938 L 11.375 12.332031 L 11.507812 12.355469 L 11.40625 12.445312 M 11.195312 13.191406 L 11.082031 13.125 L 10.964844 13.1875 L 10.988281 13.054688 L 10.898438 12.953125 L 11.03125 12.9375 L 11.089844 12.820312 L 11.148438 12.941406 L 11.277344 12.96875 L 11.179688 13.054688 M 15 12.082031 L 14.886719 12.015625 L 14.765625 12.074219 L 14.792969 11.945312 L 14.703125 11.84375 L 14.835938 11.828125 L 14.898438 11.710938 L 14.949219 11.835938 L 15.082031 11.855469 L 14.984375 11.949219 M 13.886719 12.078125 L 13.769531 12.015625 L 13.648438 12.074219 L 13.675781 11.945312 L 13.589844 11.84375 L 13.71875 11.828125 L 13.78125 11.707031 L 13.832031 11.835938 L 13.964844 11.855469 L 13.867188 11.949219 M 10.859375 11.695312 L 10.785156 11.652344 L 10.710938 11.6875 L 10.726562 11.601562 L 10.671875 11.542969 L 10.753906 11.53125 L 10.789062 11.457031 L 10.824219 11.535156 L 10.90625 11.550781 L 10.84375 11.605469 M 18.1875 13.59375 L 18.074219 13.527344 L 17.953125 13.589844 L 17.980469 13.457031 L 17.890625 13.355469 L 18.019531 13.339844 L 18.082031 13.222656 L 18.140625 13.34375 L 18.269531 13.371094 L 18.167969 13.457031 M 17.257812 13.71875 L 17.164062 13.660156 L 17.0625 13.710938 L 17.085938 13.597656 L 17.011719 13.519531 L 17.121094 13.503906 L 17.171875 13.40625 L 17.214844 13.511719 L 17.324219 13.527344 L 17.242188 13.605469 M 17.695312 13.707031 L 17.609375 13.65625 L 17.515625 13.699219 L 17.535156 13.597656 L 17.464844 13.523438 L 17.566406 13.511719 L 17.613281 13.421875 L 17.65625 13.511719 L 17.757812 13.53125 L 17.683594 13.601562 M 18.957031 12.605469 L 18.871094 12.5625 L 18.78125 12.605469 L 18.804688 12.503906 L 18.734375 12.429688 L 18.835938 12.417969 L 18.878906 12.328125 L 18.921875 12.421875 L 19.015625 12.4375 L 18.945312 12.507812 M 17.246094 14.335938 L 17.136719 14.277344 L 17.019531 14.328125 L 17.046875 14.207031 L 16.957031 14.117188 L 17.089844 14.105469 L 17.144531 13.996094 L 17.199219 14.109375 L 17.328125 14.132812 L 17.230469 14.214844 M 17.253906 14.835938 L 17.148438 14.773438 L 17.046875 14.832031 L 17.070312 14.707031 L 16.988281 14.621094 L 17.105469 14.605469 L 17.160156 14.496094 L 17.207031 14.609375 L 17.324219 14.628906 L 17.238281 14.71875 M 16.40625 13.707031 L 16.324219 13.65625 L 16.234375 13.699219 L 16.253906 13.601562 L 16.1875 13.527344 L 16.285156 13.519531 L 16.328125 13.429688 L 16.371094 13.519531 L 16.46875 13.535156 L 16.398438 13.605469 M 15.617188 13.707031 L 15.53125 13.65625 L 15.445312 13.699219 L 15.464844 13.601562 L 15.394531 13.527344 L 15.496094 13.519531 L 15.539062 13.429688 L 15.582031 13.519531 L 15.675781 13.535156 L 15.605469 13.605469 M 14.277344 12.53125 L 14.1875 12.480469 L 14.101562 12.527344 L 14.121094 12.425781 L 14.050781 12.355469 L 14.148438 12.34375 L 14.191406 12.253906 L 14.234375 12.34375 L 14.332031 12.363281 L 14.261719 12.429688 M 14.425781 14.921875 L 14.355469 14.882812 L 14.277344 14.921875 L 14.292969 14.835938 L 14.234375 14.773438 L 14.320312 14.765625 L 14.359375 14.691406 L 14.394531 14.769531 L 14.476562 14.78125 L 14.414062 14.839844 M 12.394531 11.050781 L 12.21875 10.949219 L 12.042969 11.039062 L 12.082031 10.839844 L 11.945312 10.695312 L 12.140625 10.671875 L 12.238281 10.496094 L 12.320312 10.679688 L 12.511719 10.714844 L 12.367188 10.851562 "/>
<path style=" stroke:none;fill-rule:evenodd;fill:rgb(100%,100%,100%);fill-opacity:1;" d="M 19.441406 12.503906 C 19.550781 12.222656 19.636719 11.933594 19.695312 11.636719 C 16.730469 9.035156 13.425781 7.699219 9.253906 7.976562 C 9.101562 8.269531 8.976562 8.574219 8.882812 8.890625 C 13.824219 8.417969 17.457031 10.605469 19.441406 12.503906 Z M 19.441406 12.503906 "/>
<path style=" stroke:none;fill-rule:nonzero;fill:rgb(18.823529%,61.960784%,22.745098%);fill-opacity:1;" d="M 18.113281 11.042969 L 18.214844 11.097656 C 18.199219 11.128906 18.195312 11.164062 18.199219 11.195312 C 18.210938 11.226562 18.230469 11.253906 18.261719 11.269531 C 18.292969 11.292969 18.324219 11.304688 18.347656 11.300781 C 18.375 11.300781 18.390625 11.289062 18.40625 11.269531 C 18.414062 11.257812 18.417969 11.246094 18.414062 11.230469 C 18.410156 11.214844 18.402344 11.199219 18.390625 11.1875 C 18.382812 11.171875 18.363281 11.144531 18.328125 11.109375 C 18.289062 11.070312 18.265625 11.027344 18.25 10.976562 C 18.226562 10.898438 18.261719 10.816406 18.335938 10.785156 C 18.367188 10.769531 18.402344 10.769531 18.4375 10.777344 C 18.476562 10.785156 18.515625 10.804688 18.550781 10.828125 C 18.609375 10.871094 18.652344 10.914062 18.664062 10.96875 C 18.675781 11.019531 18.667969 11.070312 18.636719 11.113281 L 18.53125 11.046875 C 18.546875 11.019531 18.550781 10.996094 18.542969 10.972656 C 18.535156 10.949219 18.519531 10.929688 18.488281 10.910156 C 18.464844 10.894531 18.4375 10.882812 18.410156 10.878906 C 18.394531 10.878906 18.378906 10.886719 18.371094 10.902344 C 18.363281 10.914062 18.363281 10.929688 18.367188 10.945312 C 18.371094 10.964844 18.390625 11 18.4375 11.042969 C 18.480469 11.085938 18.507812 11.125 18.523438 11.152344 C 18.554688 11.210938 18.550781 11.28125 18.511719 11.335938 C 18.488281 11.367188 18.460938 11.386719 18.425781 11.402344 C 18.394531 11.417969 18.359375 11.421875 18.324219 11.414062 C 18.28125 11.40625 18.242188 11.386719 18.199219 11.359375 C 18.132812 11.3125 18.09375 11.265625 18.082031 11.214844 C 18.066406 11.152344 18.078125 11.089844 18.109375 11.039062 Z M 17.605469 10.710938 L 17.714844 10.765625 C 17.699219 10.796875 17.699219 10.832031 17.707031 10.863281 C 17.71875 10.894531 17.738281 10.917969 17.765625 10.933594 C 17.800781 10.953125 17.828125 10.964844 17.855469 10.960938 C 17.878906 10.960938 17.898438 10.945312 17.910156 10.925781 C 17.917969 10.914062 17.921875 10.902344 17.921875 10.890625 C 17.921875 10.875 17.910156 10.859375 17.898438 10.84375 C 17.875 10.820312 17.851562 10.792969 17.828125 10.765625 C 17.78125 10.71875 17.75 10.679688 17.742188 10.644531 C 17.726562 10.597656 17.734375 10.550781 17.757812 10.507812 C 17.773438 10.480469 17.800781 10.460938 17.828125 10.449219 C 17.859375 10.433594 17.890625 10.429688 17.925781 10.433594 C 17.964844 10.441406 18.003906 10.457031 18.039062 10.476562 C 18.105469 10.523438 18.144531 10.566406 18.15625 10.613281 C 18.171875 10.664062 18.164062 10.71875 18.140625 10.761719 L 18.03125 10.703125 C 18.042969 10.671875 18.046875 10.648438 18.039062 10.625 C 18.03125 10.605469 18.011719 10.582031 17.980469 10.566406 C 17.957031 10.546875 17.929688 10.539062 17.898438 10.539062 C 17.882812 10.539062 17.871094 10.546875 17.863281 10.5625 C 17.855469 10.574219 17.855469 10.585938 17.859375 10.605469 C 17.863281 10.621094 17.890625 10.65625 17.933594 10.703125 C 17.976562 10.746094 18.007812 10.78125 18.019531 10.804688 C 18.054688 10.863281 18.054688 10.933594 18.019531 10.988281 C 18 11.019531 17.972656 11.042969 17.941406 11.058594 C 17.910156 11.074219 17.871094 11.078125 17.835938 11.074219 C 17.792969 11.066406 17.75 11.050781 17.710938 11.023438 C 17.652344 10.996094 17.609375 10.945312 17.585938 10.886719 C 17.570312 10.828125 17.578125 10.765625 17.605469 10.710938 Z M 16.984375 10.542969 L 17.304688 10.019531 L 17.6875 10.257812 L 17.636719 10.347656 L 17.355469 10.171875 L 17.285156 10.289062 L 17.546875 10.453125 L 17.492188 10.539062 L 17.230469 10.378906 L 17.140625 10.523438 L 17.433594 10.695312 L 17.382812 10.785156 L 16.988281 10.542969 Z M 16.078125 9.800781 L 16.125 9.710938 L 16.363281 9.832031 L 16.253906 10.050781 C 16.21875 10.058594 16.175781 10.0625 16.121094 10.058594 C 16.070312 10.050781 16.023438 10.039062 15.976562 10.015625 C 15.925781 9.988281 15.878906 9.949219 15.847656 9.902344 C 15.816406 9.855469 15.800781 9.800781 15.800781 9.746094 C 15.804688 9.691406 15.820312 9.636719 15.847656 9.585938 C 15.871094 9.53125 15.910156 9.488281 15.960938 9.453125 C 16.007812 9.421875 16.0625 9.40625 16.117188 9.40625 C 16.160156 9.40625 16.203125 9.417969 16.257812 9.449219 C 16.328125 9.480469 16.371094 9.523438 16.394531 9.574219 C 16.414062 9.621094 16.421875 9.675781 16.40625 9.726562 L 16.289062 9.691406 C 16.296875 9.660156 16.292969 9.628906 16.28125 9.601562 C 16.265625 9.578125 16.246094 9.558594 16.210938 9.542969 C 16.167969 9.519531 16.117188 9.511719 16.074219 9.527344 C 16.03125 9.542969 15.992188 9.582031 15.960938 9.640625 C 15.929688 9.703125 15.917969 9.761719 15.929688 9.808594 C 15.941406 9.855469 15.972656 9.894531 16.015625 9.914062 C 16.039062 9.925781 16.066406 9.9375 16.089844 9.9375 C 16.117188 9.941406 16.144531 9.941406 16.171875 9.9375 L 16.203125 9.867188 Z M 12.132812 8.824219 L 12.21875 8.210938 L 12.402344 8.242188 L 12.453125 8.671875 L 12.621094 8.277344 L 12.804688 8.304688 L 12.71875 8.90625 L 12.601562 8.890625 L 12.675781 8.414062 L 12.480469 8.871094 L 12.363281 8.855469 L 12.316406 8.359375 L 12.246094 8.84375 Z M 11.515625 8.75 L 11.570312 8.136719 L 12.023438 8.179688 L 12.015625 8.285156 L 11.6875 8.253906 L 11.671875 8.386719 L 11.980469 8.417969 L 11.964844 8.523438 L 11.660156 8.492188 L 11.644531 8.65625 L 11.988281 8.6875 L 11.980469 8.792969 Z M 11.515625 8.75 "/>
<path style=" stroke:none;fill-rule:nonzero;fill:rgb(18.823529%,61.960784%,22.745098%);fill-opacity:1;" d="M 9.472656 8.371094 C 9.472656 8.304688 9.484375 8.253906 9.503906 8.210938 C 9.519531 8.179688 9.539062 8.152344 9.5625 8.128906 C 9.585938 8.105469 9.613281 8.089844 9.640625 8.078125 C 9.6875 8.0625 9.730469 8.054688 9.773438 8.054688 C 9.867188 8.054688 9.9375 8.089844 9.992188 8.140625 C 10.046875 8.210938 10.074219 8.296875 10.0625 8.382812 C 10.0625 8.480469 10.03125 8.558594 9.976562 8.613281 C 9.914062 8.667969 9.835938 8.695312 9.757812 8.6875 C 9.675781 8.691406 9.601562 8.65625 9.546875 8.601562 C 9.492188 8.535156 9.464844 8.453125 9.472656 8.371094 Z M 9.472656 8.371094 "/>
<path style=" stroke:none;fill-rule:nonzero;fill:rgb(96.862745%,100%,100%);fill-opacity:1;" d="M 9.597656 8.371094 C 9.597656 8.433594 9.613281 8.488281 9.640625 8.527344 C 9.671875 8.5625 9.710938 8.582031 9.765625 8.582031 C 9.8125 8.585938 9.855469 8.570312 9.886719 8.535156 C 9.917969 8.5 9.929688 8.449219 9.9375 8.375 C 9.9375 8.304688 9.925781 8.25 9.890625 8.214844 C 9.863281 8.179688 9.820312 8.160156 9.773438 8.160156 C 9.726562 8.15625 9.683594 8.175781 9.652344 8.210938 C 9.617188 8.246094 9.601562 8.300781 9.597656 8.371094 Z M 9.597656 8.371094 "/>
<path style=" stroke:none;fill-rule:nonzero;fill:rgb(18.823529%,61.960784%,22.745098%);fill-opacity:1;" d="M 10.195312 8.683594 L 10.203125 8.070312 L 10.464844 8.070312 C 10.53125 8.070312 10.574219 8.082031 10.605469 8.09375 C 10.636719 8.101562 10.65625 8.125 10.675781 8.152344 C 10.691406 8.175781 10.703125 8.210938 10.703125 8.25 C 10.703125 8.292969 10.6875 8.335938 10.65625 8.363281 C 10.625 8.394531 10.582031 8.414062 10.539062 8.417969 L 10.605469 8.46875 C 10.621094 8.488281 10.644531 8.523438 10.671875 8.570312 L 10.746094 8.691406 L 10.597656 8.691406 L 10.507812 8.554688 L 10.449219 8.464844 C 10.4375 8.453125 10.421875 8.445312 10.40625 8.4375 C 10.386719 8.433594 10.367188 8.429688 10.347656 8.429688 L 10.320312 8.429688 L 10.320312 8.683594 Z M 10.195312 8.683594 "/>
<path style=" stroke:none;fill-rule:nonzero;fill:rgb(100%,100%,100%);fill-opacity:1;" d="M 10.324219 8.335938 L 10.414062 8.335938 C 10.472656 8.335938 10.511719 8.335938 10.527344 8.324219 C 10.539062 8.324219 10.550781 8.3125 10.5625 8.304688 C 10.570312 8.296875 10.574219 8.273438 10.574219 8.261719 C 10.574219 8.234375 10.570312 8.214844 10.558594 8.207031 C 10.546875 8.195312 10.53125 8.1875 10.511719 8.179688 L 10.425781 8.179688 L 10.324219 8.175781 Z M 10.324219 8.335938 "/>
<path style=" stroke:none;fill-rule:nonzero;fill:rgb(18.823529%,61.960784%,22.745098%);fill-opacity:1;" d="M 10.894531 8.101562 L 11.121094 8.117188 C 11.167969 8.117188 11.207031 8.121094 11.234375 8.128906 C 11.269531 8.140625 11.300781 8.164062 11.324219 8.191406 C 11.347656 8.21875 11.367188 8.257812 11.375 8.296875 C 11.386719 8.335938 11.390625 8.382812 11.386719 8.4375 C 11.386719 8.484375 11.378906 8.527344 11.367188 8.570312 C 11.347656 8.613281 11.324219 8.648438 11.292969 8.675781 C 11.265625 8.695312 11.238281 8.710938 11.203125 8.71875 C 11.179688 8.726562 11.140625 8.726562 11.09375 8.726562 L 10.863281 8.714844 Z M 10.894531 8.101562 "/>
<path style=" stroke:none;fill-rule:nonzero;fill:rgb(100%,100%,100%);fill-opacity:1;" d="M 11.011719 8.210938 L 10.988281 8.617188 L 11.15625 8.617188 C 11.179688 8.617188 11.195312 8.609375 11.207031 8.597656 C 11.222656 8.582031 11.234375 8.566406 11.242188 8.539062 C 11.253906 8.515625 11.261719 8.472656 11.261719 8.425781 L 11.257812 8.316406 C 11.25 8.292969 11.238281 8.273438 11.222656 8.253906 C 11.207031 8.242188 11.1875 8.230469 11.167969 8.226562 C 11.136719 8.21875 11.101562 8.214844 11.070312 8.210938 Z M 11.011719 8.210938 "/>
<path style=" stroke:none;fill-rule:nonzero;fill:rgb(18.823529%,61.960784%,22.745098%);fill-opacity:1;" d="M 13.894531 9.195312 L 14.039062 8.601562 L 14.230469 8.644531 L 14.371094 8.6875 C 14.402344 8.707031 14.429688 8.734375 14.441406 8.773438 C 14.460938 8.808594 14.460938 8.847656 14.449219 8.894531 C 14.441406 8.929688 14.429688 8.960938 14.40625 8.980469 C 14.375 9.019531 14.328125 9.042969 14.277344 9.042969 C 14.246094 9.042969 14.203125 9.035156 14.144531 9.019531 L 14.070312 9 L 14.015625 9.226562 Z M 13.894531 9.195312 "/>
<path style=" stroke:none;fill-rule:nonzero;fill:rgb(100%,100%,100%);fill-opacity:1;" d="M 14.132812 8.734375 L 14.097656 8.898438 L 14.160156 8.917969 C 14.207031 8.925781 14.242188 8.933594 14.257812 8.929688 C 14.292969 8.925781 14.320312 8.898438 14.328125 8.863281 C 14.328125 8.84375 14.328125 8.824219 14.320312 8.808594 C 14.308594 8.789062 14.292969 8.773438 14.277344 8.765625 L 14.191406 8.746094 L 14.136719 8.734375 Z M 14.132812 8.734375 "/>
<path style=" stroke:none;fill-rule:nonzero;fill:rgb(18.823529%,61.960784%,22.745098%);fill-opacity:1;" d="M 14.464844 9.367188 L 14.667969 8.789062 L 14.910156 8.875 C 14.976562 8.898438 15.015625 8.921875 15.042969 8.9375 C 15.0625 8.960938 15.082031 8.980469 15.085938 9.015625 C 15.089844 9.050781 15.09375 9.082031 15.085938 9.117188 C 15.066406 9.160156 15.042969 9.191406 15.007812 9.214844 C 14.972656 9.230469 14.925781 9.234375 14.875 9.226562 C 14.890625 9.25 14.910156 9.269531 14.917969 9.296875 L 14.953125 9.414062 L 14.980469 9.550781 L 14.84375 9.503906 L 14.800781 9.34375 C 14.792969 9.308594 14.78125 9.273438 14.769531 9.238281 C 14.765625 9.226562 14.753906 9.214844 14.742188 9.203125 C 14.734375 9.191406 14.71875 9.183594 14.6875 9.175781 L 14.664062 9.164062 L 14.578125 9.410156 Z M 14.464844 9.367188 "/>
<path style=" stroke:none;fill-rule:nonzero;fill:rgb(100%,100%,100%);fill-opacity:1;" d="M 14.699219 9.074219 L 14.78125 9.105469 C 14.839844 9.125 14.875 9.136719 14.890625 9.136719 C 14.90625 9.136719 14.917969 9.136719 14.933594 9.121094 C 14.945312 9.113281 14.953125 9.101562 14.957031 9.082031 C 14.96875 9.066406 14.96875 9.046875 14.957031 9.03125 C 14.953125 9.011719 14.9375 9 14.921875 8.992188 L 14.75 8.929688 L 14.695312 9.074219 Z M 14.699219 9.074219 "/>
<path style=" stroke:none;fill-rule:nonzero;fill:rgb(18.823529%,61.960784%,22.745098%);fill-opacity:1;" d="M 15.179688 9.34375 C 15.195312 9.292969 15.222656 9.246094 15.253906 9.203125 C 15.277344 9.179688 15.304688 9.15625 15.335938 9.140625 C 15.363281 9.125 15.390625 9.113281 15.421875 9.109375 C 15.464844 9.109375 15.507812 9.109375 15.558594 9.125 C 15.636719 9.144531 15.703125 9.199219 15.742188 9.269531 C 15.777344 9.339844 15.777344 9.421875 15.75 9.519531 C 15.726562 9.601562 15.675781 9.671875 15.601562 9.71875 C 15.535156 9.757812 15.457031 9.761719 15.375 9.734375 C 15.292969 9.714844 15.226562 9.660156 15.191406 9.589844 C 15.15625 9.511719 15.152344 9.425781 15.179688 9.34375 Z M 15.179688 9.34375 "/>
<path style=" stroke:none;fill-rule:nonzero;fill:rgb(100%,100%,100%);fill-opacity:1;" d="M 15.304688 9.378906 C 15.285156 9.445312 15.28125 9.503906 15.304688 9.546875 C 15.324219 9.589844 15.355469 9.617188 15.40625 9.632812 C 15.449219 9.648438 15.492188 9.640625 15.535156 9.617188 C 15.578125 9.59375 15.605469 9.546875 15.628906 9.476562 C 15.648438 9.410156 15.648438 9.359375 15.628906 9.3125 C 15.609375 9.273438 15.574219 9.242188 15.53125 9.226562 C 15.488281 9.210938 15.441406 9.214844 15.398438 9.238281 C 15.355469 9.265625 15.324219 9.308594 15.304688 9.378906 Z M 15.304688 9.378906 "/>
<path style=" stroke:none;fill-rule:nonzero;fill:rgb(18.823529%,61.960784%,22.745098%);fill-opacity:1;" d="M 16.375 10.199219 L 16.65625 9.65625 L 16.886719 9.773438 C 16.929688 9.792969 16.972656 9.824219 17.003906 9.855469 C 17.027344 9.878906 17.039062 9.90625 17.039062 9.941406 C 17.039062 9.976562 17.039062 10.003906 17.023438 10.035156 C 17.007812 10.074219 16.976562 10.105469 16.9375 10.125 C 16.890625 10.132812 16.847656 10.132812 16.800781 10.113281 C 16.816406 10.140625 16.828125 10.167969 16.835938 10.1875 C 16.84375 10.214844 16.847656 10.253906 16.851562 10.3125 L 16.859375 10.453125 L 16.730469 10.386719 L 16.710938 10.222656 C 16.710938 10.1875 16.707031 10.152344 16.699219 10.113281 C 16.695312 10.097656 16.6875 10.082031 16.675781 10.070312 L 16.625 10.039062 L 16.601562 10.027344 L 16.484375 10.253906 Z M 16.375 10.199219 "/>
<path style=" stroke:none;fill-rule:nonzero;fill:rgb(100%,100%,100%);fill-opacity:1;" d="M 16.648438 9.941406 L 16.730469 9.984375 C 16.78125 10.011719 16.816406 10.027344 16.832031 10.027344 C 16.84375 10.027344 16.859375 10.027344 16.875 10.019531 C 16.886719 10.015625 16.894531 10 16.90625 9.984375 C 16.914062 9.964844 16.917969 9.949219 16.914062 9.929688 C 16.910156 9.914062 16.898438 9.898438 16.882812 9.886719 C 16.859375 9.871094 16.832031 9.855469 16.804688 9.84375 L 16.71875 9.800781 Z M 16.648438 9.941406 "/>
<path style=" stroke:none;fill-rule:nonzero;fill:rgb(18.823529%,61.960784%,22.745098%);fill-opacity:1;" d="M 18.640625 11.316406 C 18.671875 11.273438 18.707031 11.234375 18.75 11.203125 C 18.78125 11.183594 18.8125 11.171875 18.847656 11.164062 C 18.878906 11.160156 18.910156 11.160156 18.945312 11.164062 C 18.988281 11.171875 19.027344 11.191406 19.066406 11.21875 C 19.136719 11.261719 19.183594 11.332031 19.199219 11.410156 C 19.210938 11.484375 19.1875 11.566406 19.136719 11.652344 C 19.09375 11.722656 19.023438 11.773438 18.9375 11.796875 C 18.859375 11.8125 18.777344 11.792969 18.710938 11.746094 C 18.644531 11.703125 18.59375 11.632812 18.582031 11.554688 C 18.566406 11.476562 18.589844 11.398438 18.640625 11.316406 Z M 18.640625 11.316406 "/>
<path style=" stroke:none;fill-rule:nonzero;fill:rgb(100%,100%,100%);fill-opacity:1;" d="M 18.75 11.386719 C 18.707031 11.445312 18.695312 11.496094 18.703125 11.546875 C 18.710938 11.589844 18.734375 11.628906 18.773438 11.65625 C 18.816406 11.6875 18.859375 11.695312 18.90625 11.679688 C 18.949219 11.667969 18.992188 11.636719 19.03125 11.578125 C 19.070312 11.515625 19.089844 11.460938 19.078125 11.417969 C 19.074219 11.375 19.046875 11.335938 19.007812 11.304688 C 18.96875 11.273438 18.921875 11.269531 18.878906 11.28125 C 18.835938 11.292969 18.789062 11.328125 18.746094 11.386719 Z M 18.75 11.386719 "/>
<path style=" stroke:none;fill-rule:nonzero;fill:rgb(18.823529%,61.960784%,22.745098%);fill-opacity:1;" d="M 13.203125 8.945312 L 13.304688 8.519531 L 13.621094 8.59375 L 13.605469 8.664062 L 13.375 8.609375 L 13.351562 8.707031 L 13.566406 8.753906 L 13.550781 8.828125 L 13.335938 8.777344 L 13.308594 8.894531 L 13.550781 8.953125 L 13.53125 9.019531 Z M 13.203125 8.945312 "/>
</g>
</svg>
