<svg width="31" height="28" viewBox="0 0 31 28" fill="none" xmlns="http://www.w3.org/2000/svg">
<path d="M0.120785 0.470315C-0.412028 1.29375 0.847347 1.875 3.31766 1.875H5.54578L7.14422 9.14063C8.69422 16.1156 8.69422 16.4547 7.87079 17.375C6.65985 18.6828 7.2411 20.6688 9.13016 21.4438C10.3895 21.9766 10.4864 22.1219 9.85672 22.7031C8.20985 24.0594 9.5661 27.0625 11.8427 27.0625C13.0052 27.0625 14.4098 25.6094 14.4098 24.3984C14.4098 23.9141 14.0708 23.0906 13.5864 22.6063C12.8598 21.7828 13.0052 21.7344 17.9458 21.7344H23.0802L22.3052 23.1391C21.5302 24.4469 21.5302 24.5922 22.3052 25.8031C23.177 27.1109 24.4848 27.4016 26.0833 26.5781C27.2458 25.9484 27.3911 22.8 26.277 22.4125C25.5989 22.1219 25.6473 22.025 26.3255 21.4922C28.2145 20.1359 26.5677 19.7969 17.752 19.7969C9.66297 19.7969 9.03329 19.7484 9.1786 18.9734C9.32391 18.1984 10.2442 18.0531 18.2364 17.8594L27.1489 17.6172L29.0864 10.8844C30.588 5.45938 30.8302 4.10313 30.2973 3.76407C29.9583 3.52188 24.727 3.32813 18.7208 3.32813H7.77391L7.33797 1.72969C6.8536 0.17969 6.80516 0.17969 3.65672 0.0343779C1.62235 -0.0624971 0.314535 0.0828154 0.120785 0.470315ZM28.4567 5.84688C28.4567 6.18594 27.827 8.65625 27.1005 11.3203L25.6958 16.1641L18.1395 16.3094C13.9255 16.3578 10.5348 16.3094 10.5348 16.1641C10.5348 15.7766 8.59735 7.10625 8.30672 6.08906C8.06454 5.31406 8.74266 5.26563 18.2364 5.26563C26.0833 5.26563 28.4567 5.41094 28.4567 5.84688ZM12.4723 24.3984C12.4723 24.7859 12.1333 25.125 11.7458 25.125C11.3583 25.125 11.0192 24.7859 11.0192 24.3984C11.0192 24.0109 11.3583 23.6719 11.7458 23.6719C12.1333 23.6719 12.4723 24.0109 12.4723 24.3984ZM25.2114 24.3984C25.2598 24.6406 24.9208 24.9313 24.4848 25.0281C23.952 25.125 23.613 24.8828 23.613 24.3984C23.613 23.575 25.0661 23.5266 25.2114 24.3984Z" fill="black"/>
</svg>
