<?xml version="1.0" encoding="UTF-8"?>
<svg xmlns="http://www.w3.org/2000/svg" xmlns:xlink="http://www.w3.org/1999/xlink" width="26px" height="20px" viewBox="0 0 26 20" version="1.1">
<g id="surface1">
<rect x="0" y="0" width="26" height="20" style="fill:rgb(93.333333%,10.980392%,14.509804%);fill-opacity:1;stroke:none;"/>
<path style=" stroke:none;fill-rule:nonzero;fill:rgb(100%,100%,0%);fill-opacity:1;" d="M 10.398438 4.101562 L 3.769531 7.398438 L 6.5 2 L 8.839844 7.398438 L 2.601562 4.101562 Z M 10.398438 4.101562 "/>
<path style=" stroke:none;fill-rule:nonzero;fill:rgb(100%,100%,0%);fill-opacity:1;" d="M 12.011719 1.289062 L 14.375 2.179688 L 11.902344 2.507812 L 13.507812 1.066406 L 13.351562 3.003906 Z M 12.011719 1.289062 "/>
<path style=" stroke:none;fill-rule:nonzero;fill:rgb(100%,100%,0%);fill-opacity:1;" d="M 15.023438 3.054688 L 16.75 4.582031 L 14.308594 4.144531 L 16.511719 3.296875 L 15.390625 5.035156 Z M 15.023438 3.054688 "/>
<path style=" stroke:none;fill-rule:nonzero;fill:rgb(100%,100%,0%);fill-opacity:1;" d="M 15.566406 5.957031 L 16.335938 7.898438 L 14.335938 6.726562 L 16.800781 6.644531 L 14.851562 7.882812 Z M 15.566406 5.957031 "/>
<path style=" stroke:none;fill-rule:nonzero;fill:rgb(100%,100%,0%);fill-opacity:1;" d="M 13.507812 8.03125 L 13.242188 10.046875 L 11.984375 8.375 L 14.296875 9.03125 L 11.882812 9.59375 Z M 13.507812 8.03125 "/>
</g>
</svg>
