<svg width="86" height="86" viewBox="0 0 86 86" fill="none" xmlns="http://www.w3.org/2000/svg">
<g clip-path="url(#clip0_953_282)">
<path d="M29.3334 1.99999C15.3334 6.39999 5.33337 20.5333 5.33337 35.7333C5.33337 44.1333 7.06671 50 9.33337 48.6667C9.86671 48.2667 9.86671 45.7333 9.06671 43.0667C5.33337 29.3333 14.4 11.8667 28.2667 6.13333C31.0667 4.93333 37.0667 3.99999 41.7334 3.99999C48.8 3.99999 51.2 4.66666 57.3334 8.26666C67.4667 14.4 72.4 22.6667 73.0667 34.5333C73.3334 40.4 73.0667 42.6667 72.2667 41.4667C69.7334 37.8667 67.8667 41.2 70 45.4667C72.4 49.8667 72.9334 50.1333 77.0667 47.2C80.1334 45.0667 81.2 42 78.4 43.0667C77.0667 43.4667 76.6667 41.4667 76.5334 35.4667C76.4 31.0667 75.4667 25.2 74.2667 22.5333C71.4667 15.8667 63.3334 7.06666 56.8 3.73333C49.8667 0.26666 37.2 -0.53334 29.3334 1.99999Z" fill="black"/>
<path d="M35.2 11.6C34.4 12.2667 33.0667 14 32.1334 15.7333C30.9334 18 29.7334 18.5333 27.3334 17.8667C20.9334 16.2667 14.8 27.0667 19.3334 32C21.6 34.5333 21.6 34.8 19.6 37.0667C16.5334 40.4 16.8 43.4667 20.1334 48.2667C22.4 51.3333 23.7334 52.1333 27.0667 51.7333C30.2667 51.4667 31.4667 51.8667 31.7334 53.6C32.1334 55.7333 31.0667 56 22.8 56C10.4 56 9.33337 57.2 9.33337 70.5333C9.33337 84.1333 10.5334 85.3333 24.4 85.3333C30 85.3333 34.9334 84.6667 35.3334 84C35.8667 83.2 32.5334 82.6667 26.4 82.6667C21.0667 82.6667 15.8667 82.1333 14.9334 81.4667C13.7334 80.8 13.3334 77.4667 13.6 69.8667L14 59.3333L39.8667 58.9333C57.7334 58.6667 66.2667 59.0667 67.4667 60.1333C68.6667 61.2 69.3334 64.6667 69.3334 70.8C69.3334 81.7333 68.2667 82.6667 55.3334 82.6667C49.7334 82.6667 46.8 83.2 47.3334 84C48.4 85.7333 66.1334 85.7333 69.4667 84C71.7334 82.8 72 81.0667 72 70.9333C72 63.6 71.4667 58.6667 70.4 57.6C69.4667 56.6667 64.8 56 58.9334 56C51.7334 56 49.2 55.6 49.6 54.4C50 53.4667 52.4 52.2667 55.0667 51.8667C60.8 50.9333 60.2667 51.3333 63.2 45.6C65.4667 41.3333 65.3334 40.9333 63.2 38.5333C60.9334 36 60.9334 35.7333 63.2 32C65.0667 28.8 65.2 27.4667 63.8667 25.0667C60.8 19.0667 58.4 17.2 54.5334 18C51.4667 18.6667 50.6667 18.2667 49.0667 15.0667C47.6 12 46.4 11.3333 42 10.9333C39.0667 10.8 36 11.0667 35.2 11.6ZM47.2 18C48.8 20.4 50.5334 21.3333 53.7334 21.3333C60.1334 21.3333 62.4 25.4667 59.2 31.4667C56.9334 35.7333 56.9334 36 59.3334 38.6667C61.7334 41.2 61.7334 41.8667 60 45.0667C58.4 47.7333 56.9334 48.5333 53.3334 48.5333C49.6 48.6667 48.4 49.4667 46.9334 52.2667C44.4 57.7333 38.1334 57.4667 35.2 51.8667C33.4667 48.4 32.5334 47.8667 29.2 48.2667C26.1334 48.8 24.5334 48.1333 22.5334 45.6C20.1334 42.5333 20.1334 42 22 39.2C24.5334 35.3333 24.5334 33.4667 21.8667 30.5333C20 28.4 20 27.8667 22 24.8C23.7334 22.1333 25.4667 21.3333 28.8 21.3333C32.4 21.3333 33.7334 20.6667 34.9334 18C36.1334 15.4667 37.4667 14.6667 40.6667 14.6667C43.8667 14.6667 45.6 15.6 47.2 18Z" fill="black"/>
<path d="M36.6667 25.4667C29.8667 29.3333 28.6667 36.8 34.0001 42C38.0001 46.1333 42.8001 46.2667 47.4667 42.2667C54.0001 36.6667 51.2001 26.6667 42.6667 24.8C40.8001 24.4 38.1334 24.6667 36.6667 25.4667ZM45.8667 30.1333C47.0667 31.2 48.0001 33.0667 48.0001 34.1333C48.0001 41.4667 39.2001 44.1333 35.2001 38C33.2001 34.9333 33.2001 34.4 35.2001 31.3333C37.7334 27.4667 42.6667 26.9333 45.8667 30.1333Z" fill="black"/>
<path d="M35.6 62.2667C34.1334 63.6 34.5334 78.6667 36 78.6667C36.8 78.6667 37.3334 77.7333 37.3334 76.6667C37.3334 74.1333 39.4667 74.1333 40.5334 76.6667C40.9334 77.7333 42.1334 78.6667 43.3334 78.6667C45.8667 78.6667 45.8667 77.4667 43.3334 74.6667C41.4667 72.6667 41.4667 72.2667 43.3334 70.6667C46.1334 68.2667 45.8667 65.8667 42.4 63.4667C39.2 61.2 36.9334 60.8 35.6 62.2667ZM41.3334 67.3333C41.3334 68.4 40.4 69.3333 39.3334 69.3333C38.2667 69.3333 37.3334 68.4 37.3334 67.3333C37.3334 66.2667 38.2667 65.3333 39.3334 65.3333C40.4 65.3333 41.3334 66.2667 41.3334 67.3333Z" fill="black"/>
<path d="M18.6667 64.6667C14.9334 69.2 18.5334 78.6667 24.1334 78.6667C27.8667 78.6667 30.6667 77.2 30.6667 75.2C30.6667 72.9333 29.0667 72.8 27.0667 74.8C26.0001 75.8667 24.8001 75.8667 22.8001 74.8C17.6001 72 20.5334 64.6667 26.5334 65.6C28.0001 65.8667 29.3334 65.3333 29.6001 64.6667C30.2667 62.4 20.6667 62.2667 18.6667 64.6667Z" fill="black"/>
<path d="M50.2668 64.5333C49.8668 65.4667 49.0668 69.0667 48.6668 72.5333C47.6001 79.7333 49.8668 81.2 51.7334 74.2667L52.9334 70L53.8668 74.2667C55.2001 79.8667 58.1334 79.8667 59.4668 74.2667L60.4001 70L61.6001 74.2667C63.3334 80.8 65.7334 79.8667 64.6668 72.9333C64.2668 69.8667 63.4668 66.2667 63.2001 64.9333C62.0001 61.2 58.9334 62.4 57.8668 66.9333L56.9334 71.3333L55.0668 66.9333C53.2001 62.4 51.4668 61.4667 50.2668 64.5333Z" fill="black"/>
<path d="M40 84C40 84.6667 40.6667 85.3333 41.3333 85.3333C42.1333 85.3333 42.6667 84.6667 42.6667 84C42.6667 83.2 42.1333 82.6667 41.3333 82.6667C40.6667 82.6667 40 83.2 40 84Z" fill="black"/>
</g>
<defs>
<clipPath id="clip0_953_282">
<rect width="85.3333" height="85.3333" fill="white"/>
</clipPath>
</defs>
</svg>
