<svg width="86" height="86" viewBox="0 0 86 86" fill="none" xmlns="http://www.w3.org/2000/svg">
<mask id="mask0_495_212" style="mask-type:luminance" maskUnits="userSpaceOnUse" x="0" y="0" width="86" height="86">
<path d="M85.3333 0H0V85.3333H85.3333V0Z" fill="white"/>
</mask>
<g mask="url(#mask0_495_212)">
<path d="M29.3334 1.99993C15.3334 6.39993 5.33337 20.5332 5.33337 35.7332C5.33337 44.1332 7.06671 49.9999 9.33337 48.6666C9.86671 48.2666 9.86671 45.7332 9.06671 43.0666C5.33337 29.3332 14.4 11.8666 28.2667 6.13327C31.0667 4.93327 37.0667 3.99993 41.7334 3.99993C48.8 3.99993 51.2 4.6666 57.3334 8.2666C67.4667 14.3999 72.4 22.6666 73.0667 34.5332C73.3334 40.3999 73.0667 42.6666 72.2667 41.4666C69.7334 37.8666 67.8667 41.1999 70 45.4666C72.4 49.8666 72.9334 50.1332 77.0667 47.1999C80.1334 45.0666 81.2 41.9999 78.4 43.0666C77.0667 43.4666 76.6667 41.4666 76.5334 35.4666C76.4 31.0666 75.4667 25.1999 74.2667 22.5332C71.4667 15.8666 63.3334 7.0666 56.8 3.73327C49.8667 0.266598 37.2 -0.533402 29.3334 1.99993Z" fill="white"/>
<path d="M35.2 11.5998C34.4 12.2665 33.0667 13.9998 32.1334 15.7331C30.9334 17.9998 29.7334 18.5331 27.3334 17.8665C20.9334 16.2665 14.8 27.0665 19.3334 31.9998C21.6 34.5331 21.6 34.7998 19.6 37.0665C16.5334 40.3998 16.8 43.4665 20.1334 48.2665C22.4 51.3331 23.7334 52.1331 27.0667 51.7331C30.2667 51.4665 31.4667 51.8665 31.7334 53.5998C32.1334 55.7331 31.0667 55.9998 22.8 55.9998C10.4 55.9998 9.33337 57.1998 9.33337 70.5331C9.33337 84.1331 10.5334 85.3331 24.4 85.3331C30 85.3331 34.9334 84.6665 35.3334 83.9998C35.8667 83.1998 32.5334 82.6665 26.4 82.6665C21.0667 82.6665 15.8667 82.1331 14.9334 81.4665C13.7334 80.7998 13.3334 77.4665 13.6 69.8665L14 59.3331L39.8667 58.9331C57.7334 58.6665 66.2667 59.0665 67.4667 60.1331C68.6667 61.1998 69.3334 64.6665 69.3334 70.7998C69.3334 81.7331 68.2667 82.6665 55.3334 82.6665C49.7334 82.6665 46.8 83.1998 47.3334 83.9998C48.4 85.7331 66.1334 85.7331 69.4667 83.9998C71.7334 82.7998 72 81.0665 72 70.9331C72 63.5998 71.4667 58.6665 70.4 57.5998C69.4667 56.6665 64.8 55.9998 58.9334 55.9998C51.7334 55.9998 49.2 55.5998 49.6 54.3998C50 53.4665 52.4 52.2665 55.0667 51.8665C60.8 50.9331 60.2667 51.3331 63.2 45.5998C65.4667 41.3331 65.3334 40.9331 63.2 38.5331C60.9334 35.9998 60.9334 35.7331 63.2 31.9998C65.0667 28.7998 65.2 27.4665 63.8667 25.0665C60.8 19.0665 58.4 17.1998 54.5334 17.9998C51.4667 18.6665 50.6667 18.2665 49.0667 15.0665C47.6 11.9998 46.4 11.3331 42 10.9331C39.0667 10.7998 36 11.0665 35.2 11.5998ZM47.2 17.9998C48.8 20.3998 50.5334 21.3331 53.7334 21.3331C60.1334 21.3331 62.4 25.4665 59.2 31.4665C56.9334 35.7331 56.9334 35.9998 59.3334 38.6665C61.7334 41.1998 61.7334 41.8665 60 45.0665C58.4 47.7331 56.9334 48.5331 53.3334 48.5331C49.6 48.6665 48.4 49.4665 46.9334 52.2665C44.4 57.7331 38.1334 57.4665 35.2 51.8665C33.4667 48.3998 32.5334 47.8665 29.2 48.2665C26.1334 48.7998 24.5334 48.1331 22.5334 45.5998C20.1334 42.5331 20.1334 41.9998 22 39.1998C24.5334 35.3331 24.5334 33.4665 21.8667 30.5331C20 28.3998 20 27.8665 22 24.7998C23.7334 22.1331 25.4667 21.3331 28.8 21.3331C32.4 21.3331 33.7334 20.6665 34.9334 17.9998C36.1334 15.4665 37.4667 14.6665 40.6667 14.6665C43.8667 14.6665 45.6 15.5998 47.2 17.9998Z" fill="white"/>
<path d="M36.6667 25.4667C29.8667 29.3333 28.6667 36.8 34.0001 42C38.0001 46.1333 42.8001 46.2667 47.4667 42.2667C54.0001 36.6667 51.2001 26.6667 42.6667 24.8C40.8001 24.4 38.1334 24.6667 36.6667 25.4667ZM45.8667 30.1333C47.0667 31.2 48.0001 33.0667 48.0001 34.1333C48.0001 41.4667 39.2001 44.1333 35.2001 38C33.2001 34.9333 33.2001 34.4 35.2001 31.3333C37.7334 27.4667 42.6667 26.9333 45.8667 30.1333Z" fill="white"/>
<path d="M35.6 62.2667C34.1334 63.6 34.5334 78.6667 36 78.6667C36.8 78.6667 37.3334 77.7333 37.3334 76.6667C37.3334 74.1333 39.4667 74.1333 40.5334 76.6667C40.9334 77.7333 42.1334 78.6667 43.3334 78.6667C45.8667 78.6667 45.8667 77.4667 43.3334 74.6667C41.4667 72.6667 41.4667 72.2667 43.3334 70.6667C46.1334 68.2667 45.8667 65.8667 42.4 63.4667C39.2 61.2 36.9334 60.8 35.6 62.2667ZM41.3334 67.3333C41.3334 68.4 40.4 69.3333 39.3334 69.3333C38.2667 69.3333 37.3334 68.4 37.3334 67.3333C37.3334 66.2667 38.2667 65.3333 39.3334 65.3333C40.4 65.3333 41.3334 66.2667 41.3334 67.3333Z" fill="white"/>
<path d="M18.6667 64.6666C14.9334 69.1999 18.5334 78.6666 24.1334 78.6666C27.8667 78.6666 30.6667 77.1999 30.6667 75.1999C30.6667 72.9332 29.0667 72.7999 27.0667 74.7999C26.0001 75.8666 24.8001 75.8666 22.8001 74.7999C17.6001 71.9999 20.5334 64.6666 26.5334 65.5999C28.0001 65.8666 29.3334 65.3332 29.6001 64.6666C30.2667 62.3999 20.6667 62.2666 18.6667 64.6666Z" fill="white"/>
<path d="M50.2668 64.5332C49.8668 65.4666 49.0668 69.0666 48.6668 72.5332C47.6001 79.7332 49.8668 81.1999 51.7334 74.2666L52.9334 69.9999L53.8668 74.2666C55.2001 79.8666 58.1334 79.8666 59.4668 74.2666L60.4001 69.9999L61.6001 74.2666C63.3334 80.7999 65.7334 79.8666 64.6668 72.9332C64.2668 69.8666 63.4668 66.2666 63.2001 64.9332C62.0001 61.1999 58.9334 62.3999 57.8668 66.9332L56.9334 71.3332L55.0668 66.9332C53.2001 62.3999 51.4668 61.4666 50.2668 64.5332Z" fill="white"/>
<path d="M40 84C40 84.6667 40.6667 85.3333 41.3333 85.3333C42.1333 85.3333 42.6667 84.6667 42.6667 84C42.6667 83.2 42.1333 82.6667 41.3333 82.6667C40.6667 82.6667 40 83.2 40 84Z" fill="white"/>
</g>
</svg>
