<svg width="85" height="86" viewBox="0 0 85 86" fill="none" xmlns="http://www.w3.org/2000/svg">
<path d="M24.8 1.62656C16.2667 5.89322 13.7334 16.9599 19.2 25.7599C22.5334 31.0932 41.6 48.2932 43.3334 47.6266C47.0667 46.2932 64 30.5599 66.8 25.8932C71.3334 18.0266 71.0667 10.6932 66.2667 5.49322C60 -1.17344 51.6 -1.70678 45.8667 4.02656L43.2 6.69322L39.2 3.22656C34.8 -0.373442 29.8667 -1.04011 24.8 1.62656ZM37.0667 8.29323C38.6667 10.0266 40.8 12.5599 41.7334 14.0266C43.3334 16.4266 43.3334 16.4266 45.0667 14.0266C49.7334 7.09323 51.7334 5.22656 54.8 5.22656C62.8 5.22656 67.3334 12.6932 64.1334 20.2932C62.4 24.4266 45.7334 41.2266 43.3334 41.2266C40.8 41.2266 24.8 26.1599 22.6667 21.7599C17.2 10.1599 28.6667 -0.506775 37.0667 8.29323Z" fill="black"/>
<path d="M22.1333 51.2266C18.9333 52.6932 17.2 52.8266 15.8667 51.8932C14.9333 51.0932 11.0667 50.5599 7.06667 50.8266L0 51.2266V67.8932V84.5599L7.06667 84.9599C11.0667 85.2266 14.9333 84.8266 15.8667 84.0266C16.8 83.2266 19.3333 83.0932 22.6667 83.8932C25.6 84.5599 35.4667 85.2266 44.6667 85.2266C64.8 85.2266 66.5333 84.4266 77.2 70.1599C85.2 59.6266 86.1333 56.2932 82.2667 52.8266C78.2667 49.2266 74.1333 50.1599 69.0667 55.4932C66 58.9599 64.2667 60.0266 63.6 58.9599C62 56.5599 55.7333 54.5599 49.2 54.5599C45.8667 54.5599 40.9333 53.3599 38 51.8932C31.8667 48.6932 28.2667 48.5599 22.1333 51.2266ZM37.6 57.2266C40.2667 58.8266 44.8 59.8932 50.2667 60.1599C56.6667 60.4266 58.6667 61.0932 58.6667 62.5599C58.6667 64.1599 56.2667 64.6932 48 65.2266C39.7333 65.7599 37.3333 66.2932 37.3333 67.8932C37.3333 69.4932 39.7333 70.0266 49.0667 70.2932L60.8 70.6932L68.5333 63.2266C76 56.1599 79.3333 54.2932 79.3333 57.3599C79.3333 59.6266 66.1333 77.0932 63.3333 78.5599C60.5333 80.0266 30.1333 80.4266 23.4667 79.0932L19.3333 78.1599V68.5599C19.3333 60.0266 19.7333 58.6932 22.4 56.8266C26.4 53.8932 32.5333 54.0266 37.6 57.2266ZM14 67.8932V79.8932H9.33333H4.66667V67.8932V55.8932H9.33333H14V67.8932Z" fill="black"/>
</svg>
