<svg width="39" height="39" viewBox="0 0 39 39" fill="none" xmlns="http://www.w3.org/2000/svg">
<circle cx="19.6345" cy="19.7771" r="18.6345" stroke="#7D7D7D"/>
<path d="M15.4283 17.3691H12.2217V27.5949H15.4283V17.3691Z" fill="#4A4B4C"/>
<path d="M24.1026 17.1475C23.9844 17.1327 23.8588 17.1253 23.7332 17.1179C21.9378 17.044 20.9256 18.108 20.5709 18.5661C20.4749 18.6917 20.4305 18.7656 20.4305 18.7656V17.3987H17.3643V27.6245H20.4305H20.5709C20.5709 26.5827 20.5709 25.5483 20.5709 24.5065C20.5709 23.945 20.5709 23.3834 20.5709 22.8219C20.5709 22.1274 20.5192 21.3885 20.8664 20.7531C21.162 20.2211 21.694 19.9551 22.2924 19.9551C24.0657 19.9551 24.1026 21.5585 24.1026 21.7062C24.1026 21.7136 24.1026 21.721 24.1026 21.721V27.6688H27.3093V20.9969C27.3093 18.7139 26.1493 17.3691 24.1026 17.1475Z" fill="#4A4B4C"/>
<path d="M13.8248 16.0471C14.8531 16.0471 15.6867 15.2135 15.6867 14.1852C15.6867 13.1569 14.8531 12.3232 13.8248 12.3232C12.7965 12.3232 11.9629 13.1569 11.9629 14.1852C11.9629 15.2135 12.7965 16.0471 13.8248 16.0471Z" fill="#4A4B4C"/>
</svg>
