<?xml version="1.0" encoding="UTF-8"?>
<svg xmlns="http://www.w3.org/2000/svg" xmlns:xlink="http://www.w3.org/1999/xlink" width="26px" height="20px" viewBox="0 0 26 20" version="1.1">
<g id="surface1">
<path style=" stroke:none;fill-rule:nonzero;fill:rgb(100%,0%,0%);fill-opacity:1;" d="M 10.398438 0 L 26 0 L 26 20 L 10.398438 20 Z M 10.398438 0 "/>
<path style=" stroke:none;fill-rule:nonzero;fill:rgb(0%,40%,0%);fill-opacity:1;" d="M 0 0 L 10.398438 0 L 10.398438 20 L 0 20 Z M 0 0 "/>
<path style="fill-rule:evenodd;fill:rgb(100%,100%,0%);fill-opacity:1;stroke-width:0.6;stroke-linecap:round;stroke-linejoin:round;stroke:rgb(0%,0%,0%);stroke-opacity:1;stroke-miterlimit:4;" d="M 339.519231 306.1875 C 307.211538 305.15625 159.519231 213 158.461538 198.1875 L 166.634615 184.6875 C 181.346154 205.96875 332.307692 295.6875 347.211538 292.5 L 339.519231 306.1875 " transform="matrix(0.040625,0,0,0.0416667,0,0)"/>
<path style="fill-rule:evenodd;fill:rgb(100%,100%,0%);fill-opacity:1;stroke-width:0.6;stroke-linecap:round;stroke-linejoin:round;stroke:rgb(0%,0%,0%);stroke-opacity:1;stroke-miterlimit:4;" d="M 164.903846 182.8125 C 162.019231 190.59375 203.461538 216.1875 253.269231 246.5625 C 303.173077 276.9375 346.153846 295.59375 349.326923 292.96875 L 350.769231 290.15625 C 350.192308 291.1875 348.846154 291.46875 346.538462 290.8125 C 332.980769 286.875 297.884615 270.84375 254.423077 244.40625 C 210.769231 217.96875 172.980769 193.6875 167.115385 183.375 C 166.634615 182.4375 166.442308 181.40625 166.538462 180.28125 L 166.346154 180.28125 L 165.096154 182.53125 Z M 340.192308 306.5625 C 339.711538 307.59375 338.557692 307.59375 336.730769 307.40625 C 324.711538 306.09375 288.076923 288.28125 244.807692 262.40625 C 194.423077 232.21875 152.788462 204.84375 157.403846 197.625 L 158.557692 195.375 L 158.846154 195.46875 C 154.807692 207.65625 240.865385 256.875 245.961538 260.0625 C 295.769231 290.90625 337.788462 309 341.538462 304.3125 Z M 340.192308 306.5625 " transform="matrix(0.040625,0,0,0.0416667,0,0)"/>
<path style="fill-rule:evenodd;fill:rgb(100%,100%,0%);fill-opacity:1;stroke-width:0.6;stroke-linecap:round;stroke-linejoin:round;stroke:rgb(0%,0%,0%);stroke-opacity:1;stroke-miterlimit:4;" d="M 256.153846 207.1875 C 288.365385 206.90625 328.173077 202.78125 351.153846 193.59375 L 346.153846 185.625 C 332.692308 193.125 292.692308 198.09375 255.865385 198.84375 C 212.5 198.375 181.826923 194.34375 166.442308 184.03125 L 161.826923 192.5625 C 190 204.5625 219.038462 207.09375 256.153846 207.1875 " transform="matrix(0.040625,0,0,0.0416667,0,0)"/>
<path style="fill-rule:evenodd;fill:rgb(100%,100%,0%);fill-opacity:1;stroke-width:0.6;stroke-linecap:round;stroke-linejoin:round;stroke:rgb(0%,0%,0%);stroke-opacity:1;stroke-miterlimit:4;" d="M 352.5 193.78125 C 351.730769 195.09375 336.730769 200.15625 314.711538 204 C 295.288462 206.90625 275.673077 208.40625 256.057692 208.3125 C 237.307692 208.40625 218.557692 207.1875 199.903846 204.65625 C 176.826923 201.09375 164.903846 196.125 160.384615 194.34375 L 161.538462 192.09375 C 174.230769 197.0625 186.153846 200.0625 200.192308 202.3125 C 218.653846 204.84375 237.307692 206.0625 255.961538 205.96875 C 275.480769 206.0625 295 204.5625 314.326923 201.65625 C 336.826923 198 349.134615 193.3125 350.865385 191.15625 L 352.5 193.875 Z M 348.076923 185.71875 C 345.673077 187.6875 333.461538 192 312.115385 195.375 C 293.653846 198.09375 275 199.40625 256.346154 199.40625 C 234.326923 199.40625 216.153846 197.8125 202.5 195.84375 C 180.673077 193.03125 169.134615 187.78125 164.903846 186.375 L 166.153846 184.21875 C 169.519231 185.90625 180.576923 190.40625 202.692308 193.5 C 220.480769 195.84375 238.365385 197.0625 256.346154 196.875 C 274.807692 196.875 293.365385 195.5625 311.730769 192.9375 C 333.173077 189.9375 344.807692 184.5 346.634615 183.09375 Z M 150.288462 246 C 170.096154 256.6875 214.230769 262.03125 255.865385 262.40625 C 293.942308 262.5 343.269231 256.59375 361.826923 246.84375 L 361.346154 236.0625 C 355.480769 245.0625 302.5 253.78125 255.480769 253.5 C 208.461538 253.125 164.807692 245.90625 150.192308 236.53125 L 150.192308 246 " transform="matrix(0.040625,0,0,0.0416667,0,0)"/>
<path style="fill-rule:evenodd;fill:rgb(100%,100%,0%);fill-opacity:1;stroke-width:0.6;stroke-linecap:round;stroke-linejoin:round;stroke:rgb(0%,0%,0%);stroke-opacity:1;stroke-miterlimit:4;" d="M 362.788462 244.5 L 362.788462 247.03125 C 360 250.40625 342.596154 255.375 320.769231 259.03125 C 299.134615 262.125 277.307692 263.625 255.384615 263.4375 C 234.615385 263.53125 213.942308 262.125 193.365385 259.125 C 178.076923 257.34375 163.076923 253.3125 149.038462 247.125 L 149.038462 244.21875 C 158.653846 250.59375 184.903846 255.375 193.653846 256.78125 C 209.519231 259.21875 229.807692 261 255.384615 261 C 282.307692 261 303.846154 259.125 320.384615 256.59375 C 336.057692 254.34375 358.365385 248.4375 362.788462 244.5 Z M 362.788462 235.5 L 362.788462 238.03125 C 360 241.3125 342.596154 246.28125 320.769231 249.9375 C 299.134615 253.03125 277.307692 254.53125 255.384615 254.4375 C 234.615385 254.53125 213.942308 253.125 193.365385 250.125 C 178.076923 248.34375 163.076923 244.3125 149.038462 238.125 L 149.038462 235.125 C 158.653846 241.59375 185 246.28125 193.653846 247.6875 C 214.134615 250.6875 234.711538 252.09375 255.384615 252 C 282.307692 252 303.942308 250.03125 320.384615 247.5 C 336.057692 245.34375 358.365385 239.4375 362.788462 235.5 Z M 255.769231 304.3125 C 210.192308 304.125 171.057692 291.9375 162.788462 289.875 L 168.846154 299.34375 C 196.826923 309.1875 226.442308 314.0625 256.153846 313.59375 C 290.865385 312.5625 321.153846 309.9375 342.5 299.53125 L 348.653846 289.6875 C 334.230769 296.625 284.711538 304.3125 255.673077 304.3125 " transform="matrix(0.040625,0,0,0.0416667,0,0)"/>
<path style="fill-rule:evenodd;fill:rgb(100%,100%,0%);fill-opacity:1;stroke-width:0.6;stroke-linecap:round;stroke-linejoin:round;stroke:rgb(0%,0%,0%);stroke-opacity:1;stroke-miterlimit:4;" d="M 344.903846 297.28125 C 343.942308 298.6875 343.076923 300 342.115385 301.3125 C 332.115385 304.875 316.057692 308.71875 309.519231 309.65625 C 291.826923 313.03125 273.846154 314.71875 255.769231 314.71875 C 215.384615 314.0625 182.307692 306.1875 166.826923 299.4375 L 165.480769 297.28125 L 165.673077 296.90625 L 167.788462 297.84375 C 196.25 307.21875 226.057692 312.09375 255.961538 312.28125 C 274.807692 312.28125 293.461538 310.21875 308.557692 307.5 C 331.826923 302.8125 341.153846 299.34375 344.134615 297.65625 L 344.807692 297.28125 Z M 350.192308 288.46875 C 349.519231 289.6875 348.846154 290.8125 348.173077 292.03125 C 342.788462 294 328.173077 298.21875 306.923077 301.21875 C 292.884615 303.09375 284.230769 304.96875 256.346154 305.53125 C 224.423077 305.15625 192.692308 300.46875 162.115385 291.46875 L 160.961538 289.03125 C 192.115385 297.5625 224.134615 302.34375 256.442308 303 C 281.923077 302.53125 292.788462 300.5625 306.730769 298.6875 C 331.538462 294.9375 344.038462 290.71875 347.692308 289.59375 C 347.692308 289.5 347.692308 289.5 347.692308 289.40625 L 350.288462 288.375 Z M 350.192308 288.46875 " transform="matrix(0.040625,0,0,0.0416667,0,0)"/>
<path style="fill-rule:evenodd;fill:rgb(100%,100%,0%);fill-opacity:1;stroke-width:0.6;stroke-linecap:round;stroke-linejoin:round;stroke:rgb(0%,0%,0%);stroke-opacity:1;stroke-miterlimit:4;" d="M 350.769231 237.5625 C 350.865385 267.5625 335.480769 294.5625 323.173077 306.375 C 305 324.09375 280.769231 334.21875 255.384615 334.59375 C 225.096154 335.0625 196.634615 315.375 188.942308 306.65625 C 171.634615 288.46875 161.826923 264.375 161.442308 239.34375 C 163.173077 206.53125 176.057692 183.65625 194.711538 168 C 212.788462 153.09375 235.480769 145.125 258.942308 145.3125 C 286.538462 146.625 312.307692 159.5625 329.903846 180.9375 C 342.403846 196.125 347.884615 212.625 350.769231 237.5625 Z M 255.576923 135 C 313.846154 135 361.153846 181.96875 361.634615 240.1875 C 361.634615 298.59375 314.230769 345.9375 255.865385 345.9375 C 197.5 345.9375 150.192308 298.59375 150.192308 240.1875 C 150.096154 182.15625 197.5 135 255.576923 135 " transform="matrix(0.040625,0,0,0.0416667,0,0)"/>
<path style="fill-rule:evenodd;fill:rgb(100%,100%,0%);fill-opacity:1;stroke-width:0.6;stroke-linecap:round;stroke-linejoin:round;stroke:rgb(0%,0%,0%);stroke-opacity:1;stroke-miterlimit:4;" d="M 255.865385 134.53125 C 314.134615 134.53125 361.538462 181.875 361.538462 240.09375 C 361.538462 298.3125 314.134615 345.65625 255.961538 345.65625 C 197.884615 345.65625 150.384615 298.3125 150.384615 240.09375 C 150.384615 181.875 197.788462 134.53125 255.961538 134.53125 Z M 152.596154 240 C 152.596154 296.8125 199.326923 343.3125 255.865385 343.3125 C 312.5 343.3125 359.230769 296.8125 359.230769 240 C 359.230769 183.1875 312.5 136.6875 255.865385 136.6875 C 199.326923 136.6875 152.596154 183.1875 152.596154 240 Z M 152.596154 240 " transform="matrix(0.040625,0,0,0.0416667,0,0)"/>
<path style="fill-rule:evenodd;fill:rgb(100%,100%,0%);fill-opacity:1;stroke-width:0.6;stroke-linecap:round;stroke-linejoin:round;stroke:rgb(0%,0%,0%);stroke-opacity:1;stroke-miterlimit:4;" d="M 255.961538 143.34375 C 309.326923 143.4375 352.5 186.65625 352.692308 240 C 352.5 293.34375 309.326923 336.5625 255.961538 336.84375 C 202.980769 336.84375 159.326923 293.15625 159.326923 240 C 159.519231 186.65625 202.692308 143.53125 255.961538 143.34375 Z M 161.634615 240 C 161.634615 292.03125 204.230769 334.40625 255.961538 334.40625 C 307.788462 334.40625 350.384615 291.9375 350.384615 240 C 350.384615 187.96875 307.788462 145.59375 255.961538 145.59375 C 203.942308 145.78125 161.826923 187.96875 161.634615 240 Z M 161.634615 240 " transform="matrix(0.040625,0,0,0.0416667,0,0)"/>
<path style="fill-rule:evenodd;fill:rgb(100%,100%,0%);fill-opacity:1;stroke-width:0.6;stroke-linecap:round;stroke-linejoin:round;stroke:rgb(0%,0%,0%);stroke-opacity:1;stroke-miterlimit:4;" d="M 260.288462 133.96875 L 251.153846 133.96875 L 251.153846 346.3125 L 260.192308 346.3125 Z M 260.288462 133.96875 " transform="matrix(0.040625,0,0,0.0416667,0,0)"/>
<path style="fill-rule:evenodd;fill:rgb(100%,100%,0%);fill-opacity:1;stroke-width:0.6;stroke-linecap:round;stroke-linejoin:round;stroke:rgb(0%,0%,0%);stroke-opacity:1;stroke-miterlimit:4;" d="M 259.326923 132.84375 L 261.634615 132.84375 L 261.634615 347.53125 L 259.423077 347.53125 L 259.423077 132.84375 Z M 250.288462 132.84375 L 252.692308 132.84375 L 252.692308 347.53125 L 250.384615 347.53125 L 250.384615 132.84375 Z M 250.288462 132.84375 " transform="matrix(0.040625,0,0,0.0416667,0,0)"/>
<path style="fill-rule:evenodd;fill:rgb(100%,100%,0%);fill-opacity:1;stroke-width:0.6;stroke-linecap:round;stroke-linejoin:round;stroke:rgb(0%,0%,0%);stroke-opacity:1;stroke-miterlimit:4;" d="M 361.634615 244.21875 L 361.634615 236.4375 L 355.192308 230.4375 L 318.942308 220.78125 L 266.730769 215.53125 L 203.653846 218.71875 L 158.942308 229.3125 L 149.903846 235.96875 L 149.903846 243.9375 L 172.788462 233.625 L 227.211538 225.09375 L 279.519231 225.09375 L 317.884615 229.3125 L 344.519231 235.6875 Z M 361.634615 244.21875 " transform="matrix(0.040625,0,0,0.0416667,0,0)"/>
<path style="fill-rule:evenodd;fill:rgb(100%,100%,0%);fill-opacity:1;stroke-width:0.6;stroke-linecap:round;stroke-linejoin:round;stroke:rgb(0%,0%,0%);stroke-opacity:1;stroke-miterlimit:4;" d="M 255.961538 223.78125 C 280.865385 223.78125 305 226.125 324.326923 229.78125 C 344.134615 233.8125 357.980769 238.78125 362.788462 244.3125 L 362.788462 247.125 C 357.019231 240.09375 338.269231 235.125 323.846154 232.125 C 304.807692 228.46875 280.769231 226.125 255.865385 226.125 C 229.807692 226.125 205.384615 228.65625 186.634615 232.3125 C 171.634615 235.3125 151.538462 241.3125 149.038462 247.125 L 149.038462 244.21875 C 150.288462 240.1875 165.288462 234.1875 186.346154 229.875 C 205.192308 226.21875 229.615385 223.78125 255.865385 223.78125 Z M 255.961538 214.6875 C 278.942308 214.6875 301.730769 216.65625 324.326923 220.6875 C 344.134615 224.71875 357.980769 229.6875 362.788462 235.3125 L 362.788462 238.03125 C 357.019231 231.09375 338.269231 226.03125 323.846154 223.125 C 304.807692 219.375 280.769231 217.125 255.865385 217.125 C 232.692308 217.03125 209.519231 219.09375 186.730769 223.3125 C 172.211538 226.03125 151.346154 232.21875 149.038462 238.03125 L 149.038462 235.21875 C 150.384615 231.1875 165.576923 224.90625 186.346154 220.875 C 205.288462 217.21875 229.615385 214.6875 255.961538 214.6875 Z M 255.384615 168.46875 C 294.711538 168.28125 329.038462 174 344.711538 181.96875 L 350.384615 192 C 336.826923 184.59375 299.807692 177 255.480769 178.03125 C 219.423077 178.3125 180.769231 181.96875 161.538462 192.375 L 168.269231 181.03125 C 184.230769 172.6875 221.634615 168.46875 255.384615 168.46875 " transform="matrix(0.040625,0,0,0.0416667,0,0)"/>
<path style="fill-rule:evenodd;fill:rgb(100%,100%,0%);fill-opacity:1;stroke-width:0.6;stroke-linecap:round;stroke-linejoin:round;stroke:rgb(0%,0%,0%);stroke-opacity:1;stroke-miterlimit:4;" d="M 255.961538 176.71875 C 276.538462 176.34375 297.019231 177.75 317.307692 181.03125 C 333.269231 184.03125 348.557692 188.4375 350.769231 190.78125 L 352.5 193.78125 C 347.211538 190.40625 333.942308 186.46875 316.923077 183.28125 C 299.903846 180.09375 278.173077 178.96875 255.865385 179.0625 C 230.576923 178.96875 210.865385 180.28125 194.134615 183.28125 C 182.5 184.96875 171.25 188.4375 160.769231 193.59375 L 162.5 190.5 C 168.461538 187.5 177.788462 183.84375 193.557692 180.9375 C 211.057692 177.65625 230.961538 176.8125 255.961538 176.71875 Z M 255.961538 167.71875 C 277.403846 167.53125 298.557692 168.65625 315.096154 171.65625 C 325.769231 173.25 336.153846 176.625 345.673077 181.6875 L 348.173077 185.71875 C 344.038462 181.03125 328.173077 176.53125 314.134615 174.09375 C 297.692308 171.1875 277.403846 170.0625 255.961538 169.875 C 236.057692 169.6875 216.153846 171.1875 196.538462 174.28125 C 186.25 175.6875 176.25 178.78125 166.923077 183.375 L 169.134615 180.09375 C 174.903846 177.09375 184.326923 174.28125 196.057692 172.03125 C 215.865385 168.84375 235.961538 167.34375 255.961538 167.625 Z M 308.365385 283.96875 C 291.057692 280.96875 273.461538 279.65625 255.865385 280.03125 C 190.384615 280.78125 169.326923 293.53125 166.730769 297.28125 L 161.730769 289.3125 C 178.461538 277.3125 214.134615 270.46875 256.346154 271.125 C 278.173077 271.5 297.115385 273 312.884615 276.09375 L 308.365385 284.0625 " transform="matrix(0.040625,0,0,0.0416667,0,0)"/>
<path style="fill-rule:evenodd;fill:rgb(100%,100%,0%);fill-opacity:1;stroke-width:0.6;stroke-linecap:round;stroke-linejoin:round;stroke:rgb(0%,0%,0%);stroke-opacity:1;stroke-miterlimit:4;" d="M 255.576923 278.90625 C 273.846154 279.1875 291.634615 279.9375 308.942308 283.125 L 307.692308 285.28125 C 291.730769 282.28125 274.519231 281.34375 255.673077 281.34375 C 231.442308 281.0625 207.019231 283.40625 185.673077 289.5 C 179.038462 291.375 167.884615 295.6875 166.730769 299.34375 L 165.480769 297.28125 C 165.865385 295.125 172.5 290.71875 185.096154 287.34375 C 209.519231 280.3125 232.307692 279 255.576923 278.90625 Z M 256.442308 269.71875 C 275.576923 269.71875 294.807692 271.3125 313.653846 274.6875 L 312.403846 277.03125 C 293.942308 273.65625 275.192308 271.96875 256.442308 272.0625 C 232.211538 272.0625 206.538462 273.9375 183.076923 280.6875 C 175.576923 282.9375 162.5 287.71875 162.115385 291.375 L 160.865385 289.21875 C 161.057692 285.84375 172.403846 281.34375 182.596154 278.4375 C 206.057692 271.5 231.923077 269.8125 256.442308 269.71875 Z M 256.442308 269.71875 " transform="matrix(0.040625,0,0,0.0416667,0,0)"/>
<path style="fill-rule:evenodd;fill:rgb(100%,100%,0%);fill-opacity:1;stroke-width:0.6;stroke-linecap:round;stroke-linejoin:round;stroke:rgb(0%,0%,0%);stroke-opacity:1;stroke-miterlimit:4;" d="M 349.423077 290.53125 L 341.634615 302.8125 L 318.942308 282.65625 L 260.288462 243.1875 L 194.134615 206.90625 L 159.807692 195.1875 L 167.115385 181.59375 L 169.615385 180.28125 L 190.865385 185.625 L 261.346154 221.90625 L 301.923077 247.5 L 335.961538 271.96875 L 349.903846 288 Z M 349.423077 290.53125 " transform="matrix(0.040625,0,0,0.0416667,0,0)"/>
<path style="fill-rule:evenodd;fill:rgb(100%,100%,0%);fill-opacity:1;stroke-width:0.6;stroke-linecap:round;stroke-linejoin:round;stroke:rgb(0%,0%,0%);stroke-opacity:1;stroke-miterlimit:4;" d="M 158.557692 195.46875 C 164.615385 191.53125 208.846154 211.125 255.192308 239.0625 C 301.346154 267.09375 345.480769 298.6875 341.538462 304.59375 L 340.192308 306.65625 L 339.615385 307.21875 C 339.711538 307.125 340.384615 306.1875 339.615385 304.125 C 337.596154 297.5625 306.153846 272.625 254.326923 241.21875 C 203.557692 211.125 161.442308 192.9375 157.307692 198.09375 Z M 350.961538 290.4375 C 354.807692 282.84375 313.846154 251.90625 262.884615 221.8125 C 210.865385 192.28125 173.269231 174.9375 166.442308 180.09375 L 165 183 C 165 183.09375 165 182.8125 165.384615 182.53125 C 166.634615 181.5 168.653846 181.5 169.615385 181.5 C 181.442308 181.6875 215.096154 197.15625 262.403846 224.34375 C 283.173077 236.34375 350 279.28125 349.711538 291.28125 C 349.711538 292.3125 349.807692 292.5 349.423077 293.0625 L 351.057692 290.53125 Z M 350.961538 290.4375 " transform="matrix(0.040625,0,0,0.0416667,0,0)"/>
<path style="fill-rule:nonzero;fill:rgb(100%,100%,100%);fill-opacity:1;stroke-width:0.7;stroke-linecap:butt;stroke-linejoin:miter;stroke:rgb(0%,0%,0%);stroke-opacity:1;stroke-miterlimit:4;" d="M 180.55833 211.042309 C 180.648474 226.686792 186.95855 241.716042 198.1364 252.702335 C 209.133962 263.86441 224.188001 270.280405 239.873048 270.280405 C 255.64824 270.280405 270.792423 264.04019 281.880129 252.878116 C 293.057978 241.803932 299.277911 226.774682 299.277911 211.1302 L 299.277911 131.940994 L 180.55833 131.677323 Z M 180.55833 211.042309 " transform="matrix(0.0433335,0,0,0.0444446,0,1.1125)"/>
<path style="fill-rule:nonzero;fill:rgb(100%,0%,0%);fill-opacity:1;stroke-width:0.5;stroke-linecap:butt;stroke-linejoin:miter;stroke:rgb(0%,0%,0%);stroke-opacity:1;stroke-miterlimit:4;" d="M 182.811929 211.1302 C 182.811929 226.15945 188.851573 240.573467 199.578703 251.120309 C 210.215689 261.842932 224.728865 267.819476 239.782905 267.907366 C 254.836944 267.907366 269.35012 261.930822 279.987106 251.29609 C 290.714236 240.749248 296.663736 226.33523 296.663736 211.30598 L 296.663736 134.314033 L 182.992217 134.314033 L 182.992217 211.1302 M 274.037605 157.429196 L 274.037605 206.29623 L 273.857317 211.393871 C 273.947461 220.446577 270.341703 229.059831 263.941483 235.387936 C 257.541262 241.803932 248.887443 245.407436 239.873048 245.407436 C 230.498078 245.407436 222.204834 241.36448 215.984902 235.212156 C 209.584682 228.88405 205.978924 220.182906 205.978924 211.21809 L 205.978924 157.165524 Z M 274.037605 157.429196 " transform="matrix(0.0433335,0,0,0.0444446,0,1.1125)"/>
<path style=" stroke:none;fill-rule:nonzero;fill:rgb(100%,100%,0%);fill-opacity:1;" d="M 8.242188 7.976562 C 8.246094 7.730469 8.414062 7.671875 8.414062 7.671875 C 8.417969 7.671875 8.601562 7.734375 8.601562 7.980469 L 8.242188 7.980469 "/>
<path style="fill-rule:nonzero;fill:rgb(100%,100%,0%);fill-opacity:1;stroke-width:0.5;stroke-linecap:butt;stroke-linejoin:miter;stroke:rgb(0%,0%,0%);stroke-opacity:1;stroke-miterlimit:4;" d="M 186.778262 147.673367 L 186.057111 154.001472 L 190.293876 154.001472 C 190.293876 148.815941 194.26021 148.024928 194.26021 148.024928 C 194.440498 148.024928 198.316688 149.079612 198.406832 154.001472 L 202.643598 154.001472 L 201.832302 147.585476 L 186.778262 147.585476 Z M 185.786679 154.089362 L 202.823885 154.089362 C 203.094317 154.089362 203.364749 154.440924 203.364749 154.792485 C 203.364749 155.319827 203.094317 155.583498 202.823885 155.583498 L 185.786679 155.583498 C 185.516247 155.583498 185.155671 155.319827 185.155671 154.792485 C 185.155671 154.440924 185.516247 154.089362 185.876823 154.089362 Z M 185.786679 154.089362 " transform="matrix(0.0433335,0,0,0.0444446,0,1.1125)"/>
<path style="fill-rule:nonzero;fill:rgb(100%,100%,0%);fill-opacity:1;stroke-width:0.5;stroke-linecap:butt;stroke-linejoin:miter;stroke:rgb(0%,0%,0%);stroke-opacity:1;stroke-miterlimit:4;" d="M 192.006612 154.001472 C 192.006612 150.661639 194.26021 149.782735 194.26021 149.782735 C 194.26021 149.782735 196.603953 150.837419 196.603953 154.001472 L 192.006612 154.001472 M 186.237399 145.036656 L 202.46331 145.036656 C 202.823885 145.036656 203.094317 145.388218 203.094317 145.827669 C 203.094317 146.09134 202.823885 146.442902 202.46331 146.442902 L 186.237399 146.442902 C 185.876823 146.442902 185.606391 146.09134 185.606391 145.739779 C 185.606391 145.388218 185.876823 145.124546 186.237399 145.124546 Z M 186.597975 146.530792 L 202.01259 146.530792 C 202.283022 146.530792 202.643598 146.794463 202.643598 147.233915 C 202.643598 147.585476 202.283022 147.937038 202.01259 147.937038 L 186.507831 147.937038 C 186.057111 147.937038 185.876823 147.585476 185.876823 147.233915 C 185.876823 146.794463 186.057111 146.530792 186.507831 146.530792 Z M 191.555892 135.89606 L 192.817907 135.89606 L 192.817907 136.687073 L 193.719347 136.687073 L 193.719347 135.89606 L 194.981362 135.89606 L 194.981362 136.774963 L 195.882801 136.774963 L 195.882801 135.808169 L 197.144817 135.808169 L 197.144817 137.829647 C 197.144817 138.181209 196.874385 138.35699 196.603953 138.35699 L 192.186899 138.35699 C 191.916468 138.35699 191.555892 138.181209 191.555892 137.917538 Z M 196.243377 138.620661 L 196.513809 145.036656 L 192.186899 145.036656 L 192.457331 138.53277 L 196.243377 138.53277 " transform="matrix(0.0433335,0,0,0.0444446,0,1.1125)"/>
<path style="fill-rule:nonzero;fill:rgb(100%,100%,0%);fill-opacity:1;stroke-width:0.5;stroke-linecap:butt;stroke-linejoin:miter;stroke:rgb(0%,0%,0%);stroke-opacity:1;stroke-miterlimit:4;" d="M 191.015028 141.608932 L 191.015028 145.036656 L 186.95855 145.036656 L 186.95855 141.608932 Z M 191.015028 141.608932 " transform="matrix(0.0433335,0,0,0.0444446,0,1.1125)"/>
<path style="fill-rule:nonzero;fill:rgb(100%,100%,0%);fill-opacity:1;stroke-width:0.5;stroke-linecap:butt;stroke-linejoin:miter;stroke:rgb(0%,0%,0%);stroke-opacity:1;stroke-miterlimit:4;" d="M 190.96187 141.608932 L 190.96187 145.036656 L 186.995536 145.036656 L 186.995536 141.608932 Z M 190.96187 141.608932 " transform="matrix(0.0433335,0,0,0.0444446,0.459335,1.1125)"/>
<path style="fill-rule:nonzero;fill:rgb(100%,100%,0%);fill-opacity:1;stroke-width:0.5;stroke-linecap:butt;stroke-linejoin:miter;stroke:rgb(0%,0%,0%);stroke-opacity:1;stroke-miterlimit:4;" d="M 186.327543 138.972222 L 187.499414 138.972222 L 187.499414 140.026906 L 188.400854 140.026906 L 188.400854 138.972222 L 189.572725 138.972222 L 189.572725 140.026906 L 190.474164 140.026906 L 190.474164 138.972222 L 191.73618 138.972222 L 191.73618 140.9937 C 191.73618 141.433152 191.465748 141.608932 191.195316 141.608932 L 186.868406 141.608932 C 186.597975 141.608932 186.327543 141.345261 186.327543 140.9937 Z M 186.327543 138.972222 " transform="matrix(0.0433335,0,0,0.0444446,0,1.1125)"/>
<path style="fill-rule:nonzero;fill:rgb(100%,100%,0%);fill-opacity:1;stroke-width:0.5;stroke-linecap:butt;stroke-linejoin:miter;stroke:rgb(0%,0%,0%);stroke-opacity:1;stroke-miterlimit:4;" d="M 186.274385 138.972222 L 187.5364 138.972222 L 187.5364 140.026906 L 188.43784 140.026906 L 188.43784 138.972222 L 189.609711 138.972222 L 189.609711 140.026906 L 190.51115 140.026906 L 190.51115 138.972222 L 191.683022 138.972222 L 191.683022 140.9937 C 191.683022 141.433152 191.502734 141.608932 191.232302 141.608932 L 186.905392 141.608932 C 186.544817 141.608932 186.274385 141.345261 186.274385 140.9937 Z M 186.274385 138.972222 " transform="matrix(0.0433335,0,0,0.0444446,0.459335,1.1125)"/>
<path style=" stroke:none;fill-rule:nonzero;fill:rgb(0%,0%,0%);fill-opacity:1;" d="M 8.402344 7.363281 C 8.402344 7.335938 8.441406 7.335938 8.441406 7.363281 L 8.441406 7.433594 L 8.402344 7.433594 L 8.402344 7.363281 "/>
<path style=" stroke:none;fill-rule:nonzero;fill:rgb(0%,0%,0%);fill-opacity:1;" d="M 8.171875 7.460938 C 8.171875 7.433594 8.207031 7.433594 8.207031 7.460938 L 8.207031 7.511719 L 8.171875 7.511719 L 8.171875 7.460938 "/>
<path style=" stroke:none;fill-rule:nonzero;fill:rgb(0%,0%,0%);fill-opacity:1;" d="M 8.632812 7.460938 C 8.632812 7.433594 8.667969 7.433594 8.667969 7.460938 L 8.667969 7.511719 L 8.632812 7.511719 L 8.632812 7.460938 "/>
<path style=" stroke:none;fill-rule:nonzero;fill:rgb(100%,100%,0%);fill-opacity:1;" d="M 8.242188 10.03125 C 8.246094 9.789062 8.414062 9.730469 8.414062 9.730469 C 8.417969 9.730469 8.601562 9.792969 8.601562 10.035156 L 8.242188 10.035156 "/>
<path style="fill-rule:nonzero;fill:rgb(100%,100%,0%);fill-opacity:1;stroke-width:0.5;stroke-linecap:butt;stroke-linejoin:miter;stroke:rgb(0%,0%,0%);stroke-opacity:1;stroke-miterlimit:4;" d="M 186.778262 147.691581 L 186.057111 154.019687 L 190.293876 154.019687 C 190.293876 148.834156 194.26021 148.043143 194.26021 148.043143 C 194.440498 148.043143 198.316688 149.097827 198.406832 154.019687 L 202.643598 154.019687 L 201.832302 147.603691 L 186.778262 147.603691 Z M 185.786679 154.107577 L 202.823885 154.107577 C 203.094317 154.107577 203.364749 154.371248 203.364749 154.8107 C 203.364749 155.338042 203.094317 155.601713 202.823885 155.601713 L 185.786679 155.601713 C 185.516247 155.601713 185.155671 155.338042 185.155671 154.8107 C 185.155671 154.371248 185.516247 154.107577 185.876823 154.107577 Z M 185.786679 154.107577 " transform="matrix(0.0433335,0,0,0.0444446,0,3.170284)"/>
<path style="fill-rule:nonzero;fill:rgb(100%,100%,0%);fill-opacity:1;stroke-width:0.5;stroke-linecap:butt;stroke-linejoin:miter;stroke:rgb(0%,0%,0%);stroke-opacity:1;stroke-miterlimit:4;" d="M 192.006612 154.019687 C 192.006612 150.679853 194.26021 149.80095 194.26021 149.80095 C 194.26021 149.80095 196.603953 150.767744 196.603953 154.019687 L 192.006612 154.019687 M 186.237399 144.96698 L 202.46331 144.96698 C 202.823885 144.96698 203.094317 145.406432 203.094317 145.757994 C 203.094317 146.109555 202.823885 146.373226 202.46331 146.373226 L 186.237399 146.373226 C 185.876823 146.373226 185.606391 146.109555 185.606391 145.670103 C 185.606391 145.406432 185.876823 145.142761 186.237399 145.142761 Z M 186.597975 146.461116 L 202.01259 146.461116 C 202.283022 146.461116 202.643598 146.812678 202.643598 147.164239 C 202.643598 147.603691 202.283022 147.867362 202.01259 147.867362 L 186.507831 147.867362 C 186.057111 147.867362 185.876823 147.603691 185.876823 147.164239 C 185.876823 146.812678 186.057111 146.461116 186.507831 146.461116 Z M 191.555892 135.914274 L 192.817907 135.914274 L 192.817907 136.705287 L 193.719347 136.705287 L 193.719347 135.914274 L 194.981362 135.914274 L 194.981362 136.793178 L 195.882801 136.793178 L 195.882801 135.826384 L 197.144817 135.826384 L 197.144817 137.759972 C 197.144817 138.199423 196.874385 138.375204 196.603953 138.375204 L 192.186899 138.375204 C 191.916468 138.375204 191.555892 138.199423 191.555892 137.935752 Z M 196.243377 138.638875 L 196.513809 144.96698 L 192.186899 144.96698 L 192.457331 138.463094 L 196.243377 138.463094 " transform="matrix(0.0433335,0,0,0.0444446,0,3.170284)"/>
<path style="fill-rule:nonzero;fill:rgb(100%,100%,0%);fill-opacity:1;stroke-width:0.5;stroke-linecap:butt;stroke-linejoin:miter;stroke:rgb(0%,0%,0%);stroke-opacity:1;stroke-miterlimit:4;" d="M 191.015028 141.627147 L 191.015028 144.96698 L 186.95855 144.96698 L 186.95855 141.627147 Z M 191.015028 141.627147 " transform="matrix(0.0433335,0,0,0.0444446,0,3.170284)"/>
<path style="fill-rule:nonzero;fill:rgb(100%,100%,0%);fill-opacity:1;stroke-width:0.5;stroke-linecap:butt;stroke-linejoin:miter;stroke:rgb(0%,0%,0%);stroke-opacity:1;stroke-miterlimit:4;" d="M 190.96187 141.627147 L 190.96187 144.96698 L 186.995536 144.96698 L 186.995536 141.627147 Z M 190.96187 141.627147 " transform="matrix(0.0433335,0,0,0.0444446,0.459335,3.170284)"/>
<path style="fill-rule:nonzero;fill:rgb(100%,100%,0%);fill-opacity:1;stroke-width:0.5;stroke-linecap:butt;stroke-linejoin:miter;stroke:rgb(0%,0%,0%);stroke-opacity:1;stroke-miterlimit:4;" d="M 186.327543 138.990437 L 187.499414 138.990437 L 187.499414 139.95723 L 188.400854 139.95723 L 188.400854 138.990437 L 189.572725 138.990437 L 189.572725 139.95723 L 190.474164 139.95723 L 190.474164 138.990437 L 191.73618 138.990437 L 191.73618 141.011915 C 191.73618 141.363476 191.465748 141.627147 191.195316 141.627147 L 186.868406 141.627147 C 186.597975 141.627147 186.327543 141.363476 186.327543 141.011915 Z M 186.327543 138.990437 " transform="matrix(0.0433335,0,0,0.0444446,0,3.170284)"/>
<path style="fill-rule:nonzero;fill:rgb(100%,100%,0%);fill-opacity:1;stroke-width:0.5;stroke-linecap:butt;stroke-linejoin:miter;stroke:rgb(0%,0%,0%);stroke-opacity:1;stroke-miterlimit:4;" d="M 186.274385 138.990437 L 187.5364 138.990437 L 187.5364 139.95723 L 188.43784 139.95723 L 188.43784 138.990437 L 189.609711 138.990437 L 189.609711 139.95723 L 190.51115 139.95723 L 190.51115 138.990437 L 191.683022 138.990437 L 191.683022 141.011915 C 191.683022 141.363476 191.502734 141.627147 191.232302 141.627147 L 186.905392 141.627147 C 186.544817 141.627147 186.274385 141.363476 186.274385 141.011915 Z M 186.274385 138.990437 " transform="matrix(0.0433335,0,0,0.0444446,0.459335,3.170284)"/>
<path style=" stroke:none;fill-rule:nonzero;fill:rgb(0%,0%,0%);fill-opacity:1;" d="M 8.402344 9.417969 C 8.402344 9.390625 8.441406 9.390625 8.441406 9.417969 L 8.441406 9.492188 L 8.402344 9.492188 L 8.402344 9.417969 "/>
<path style=" stroke:none;fill-rule:nonzero;fill:rgb(0%,0%,0%);fill-opacity:1;" d="M 8.171875 9.515625 C 8.171875 9.492188 8.207031 9.492188 8.207031 9.515625 L 8.207031 9.570312 L 8.171875 9.570312 L 8.171875 9.515625 "/>
<path style=" stroke:none;fill-rule:nonzero;fill:rgb(0%,0%,0%);fill-opacity:1;" d="M 8.632812 9.515625 C 8.632812 9.492188 8.667969 9.492188 8.667969 9.515625 L 8.667969 9.570312 L 8.632812 9.570312 L 8.632812 9.515625 "/>
<path style=" stroke:none;fill-rule:nonzero;fill:rgb(100%,100%,0%);fill-opacity:1;" d="M 9.023438 12.175781 C 8.859375 12 8.9375 11.839844 8.9375 11.839844 C 8.941406 11.835938 9.113281 11.746094 9.28125 11.917969 L 9.027344 12.179688 "/>
<path style="fill-rule:nonzero;fill:rgb(100%,100%,0%);fill-opacity:1;stroke-width:0.5;stroke-linecap:butt;stroke-linejoin:miter;stroke:rgb(0%,0%,0%);stroke-opacity:1;stroke-miterlimit:4;" d="M 186.815911 147.704206 L 186.118318 153.986711 L 190.334819 153.991868 C 190.287501 148.830211 194.307677 148.014008 194.307677 148.014008 C 194.43356 148.016041 198.345163 149.086215 198.390173 153.996083 L 202.606674 154.00124 L 201.792518 147.568446 L 186.814757 147.578311 Z M 185.804188 154.044575 L 202.796075 154.067237 C 203.11136 154.135266 203.365434 154.39112 203.368896 154.768802 C 203.373512 155.272379 203.06169 155.582031 202.809924 155.577965 L 185.755672 155.617234 C 185.503907 155.613168 185.186314 155.293351 185.181698 154.789775 C 185.178235 154.412093 185.490057 154.10244 185.867706 154.108539 Z M 185.804188 154.044575 " transform="matrix(0.0305342,-0.0315366,0.0307482,0.0313172,-1.531072,13.340075)"/>
<path style="fill-rule:nonzero;fill:rgb(100%,100%,0%);fill-opacity:1;stroke-width:0.5;stroke-linecap:butt;stroke-linejoin:miter;stroke:rgb(0%,0%,0%);stroke-opacity:1;stroke-miterlimit:4;" d="M 191.971297 154.018296 C 192.003655 150.68312 194.323834 149.776525 194.323834 149.776525 C 194.323834 149.776525 196.598959 150.82027 196.627812 153.967622 L 191.971297 154.018296 M 186.224625 144.988335 L 202.461215 144.998799 C 202.838864 145.004898 203.094092 145.386646 203.097554 145.764328 C 203.101016 146.14201 202.851559 146.389732 202.47391 146.383633 L 186.174956 146.4351 C 185.92319 146.431034 185.605597 146.111217 185.602135 145.733535 C 185.598673 145.355852 185.84813 145.10813 186.225779 145.114229 Z M 186.616123 146.505163 L 201.971532 146.501396 C 202.349181 146.507495 202.603255 146.763349 202.544353 147.202961 C 202.611334 147.644607 202.299512 147.95426 201.984227 147.88623 L 186.502935 147.887964 C 186.125286 147.881865 185.871212 147.626011 185.930114 147.186399 C 185.926652 146.808716 186.112591 146.497031 186.49024 146.50313 Z M 191.553342 135.885486 L 192.812172 135.905816 L 192.819096 136.66118 L 193.700277 136.675411 L 193.693352 135.920047 L 195.014546 135.878446 L 194.96026 136.821635 L 195.903805 136.773935 L 195.894572 135.766782 L 197.091037 135.849042 L 197.045984 137.799384 C 197.112965 138.24103 196.925872 138.426821 196.610587 138.358792 L 192.205839 138.413532 C 191.954073 138.409466 191.637635 138.215543 191.571808 137.899791 Z M 196.235247 138.604481 L 196.482353 144.96518 L 192.203487 145.021954 L 192.521123 138.481562 L 196.234093 138.478587 " transform="matrix(0.0305342,-0.0315366,0.0307482,0.0313172,-1.531072,13.340075)"/>
<path style="fill-rule:nonzero;fill:rgb(100%,100%,0%);fill-opacity:1;stroke-width:0.5;stroke-linecap:butt;stroke-linejoin:miter;stroke:rgb(0%,0%,0%);stroke-opacity:1;stroke-miterlimit:4;" d="M 191.03938 141.604517 L 190.944658 145.001624 L 186.979923 145.000533 L 186.948762 141.601393 Z M 191.03938 141.604517 " transform="matrix(0.0305342,-0.0315366,0.0307482,0.0313172,-1.531072,13.340075)"/>
<path style="fill-rule:nonzero;fill:rgb(100%,100%,0%);fill-opacity:1;stroke-width:0.5;stroke-linecap:butt;stroke-linejoin:miter;stroke:rgb(0%,0%,0%);stroke-opacity:1;stroke-miterlimit:4;" d="M 191.012392 141.649392 L 190.980034 144.984568 L 187.015299 144.983477 L 186.984139 141.584337 Z M 191.012392 141.649392 " transform="matrix(0.0305342,-0.0315366,0.0307482,0.0313172,-1.207409,13.005787)"/>
<path style="fill-rule:nonzero;fill:rgb(100%,100%,0%);fill-opacity:1;stroke-width:0.5;stroke-linecap:butt;stroke-linejoin:miter;stroke:rgb(0%,0%,0%);stroke-opacity:1;stroke-miterlimit:4;" d="M 186.295112 138.947453 L 187.491576 139.029713 L 187.500809 140.036866 L 188.444354 139.989166 L 188.435121 138.982014 L 189.568068 139.00031 L 189.577301 140.007463 L 190.520845 139.959763 L 190.511613 138.95261 L 191.708078 139.034871 L 191.663025 140.985212 C 191.730005 141.426858 191.542912 141.612649 191.165263 141.60655 L 186.948762 141.601393 C 186.571113 141.595294 186.317039 141.33944 186.313577 140.961758 Z M 186.295112 138.947453 " transform="matrix(0.0305342,-0.0315366,0.0307482,0.0313172,-1.531072,13.340075)"/>
<path style="fill-rule:nonzero;fill:rgb(100%,100%,0%);fill-opacity:1;stroke-width:0.5;stroke-linecap:butt;stroke-linejoin:miter;stroke:rgb(0%,0%,0%);stroke-opacity:1;stroke-miterlimit:4;" d="M 186.268124 138.992328 L 187.526953 139.012658 L 187.536186 140.01981 L 188.417366 140.034041 L 188.408134 139.026888 L 189.603444 138.983254 L 189.612677 139.990407 L 190.493858 140.004638 L 190.484625 138.997485 L 191.743454 139.017815 L 191.698401 140.968156 C 191.701863 141.345838 191.452406 141.59356 191.20064 141.589495 L 186.858256 141.582304 C 186.60649 141.578238 186.352416 141.322384 186.286589 141.006633 Z M 186.268124 138.992328 " transform="matrix(0.0305342,-0.0315366,0.0307482,0.0313172,-1.207409,13.005787)"/>
<path style=" stroke:none;fill-rule:nonzero;fill:rgb(0%,0%,0%);fill-opacity:1;" d="M 8.710938 11.628906 C 8.695312 11.609375 8.722656 11.582031 8.738281 11.601562 L 8.789062 11.648438 L 8.761719 11.679688 L 8.710938 11.628906 "/>
<path style=" stroke:none;fill-rule:nonzero;fill:rgb(0%,0%,0%);fill-opacity:1;" d="M 8.617188 11.863281 C 8.601562 11.84375 8.625 11.820312 8.644531 11.839844 L 8.679688 11.875 L 8.65625 11.902344 L 8.617188 11.863281 "/>
<path style=" stroke:none;fill-rule:nonzero;fill:rgb(0%,0%,0%);fill-opacity:1;" d="M 8.941406 11.53125 C 8.921875 11.511719 8.949219 11.484375 8.964844 11.503906 L 9.003906 11.542969 L 8.980469 11.566406 L 8.941406 11.53125 "/>
<path style=" stroke:none;fill-rule:nonzero;fill:rgb(100%,100%,0%);fill-opacity:1;" d="M 10.222656 7.976562 C 10.226562 7.730469 10.394531 7.671875 10.394531 7.671875 C 10.398438 7.671875 10.582031 7.734375 10.582031 7.980469 L 10.222656 7.980469 "/>
<path style="fill-rule:nonzero;fill:rgb(100%,100%,0%);fill-opacity:1;stroke-width:0.5;stroke-linecap:butt;stroke-linejoin:miter;stroke:rgb(0%,0%,0%);stroke-opacity:1;stroke-miterlimit:4;" d="M 186.781245 147.673367 L 186.060093 154.001472 L 190.296859 154.001472 C 190.296859 148.815941 194.263192 148.024928 194.263192 148.024928 C 194.44348 148.024928 198.31967 149.079612 198.409814 154.001472 L 202.556436 154.001472 L 201.835284 147.585476 L 186.781245 147.585476 Z M 185.789661 154.089362 L 202.826868 154.089362 C 203.097299 154.089362 203.367731 154.440924 203.367731 154.792485 C 203.367731 155.319827 203.097299 155.583498 202.826868 155.583498 L 185.789661 155.583498 C 185.519229 155.583498 185.158654 155.319827 185.158654 154.792485 C 185.158654 154.440924 185.519229 154.089362 185.879805 154.089362 Z M 185.789661 154.089362 " transform="matrix(0.0433335,0,0,0.0444446,1.98034,1.1125)"/>
<path style="fill-rule:nonzero;fill:rgb(100%,100%,0%);fill-opacity:1;stroke-width:0.5;stroke-linecap:butt;stroke-linejoin:miter;stroke:rgb(0%,0%,0%);stroke-opacity:1;stroke-miterlimit:4;" d="M 192.009594 154.001472 C 192.009594 150.661639 194.263192 149.782735 194.263192 149.782735 C 194.263192 149.782735 196.606935 150.837419 196.606935 154.001472 L 192.009594 154.001472 M 186.240381 145.036656 L 202.466292 145.036656 C 202.826868 145.036656 203.097299 145.388218 203.097299 145.827669 C 203.097299 146.09134 202.826868 146.442902 202.466292 146.442902 L 186.240381 146.442902 C 185.879805 146.442902 185.609373 146.09134 185.609373 145.739779 C 185.609373 145.388218 185.879805 145.124546 186.240381 145.124546 Z M 186.600957 146.530792 L 202.015572 146.530792 C 202.286004 146.530792 202.556436 146.794463 202.556436 147.233915 C 202.556436 147.585476 202.286004 147.937038 202.015572 147.937038 L 186.510813 147.937038 C 186.060093 147.937038 185.879805 147.585476 185.879805 147.233915 C 185.879805 146.794463 186.060093 146.530792 186.510813 146.530792 Z M 191.558874 135.89606 L 192.820889 135.89606 L 192.820889 136.687073 L 193.722329 136.687073 L 193.722329 135.89606 L 194.984344 135.89606 L 194.984344 136.774963 L 195.885784 136.774963 L 195.885784 135.808169 L 197.057655 135.808169 L 197.057655 137.829647 C 197.057655 138.181209 196.877367 138.35699 196.606935 138.35699 L 192.189882 138.35699 C 191.91945 138.35699 191.558874 138.181209 191.558874 137.917538 Z M 196.156215 138.620661 L 196.516791 145.036656 L 192.189882 145.036656 L 192.460313 138.53277 L 196.156215 138.53277 " transform="matrix(0.0433335,0,0,0.0444446,1.98034,1.1125)"/>
<path style="fill-rule:nonzero;fill:rgb(100%,100%,0%);fill-opacity:1;stroke-width:0.5;stroke-linecap:butt;stroke-linejoin:miter;stroke:rgb(0%,0%,0%);stroke-opacity:1;stroke-miterlimit:4;" d="M 191.01801 141.608932 L 191.01801 145.036656 L 186.961533 145.036656 L 186.961533 141.608932 Z M 191.01801 141.608932 " transform="matrix(0.0433335,0,0,0.0444446,1.98034,1.1125)"/>
<path style="fill-rule:nonzero;fill:rgb(100%,100%,0%);fill-opacity:1;stroke-width:0.5;stroke-linecap:butt;stroke-linejoin:miter;stroke:rgb(0%,0%,0%);stroke-opacity:1;stroke-miterlimit:4;" d="M 190.964852 141.608932 L 190.964852 145.036656 L 186.998519 145.036656 L 186.998519 141.608932 Z M 190.964852 141.608932 " transform="matrix(0.0433335,0,0,0.0444446,2.439674,1.1125)"/>
<path style="fill-rule:nonzero;fill:rgb(100%,100%,0%);fill-opacity:1;stroke-width:0.5;stroke-linecap:butt;stroke-linejoin:miter;stroke:rgb(0%,0%,0%);stroke-opacity:1;stroke-miterlimit:4;" d="M 186.330525 138.972222 L 187.502396 138.972222 L 187.502396 140.026906 L 188.403836 140.026906 L 188.403836 138.972222 L 189.575707 138.972222 L 189.575707 140.026906 L 190.477147 140.026906 L 190.477147 138.972222 L 191.739162 138.972222 L 191.739162 140.9937 C 191.739162 141.433152 191.46873 141.608932 191.198298 141.608932 L 186.871389 141.608932 C 186.600957 141.608932 186.330525 141.345261 186.330525 140.9937 Z M 186.330525 138.972222 " transform="matrix(0.0433335,0,0,0.0444446,1.98034,1.1125)"/>
<path style="fill-rule:nonzero;fill:rgb(100%,100%,0%);fill-opacity:1;stroke-width:0.5;stroke-linecap:butt;stroke-linejoin:miter;stroke:rgb(0%,0%,0%);stroke-opacity:1;stroke-miterlimit:4;" d="M 186.277367 138.972222 L 187.539382 138.972222 L 187.539382 140.026906 L 188.440822 140.026906 L 188.440822 138.972222 L 189.612693 138.972222 L 189.612693 140.026906 L 190.514133 140.026906 L 190.514133 138.972222 L 191.686004 138.972222 L 191.686004 140.9937 C 191.686004 141.433152 191.505716 141.608932 191.235284 141.608932 L 186.908375 141.608932 C 186.547799 141.608932 186.277367 141.345261 186.277367 140.9937 Z M 186.277367 138.972222 " transform="matrix(0.0433335,0,0,0.0444446,2.439674,1.1125)"/>
<path style=" stroke:none;fill-rule:nonzero;fill:rgb(0%,0%,0%);fill-opacity:1;" d="M 10.382812 7.363281 C 10.382812 7.335938 10.421875 7.335938 10.421875 7.363281 L 10.421875 7.433594 L 10.382812 7.433594 L 10.382812 7.363281 "/>
<path style=" stroke:none;fill-rule:nonzero;fill:rgb(0%,0%,0%);fill-opacity:1;" d="M 10.152344 7.460938 C 10.152344 7.433594 10.1875 7.433594 10.1875 7.460938 L 10.1875 7.511719 L 10.152344 7.511719 L 10.152344 7.460938 "/>
<path style=" stroke:none;fill-rule:nonzero;fill:rgb(0%,0%,0%);fill-opacity:1;" d="M 10.613281 7.460938 C 10.613281 7.433594 10.648438 7.433594 10.648438 7.460938 L 10.648438 7.511719 L 10.613281 7.511719 L 10.613281 7.460938 "/>
<path style=" stroke:none;fill-rule:nonzero;fill:rgb(100%,100%,0%);fill-opacity:1;" d="M 12.550781 7.976562 C 12.546875 7.730469 12.375 7.671875 12.375 7.671875 C 12.371094 7.671875 12.191406 7.734375 12.191406 7.980469 L 12.550781 7.980469 "/>
<path style="fill-rule:nonzero;fill:rgb(100%,100%,0%);fill-opacity:1;stroke-width:0.5;stroke-linecap:butt;stroke-linejoin:miter;stroke:rgb(0%,0%,0%);stroke-opacity:1;stroke-miterlimit:4;" d="M 186.832166 147.673367 L 186.111014 154.001472 L 190.257636 154.001472 C 190.257636 148.815941 194.314113 148.024928 194.314113 148.024928 C 194.404257 148.024928 198.280447 149.079612 198.370591 154.001472 L 202.607357 154.001472 L 201.796061 147.585476 L 186.832166 147.585476 Z M 185.840582 154.089362 L 202.787645 154.089362 C 203.058076 154.089362 203.418652 154.440924 203.418652 154.792485 C 203.418652 155.319827 203.058076 155.583498 202.787645 155.583498 L 185.840582 155.583498 C 185.480006 155.583498 185.209574 155.319827 185.209574 154.792485 C 185.209574 154.440924 185.480006 154.089362 185.930726 154.089362 Z M 185.840582 154.089362 " transform="matrix(-0.0433335,0,0,0.0444446,20.791398,1.1125)"/>
<path style="fill-rule:nonzero;fill:rgb(100%,100%,0%);fill-opacity:1;stroke-width:0.5;stroke-linecap:butt;stroke-linejoin:miter;stroke:rgb(0%,0%,0%);stroke-opacity:1;stroke-miterlimit:4;" d="M 191.970371 154.001472 C 191.970371 150.661639 194.314113 149.782735 194.314113 149.782735 C 194.314113 149.782735 196.567712 150.837419 196.567712 154.001472 L 191.970371 154.001472 M 186.201158 145.036656 L 202.517213 145.036656 C 202.787645 145.036656 203.058076 145.388218 203.058076 145.827669 C 203.058076 146.09134 202.787645 146.442902 202.517213 146.442902 L 186.201158 146.442902 C 185.930726 146.442902 185.57015 146.09134 185.57015 145.739779 C 185.57015 145.388218 185.930726 145.124546 186.201158 145.124546 Z M 186.561734 146.530792 L 201.976349 146.530792 C 202.336925 146.530792 202.607357 146.794463 202.607357 147.233915 C 202.607357 147.585476 202.336925 147.937038 201.976349 147.937038 L 186.47159 147.937038 C 186.111014 147.937038 185.930726 147.585476 185.930726 147.233915 C 185.930726 146.794463 186.111014 146.530792 186.47159 146.530792 Z M 191.609795 135.89606 L 192.781666 135.89606 L 192.781666 136.687073 L 193.683106 136.687073 L 193.683106 135.89606 L 195.035265 135.89606 L 195.035265 136.774963 L 195.936704 136.774963 L 195.936704 135.808169 L 197.108576 135.808169 L 197.108576 137.829647 C 197.108576 138.181209 196.928288 138.35699 196.567712 138.35699 L 192.240802 138.35699 C 191.880227 138.35699 191.609795 138.181209 191.609795 137.917538 Z M 196.207136 138.620661 L 196.477568 145.036656 L 192.240802 145.036656 L 192.511234 138.53277 L 196.207136 138.53277 " transform="matrix(-0.0433335,0,0,0.0444446,20.791398,1.1125)"/>
<path style="fill-rule:nonzero;fill:rgb(100%,100%,0%);fill-opacity:1;stroke-width:0.5;stroke-linecap:butt;stroke-linejoin:miter;stroke:rgb(0%,0%,0%);stroke-opacity:1;stroke-miterlimit:4;" d="M 190.978787 141.608932 L 190.978787 145.036656 L 187.012453 145.036656 L 187.012453 141.608932 Z M 190.978787 141.608932 " transform="matrix(-0.0433335,0,0,0.0444446,20.791398,1.1125)"/>
<path style="fill-rule:nonzero;fill:rgb(100%,100%,0%);fill-opacity:1;stroke-width:0.5;stroke-linecap:butt;stroke-linejoin:miter;stroke:rgb(0%,0%,0%);stroke-opacity:1;stroke-miterlimit:4;" d="M 191.015773 141.608932 L 191.015773 145.036656 L 186.959295 145.036656 L 186.959295 141.608932 Z M 191.015773 141.608932 " transform="matrix(-0.0433335,0,0,0.0444446,20.332064,1.1125)"/>
<path style="fill-rule:nonzero;fill:rgb(100%,100%,0%);fill-opacity:1;stroke-width:0.5;stroke-linecap:butt;stroke-linejoin:miter;stroke:rgb(0%,0%,0%);stroke-opacity:1;stroke-miterlimit:4;" d="M 186.291302 138.972222 L 187.463173 138.972222 L 187.463173 140.026906 L 188.364613 140.026906 L 188.364613 138.972222 L 189.626628 138.972222 L 189.626628 140.026906 L 190.528067 140.026906 L 190.528067 138.972222 L 191.699939 138.972222 L 191.699939 140.9937 C 191.699939 141.433152 191.519651 141.608932 191.159075 141.608932 L 186.922309 141.608932 C 186.561734 141.608932 186.291302 141.345261 186.291302 140.9937 Z M 186.291302 138.972222 " transform="matrix(-0.0433335,0,0,0.0444446,20.791398,1.1125)"/>
<path style="fill-rule:nonzero;fill:rgb(100%,100%,0%);fill-opacity:1;stroke-width:0.5;stroke-linecap:butt;stroke-linejoin:miter;stroke:rgb(0%,0%,0%);stroke-opacity:1;stroke-miterlimit:4;" d="M 186.328288 138.972222 L 187.500159 138.972222 L 187.500159 140.026906 L 188.401599 140.026906 L 188.401599 138.972222 L 189.57347 138.972222 L 189.57347 140.026906 L 190.474909 140.026906 L 190.474909 138.972222 L 191.736925 138.972222 L 191.736925 140.9937 C 191.736925 141.433152 191.466493 141.608932 191.196061 141.608932 L 186.869152 141.608932 C 186.59872 141.608932 186.328288 141.345261 186.328288 140.9937 Z M 186.328288 138.972222 " transform="matrix(-0.0433335,0,0,0.0444446,20.332064,1.1125)"/>
<path style=" stroke:none;fill-rule:nonzero;fill:rgb(0%,0%,0%);fill-opacity:1;" d="M 12.390625 7.363281 C 12.390625 7.335938 12.351562 7.335938 12.351562 7.363281 L 12.351562 7.433594 L 12.390625 7.433594 L 12.390625 7.363281 "/>
<path style=" stroke:none;fill-rule:nonzero;fill:rgb(0%,0%,0%);fill-opacity:1;" d="M 12.617188 7.460938 C 12.617188 7.433594 12.585938 7.433594 12.585938 7.460938 L 12.585938 7.511719 L 12.617188 7.511719 L 12.617188 7.460938 "/>
<path style=" stroke:none;fill-rule:nonzero;fill:rgb(0%,0%,0%);fill-opacity:1;" d="M 12.160156 7.460938 C 12.160156 7.433594 12.125 7.433594 12.125 7.460938 L 12.125 7.511719 L 12.160156 7.511719 L 12.160156 7.460938 "/>
<path style=" stroke:none;fill-rule:nonzero;fill:rgb(100%,100%,0%);fill-opacity:1;" d="M 12.550781 10.03125 C 12.546875 9.789062 12.375 9.730469 12.375 9.730469 C 12.371094 9.730469 12.191406 9.792969 12.191406 10.035156 L 12.550781 10.035156 "/>
<path style="fill-rule:nonzero;fill:rgb(100%,100%,0%);fill-opacity:1;stroke-width:0.5;stroke-linecap:butt;stroke-linejoin:miter;stroke:rgb(0%,0%,0%);stroke-opacity:1;stroke-miterlimit:4;" d="M 186.832166 147.691581 L 186.111014 154.019687 L 190.257636 154.019687 C 190.257636 148.834156 194.314113 148.043143 194.314113 148.043143 C 194.404257 148.043143 198.280447 149.097827 198.370591 154.019687 L 202.607357 154.019687 L 201.796061 147.603691 L 186.832166 147.603691 Z M 185.840582 154.107577 L 202.787645 154.107577 C 203.058076 154.107577 203.418652 154.371248 203.418652 154.8107 C 203.418652 155.338042 203.058076 155.601713 202.787645 155.601713 L 185.840582 155.601713 C 185.480006 155.601713 185.209574 155.338042 185.209574 154.8107 C 185.209574 154.371248 185.480006 154.107577 185.930726 154.107577 Z M 185.840582 154.107577 " transform="matrix(-0.0433335,0,0,0.0444446,20.791398,3.170284)"/>
<path style="fill-rule:nonzero;fill:rgb(100%,100%,0%);fill-opacity:1;stroke-width:0.5;stroke-linecap:butt;stroke-linejoin:miter;stroke:rgb(0%,0%,0%);stroke-opacity:1;stroke-miterlimit:4;" d="M 191.970371 154.019687 C 191.970371 150.679853 194.314113 149.80095 194.314113 149.80095 C 194.314113 149.80095 196.567712 150.767744 196.567712 154.019687 L 191.970371 154.019687 M 186.201158 144.96698 L 202.517213 144.96698 C 202.787645 144.96698 203.058076 145.406432 203.058076 145.757994 C 203.058076 146.109555 202.787645 146.373226 202.517213 146.373226 L 186.201158 146.373226 C 185.930726 146.373226 185.57015 146.109555 185.57015 145.670103 C 185.57015 145.406432 185.930726 145.142761 186.201158 145.142761 Z M 186.561734 146.461116 L 201.976349 146.461116 C 202.336925 146.461116 202.607357 146.812678 202.607357 147.164239 C 202.607357 147.603691 202.336925 147.867362 201.976349 147.867362 L 186.47159 147.867362 C 186.111014 147.867362 185.930726 147.603691 185.930726 147.164239 C 185.930726 146.812678 186.111014 146.461116 186.47159 146.461116 Z M 191.609795 135.914274 L 192.781666 135.914274 L 192.781666 136.705287 L 193.683106 136.705287 L 193.683106 135.914274 L 195.035265 135.914274 L 195.035265 136.793178 L 195.936704 136.793178 L 195.936704 135.826384 L 197.108576 135.826384 L 197.108576 137.759972 C 197.108576 138.199423 196.928288 138.375204 196.567712 138.375204 L 192.240802 138.375204 C 191.880227 138.375204 191.609795 138.199423 191.609795 137.935752 Z M 196.207136 138.638875 L 196.477568 144.96698 L 192.240802 144.96698 L 192.511234 138.463094 L 196.207136 138.463094 " transform="matrix(-0.0433335,0,0,0.0444446,20.791398,3.170284)"/>
<path style="fill-rule:nonzero;fill:rgb(100%,100%,0%);fill-opacity:1;stroke-width:0.5;stroke-linecap:butt;stroke-linejoin:miter;stroke:rgb(0%,0%,0%);stroke-opacity:1;stroke-miterlimit:4;" d="M 190.978787 141.627147 L 190.978787 144.96698 L 187.012453 144.96698 L 187.012453 141.627147 Z M 190.978787 141.627147 " transform="matrix(-0.0433335,0,0,0.0444446,20.791398,3.170284)"/>
<path style="fill-rule:nonzero;fill:rgb(100%,100%,0%);fill-opacity:1;stroke-width:0.5;stroke-linecap:butt;stroke-linejoin:miter;stroke:rgb(0%,0%,0%);stroke-opacity:1;stroke-miterlimit:4;" d="M 191.015773 141.627147 L 191.015773 144.96698 L 186.959295 144.96698 L 186.959295 141.627147 Z M 191.015773 141.627147 " transform="matrix(-0.0433335,0,0,0.0444446,20.332064,3.170284)"/>
<path style="fill-rule:nonzero;fill:rgb(100%,100%,0%);fill-opacity:1;stroke-width:0.5;stroke-linecap:butt;stroke-linejoin:miter;stroke:rgb(0%,0%,0%);stroke-opacity:1;stroke-miterlimit:4;" d="M 186.291302 138.990437 L 187.463173 138.990437 L 187.463173 139.95723 L 188.364613 139.95723 L 188.364613 138.990437 L 189.626628 138.990437 L 189.626628 139.95723 L 190.528067 139.95723 L 190.528067 138.990437 L 191.699939 138.990437 L 191.699939 141.011915 C 191.699939 141.363476 191.519651 141.627147 191.159075 141.627147 L 186.922309 141.627147 C 186.561734 141.627147 186.291302 141.363476 186.291302 141.011915 Z M 186.291302 138.990437 " transform="matrix(-0.0433335,0,0,0.0444446,20.791398,3.170284)"/>
<path style="fill-rule:nonzero;fill:rgb(100%,100%,0%);fill-opacity:1;stroke-width:0.5;stroke-linecap:butt;stroke-linejoin:miter;stroke:rgb(0%,0%,0%);stroke-opacity:1;stroke-miterlimit:4;" d="M 186.328288 138.990437 L 187.500159 138.990437 L 187.500159 139.95723 L 188.401599 139.95723 L 188.401599 138.990437 L 189.57347 138.990437 L 189.57347 139.95723 L 190.474909 139.95723 L 190.474909 138.990437 L 191.736925 138.990437 L 191.736925 141.011915 C 191.736925 141.363476 191.466493 141.627147 191.196061 141.627147 L 186.869152 141.627147 C 186.59872 141.627147 186.328288 141.363476 186.328288 141.011915 Z M 186.328288 138.990437 " transform="matrix(-0.0433335,0,0,0.0444446,20.332064,3.170284)"/>
<path style=" stroke:none;fill-rule:nonzero;fill:rgb(0%,0%,0%);fill-opacity:1;" d="M 12.390625 9.417969 C 12.390625 9.390625 12.351562 9.390625 12.351562 9.417969 L 12.351562 9.492188 L 12.390625 9.492188 L 12.390625 9.417969 "/>
<path style=" stroke:none;fill-rule:nonzero;fill:rgb(0%,0%,0%);fill-opacity:1;" d="M 12.617188 9.515625 C 12.617188 9.492188 12.585938 9.492188 12.585938 9.515625 L 12.585938 9.570312 L 12.617188 9.570312 L 12.617188 9.515625 "/>
<path style=" stroke:none;fill-rule:nonzero;fill:rgb(0%,0%,0%);fill-opacity:1;" d="M 12.160156 9.515625 C 12.160156 9.492188 12.125 9.492188 12.125 9.515625 L 12.125 9.570312 L 12.160156 9.570312 L 12.160156 9.515625 "/>
<path style=" stroke:none;fill-rule:nonzero;fill:rgb(100%,100%,0%);fill-opacity:1;" d="M 11.765625 12.175781 C 11.933594 12 11.855469 11.839844 11.855469 11.839844 C 11.851562 11.835938 11.679688 11.746094 11.511719 11.917969 L 11.765625 12.179688 "/>
<path style="fill-rule:nonzero;fill:rgb(100%,100%,0%);fill-opacity:1;stroke-width:0.5;stroke-linecap:butt;stroke-linejoin:miter;stroke:rgb(0%,0%,0%);stroke-opacity:1;stroke-miterlimit:4;" d="M 186.790375 147.67849 L 186.092781 153.960995 L 190.309283 153.966152 C 190.261965 148.804496 194.28214 147.988292 194.28214 147.988292 C 194.408023 147.990325 198.319627 149.060499 198.428155 154.034331 L 202.581137 153.975525 L 201.8305 147.606694 L 186.78922 147.552596 Z M 185.84217 154.082823 L 202.834057 154.105485 C 203.085823 154.109551 203.403416 154.429368 203.406878 154.80705 C 203.411494 155.310627 203.099672 155.620279 202.784388 155.55225 L 185.793654 155.655482 C 185.47837 155.587453 185.224296 155.331599 185.21968 154.828023 C 185.152699 154.386377 185.464521 154.076724 185.905688 154.146787 Z M 185.84217 154.082823 " transform="matrix(-0.0305342,-0.0315366,-0.0307482,0.0313172,22.32247,13.340075)"/>
<path style="fill-rule:nonzero;fill:rgb(100%,100%,0%);fill-opacity:1;stroke-width:0.5;stroke-linecap:butt;stroke-linejoin:miter;stroke:rgb(0%,0%,0%);stroke-opacity:1;stroke-miterlimit:4;" d="M 191.945761 153.992581 C 192.041637 150.721368 194.298297 149.750809 194.298297 149.750809 C 194.298297 149.750809 196.573423 150.794555 196.602275 153.941906 L 191.945761 153.992581 M 186.199088 144.96262 L 202.499197 145.037047 C 202.813327 144.979182 203.132074 145.424894 203.135536 145.802576 C 203.07548 146.116295 202.826022 146.364017 202.511892 146.421881 L 186.149419 146.409385 C 185.897653 146.405319 185.580061 146.085501 185.576598 145.707819 C 185.636655 145.3941 185.886112 145.146378 186.200242 145.088514 Z M 186.590586 146.479447 L 202.009514 146.539644 C 202.323644 146.481779 202.641237 146.801597 202.582335 147.241209 C 202.585797 147.618891 202.273975 147.928544 202.022209 147.924478 L 186.477398 147.862249 C 186.09975 147.85615 185.845675 147.600296 185.904578 147.160683 C 185.901115 146.783001 186.087055 146.471315 186.464703 146.477414 Z M 191.591324 135.923734 L 192.786635 135.8801 L 192.857078 136.699428 L 193.738259 136.713659 L 193.667816 135.894331 L 194.989009 135.85273 L 194.998242 136.859883 L 195.941787 136.812183 L 195.932554 135.80503 L 197.065501 135.823327 L 197.083966 137.837632 C 197.087428 138.215314 196.900335 138.401106 196.648569 138.39704 L 192.180302 138.387817 C 191.928536 138.383751 191.612098 138.189827 191.60979 137.938039 Z M 196.20971 138.578765 L 196.520335 145.003428 L 192.177951 144.996238 L 192.495587 138.455846 L 196.208556 138.452871 " transform="matrix(-0.0305342,-0.0315366,-0.0307482,0.0313172,22.32247,13.340075)"/>
<path style="fill-rule:nonzero;fill:rgb(100%,100%,0%);fill-opacity:1;stroke-width:0.5;stroke-linecap:butt;stroke-linejoin:miter;stroke:rgb(0%,0%,0%);stroke-opacity:1;stroke-miterlimit:4;" d="M 191.013844 141.578802 L 190.98264 145.039872 L 187.017904 145.038781 L 186.986744 141.639641 Z M 191.013844 141.578802 " transform="matrix(-0.0305342,-0.0315366,-0.0307482,0.0313172,22.32247,13.340075)"/>
<path style="fill-rule:nonzero;fill:rgb(100%,100%,0%);fill-opacity:1;stroke-width:0.5;stroke-linecap:butt;stroke-linejoin:miter;stroke:rgb(0%,0%,0%);stroke-opacity:1;stroke-miterlimit:4;" d="M 190.986856 141.623677 L 191.018016 145.022816 L 186.989763 144.957761 L 187.022121 141.622585 Z M 190.986856 141.623677 " transform="matrix(-0.0305342,-0.0315366,-0.0307482,0.0313172,21.998807,13.005787)"/>
<path style="fill-rule:nonzero;fill:rgb(100%,100%,0%);fill-opacity:1;stroke-width:0.5;stroke-linecap:butt;stroke-linejoin:miter;stroke:rgb(0%,0%,0%);stroke-opacity:1;stroke-miterlimit:4;" d="M 186.333094 138.985701 L 187.46604 139.003998 L 187.475273 140.01115 L 188.418818 139.963451 L 188.409585 138.956298 L 189.60605 139.038558 L 189.615282 140.045711 L 190.558827 139.998011 L 190.549595 138.990858 L 191.682541 139.009155 L 191.701006 141.02346 C 191.704469 141.401142 191.517376 141.586934 191.203245 141.644798 L 186.923226 141.575678 C 186.545577 141.569579 186.291503 141.313725 186.351559 141.000006 Z M 186.333094 138.985701 " transform="matrix(-0.0305342,-0.0315366,-0.0307482,0.0313172,22.32247,13.340075)"/>
<path style="fill-rule:nonzero;fill:rgb(100%,100%,0%);fill-opacity:1;stroke-width:0.5;stroke-linecap:butt;stroke-linejoin:miter;stroke:rgb(0%,0%,0%);stroke-opacity:1;stroke-miterlimit:4;" d="M 186.306106 139.030576 L 187.501416 138.986942 L 187.510649 139.994094 L 188.39183 140.008325 L 188.382597 139.001173 L 189.641426 139.021502 L 189.58714 139.964691 L 190.468321 139.978922 L 190.522607 139.035733 L 191.717918 138.992099 L 191.736383 141.006404 C 191.739845 141.384086 191.490388 141.631808 191.175103 141.563779 L 186.896238 141.620552 C 186.580953 141.552523 186.326879 141.296669 186.261053 140.980917 Z M 186.306106 139.030576 " transform="matrix(-0.0305342,-0.0315366,-0.0307482,0.0313172,21.998807,13.005787)"/>
<path style=" stroke:none;fill-rule:nonzero;fill:rgb(0%,0%,0%);fill-opacity:1;" d="M 12.078125 11.628906 C 12.097656 11.609375 12.070312 11.582031 12.050781 11.601562 L 12.003906 11.648438 L 12.03125 11.679688 L 12.078125 11.628906 "/>
<path style=" stroke:none;fill-rule:nonzero;fill:rgb(0%,0%,0%);fill-opacity:1;" d="M 12.171875 11.863281 C 12.191406 11.84375 12.167969 11.820312 12.148438 11.839844 L 12.113281 11.875 L 12.136719 11.902344 L 12.171875 11.863281 "/>
<path style=" stroke:none;fill-rule:nonzero;fill:rgb(0%,0%,0%);fill-opacity:1;" d="M 11.847656 11.53125 C 11.867188 11.511719 11.84375 11.484375 11.824219 11.503906 L 11.789062 11.542969 L 11.8125 11.566406 L 11.847656 11.53125 "/>
<path style=" stroke:none;fill-rule:nonzero;fill:rgb(0%,20%,60%);fill-opacity:1;" d="M 10.078125 10.109375 C 10.078125 10.203125 10.113281 10.292969 10.175781 10.363281 C 10.234375 10.429688 10.316406 10.46875 10.40625 10.46875 C 10.496094 10.46875 10.578125 10.421875 10.632812 10.363281 C 10.695312 10.292969 10.730469 10.203125 10.730469 10.109375 L 10.730469 9.628906 L 10.078125 9.628906 L 10.078125 10.109375 "/>
<path style=" stroke:none;fill-rule:nonzero;fill:rgb(100%,100%,100%);fill-opacity:1;" d="M 10.296875 9.808594 C 10.296875 9.847656 10.265625 9.878906 10.230469 9.878906 C 10.195312 9.878906 10.167969 9.847656 10.167969 9.808594 C 10.167969 9.773438 10.195312 9.742188 10.230469 9.742188 C 10.265625 9.742188 10.296875 9.773438 10.296875 9.808594 Z M 10.296875 9.808594 "/>
<path style=" stroke:none;fill-rule:nonzero;fill:rgb(100%,100%,100%);fill-opacity:1;" d="M 10.65625 9.808594 C 10.65625 9.847656 10.625 9.878906 10.589844 9.878906 C 10.554688 9.878906 10.527344 9.847656 10.527344 9.808594 C 10.527344 9.773438 10.554688 9.742188 10.589844 9.742188 C 10.625 9.742188 10.65625 9.773438 10.65625 9.808594 Z M 10.65625 9.808594 "/>
<path style=" stroke:none;fill-rule:nonzero;fill:rgb(100%,100%,100%);fill-opacity:1;" d="M 10.472656 9.988281 C 10.472656 10.023438 10.445312 10.054688 10.410156 10.054688 C 10.371094 10.054688 10.34375 10.023438 10.34375 9.988281 C 10.34375 9.953125 10.371094 9.921875 10.410156 9.921875 C 10.445312 9.921875 10.472656 9.953125 10.472656 9.988281 Z M 10.472656 9.988281 "/>
<path style=" stroke:none;fill-rule:nonzero;fill:rgb(100%,100%,100%);fill-opacity:1;" d="M 10.296875 10.175781 C 10.296875 10.210938 10.265625 10.242188 10.230469 10.242188 C 10.195312 10.242188 10.167969 10.210938 10.167969 10.175781 C 10.167969 10.136719 10.195312 10.109375 10.230469 10.109375 C 10.265625 10.109375 10.296875 10.136719 10.296875 10.175781 Z M 10.296875 10.175781 "/>
<path style=" stroke:none;fill-rule:nonzero;fill:rgb(100%,100%,100%);fill-opacity:1;" d="M 10.65625 10.175781 C 10.65625 10.210938 10.625 10.242188 10.589844 10.242188 C 10.554688 10.242188 10.527344 10.210938 10.527344 10.175781 C 10.527344 10.136719 10.554688 10.109375 10.589844 10.109375 C 10.625 10.109375 10.65625 10.136719 10.65625 10.175781 Z M 10.65625 10.175781 "/>
<path style=" stroke:none;fill-rule:nonzero;fill:rgb(0%,20%,60%);fill-opacity:1;" d="M 10.078125 8.953125 C 10.078125 9.046875 10.113281 9.136719 10.175781 9.207031 C 10.234375 9.273438 10.316406 9.3125 10.40625 9.3125 C 10.496094 9.3125 10.578125 9.269531 10.632812 9.207031 C 10.695312 9.136719 10.730469 9.046875 10.730469 8.953125 L 10.730469 8.472656 L 10.078125 8.472656 L 10.078125 8.953125 "/>
<path style=" stroke:none;fill-rule:nonzero;fill:rgb(100%,100%,100%);fill-opacity:1;" d="M 10.296875 8.65625 C 10.296875 8.691406 10.265625 8.722656 10.230469 8.722656 C 10.195312 8.722656 10.167969 8.691406 10.167969 8.65625 C 10.167969 8.617188 10.195312 8.589844 10.230469 8.589844 C 10.265625 8.589844 10.296875 8.617188 10.296875 8.65625 Z M 10.296875 8.65625 "/>
<path style=" stroke:none;fill-rule:nonzero;fill:rgb(100%,100%,100%);fill-opacity:1;" d="M 10.65625 8.65625 C 10.65625 8.691406 10.625 8.722656 10.589844 8.722656 C 10.554688 8.722656 10.527344 8.691406 10.527344 8.65625 C 10.527344 8.617188 10.554688 8.589844 10.589844 8.589844 C 10.625 8.589844 10.65625 8.617188 10.65625 8.65625 Z M 10.65625 8.65625 "/>
<path style=" stroke:none;fill-rule:nonzero;fill:rgb(100%,100%,100%);fill-opacity:1;" d="M 10.472656 8.832031 C 10.472656 8.871094 10.445312 8.898438 10.410156 8.898438 C 10.371094 8.898438 10.34375 8.871094 10.34375 8.832031 C 10.34375 8.796875 10.371094 8.765625 10.410156 8.765625 C 10.445312 8.765625 10.472656 8.796875 10.472656 8.832031 Z M 10.472656 8.832031 "/>
<path style=" stroke:none;fill-rule:nonzero;fill:rgb(100%,100%,100%);fill-opacity:1;" d="M 10.296875 9.019531 C 10.296875 9.054688 10.265625 9.085938 10.230469 9.085938 C 10.195312 9.085938 10.167969 9.054688 10.167969 9.019531 C 10.167969 8.980469 10.195312 8.953125 10.230469 8.953125 C 10.265625 8.953125 10.296875 8.980469 10.296875 9.019531 Z M 10.296875 9.019531 "/>
<path style=" stroke:none;fill-rule:nonzero;fill:rgb(100%,100%,100%);fill-opacity:1;" d="M 10.65625 9.019531 C 10.65625 9.054688 10.625 9.085938 10.589844 9.085938 C 10.554688 9.085938 10.527344 9.054688 10.527344 9.019531 C 10.527344 8.980469 10.554688 8.953125 10.589844 8.953125 C 10.625 8.953125 10.65625 8.980469 10.65625 9.019531 Z M 10.65625 9.019531 "/>
<path style=" stroke:none;fill-rule:nonzero;fill:rgb(0%,20%,60%);fill-opacity:1;" d="M 9.179688 10.109375 C 9.175781 10.203125 9.210938 10.292969 9.273438 10.363281 C 9.332031 10.429688 9.414062 10.46875 9.503906 10.46875 C 9.59375 10.46875 9.675781 10.421875 9.734375 10.363281 C 9.792969 10.292969 9.828125 10.203125 9.828125 10.109375 L 9.828125 9.628906 L 9.179688 9.628906 L 9.179688 10.109375 "/>
<path style=" stroke:none;fill-rule:nonzero;fill:rgb(100%,100%,100%);fill-opacity:1;" d="M 9.394531 9.808594 C 9.394531 9.847656 9.367188 9.878906 9.328125 9.878906 C 9.292969 9.878906 9.265625 9.847656 9.265625 9.808594 C 9.265625 9.773438 9.292969 9.742188 9.328125 9.742188 C 9.367188 9.742188 9.394531 9.773438 9.394531 9.808594 Z M 9.394531 9.808594 "/>
<path style=" stroke:none;fill-rule:nonzero;fill:rgb(100%,100%,100%);fill-opacity:1;" d="M 9.753906 9.808594 C 9.753906 9.847656 9.726562 9.878906 9.6875 9.878906 C 9.652344 9.878906 9.625 9.847656 9.625 9.808594 C 9.625 9.773438 9.652344 9.742188 9.6875 9.742188 C 9.726562 9.742188 9.753906 9.773438 9.753906 9.808594 Z M 9.753906 9.808594 "/>
<path style=" stroke:none;fill-rule:nonzero;fill:rgb(100%,100%,100%);fill-opacity:1;" d="M 9.574219 9.988281 C 9.574219 10.023438 9.542969 10.054688 9.507812 10.054688 C 9.472656 10.054688 9.441406 10.023438 9.441406 9.988281 C 9.441406 9.953125 9.472656 9.921875 9.507812 9.921875 C 9.542969 9.921875 9.574219 9.953125 9.574219 9.988281 Z M 9.574219 9.988281 "/>
<path style=" stroke:none;fill-rule:nonzero;fill:rgb(100%,100%,100%);fill-opacity:1;" d="M 9.394531 10.175781 C 9.394531 10.210938 9.367188 10.242188 9.328125 10.242188 C 9.292969 10.242188 9.265625 10.210938 9.265625 10.175781 C 9.265625 10.136719 9.292969 10.109375 9.328125 10.109375 C 9.367188 10.109375 9.394531 10.136719 9.394531 10.175781 Z M 9.394531 10.175781 "/>
<path style=" stroke:none;fill-rule:nonzero;fill:rgb(100%,100%,100%);fill-opacity:1;" d="M 9.753906 10.175781 C 9.753906 10.210938 9.726562 10.242188 9.6875 10.242188 C 9.652344 10.242188 9.625 10.210938 9.625 10.175781 C 9.625 10.136719 9.652344 10.109375 9.6875 10.109375 C 9.726562 10.109375 9.753906 10.136719 9.753906 10.175781 Z M 9.753906 10.175781 "/>
<path style=" stroke:none;fill-rule:nonzero;fill:rgb(0%,20%,60%);fill-opacity:1;" d="M 10.980469 10.109375 C 10.980469 10.203125 11.015625 10.292969 11.074219 10.363281 C 11.132812 10.429688 11.21875 10.46875 11.304688 10.46875 C 11.398438 10.46875 11.480469 10.421875 11.535156 10.363281 C 11.597656 10.292969 11.632812 10.203125 11.628906 10.109375 L 11.628906 9.628906 L 10.980469 9.628906 L 10.980469 10.109375 "/>
<path style=" stroke:none;fill-rule:nonzero;fill:rgb(100%,100%,100%);fill-opacity:1;" d="M 11.199219 9.808594 C 11.199219 9.847656 11.167969 9.878906 11.132812 9.878906 C 11.097656 9.878906 11.066406 9.847656 11.066406 9.808594 C 11.066406 9.773438 11.097656 9.742188 11.132812 9.742188 C 11.167969 9.742188 11.199219 9.773438 11.199219 9.808594 Z M 11.199219 9.808594 "/>
<path style=" stroke:none;fill-rule:nonzero;fill:rgb(100%,100%,100%);fill-opacity:1;" d="M 11.558594 9.808594 C 11.558594 9.847656 11.527344 9.878906 11.492188 9.878906 C 11.457031 9.878906 11.425781 9.847656 11.425781 9.808594 C 11.425781 9.773438 11.457031 9.742188 11.492188 9.742188 C 11.527344 9.742188 11.558594 9.773438 11.558594 9.808594 Z M 11.558594 9.808594 "/>
<path style=" stroke:none;fill-rule:nonzero;fill:rgb(100%,100%,100%);fill-opacity:1;" d="M 11.375 9.988281 C 11.375 10.023438 11.347656 10.054688 11.308594 10.054688 C 11.273438 10.054688 11.246094 10.023438 11.246094 9.988281 C 11.246094 9.953125 11.273438 9.921875 11.308594 9.921875 C 11.347656 9.921875 11.375 9.953125 11.375 9.988281 Z M 11.375 9.988281 "/>
<path style=" stroke:none;fill-rule:nonzero;fill:rgb(100%,100%,100%);fill-opacity:1;" d="M 11.199219 10.175781 C 11.199219 10.210938 11.167969 10.242188 11.132812 10.242188 C 11.097656 10.242188 11.066406 10.210938 11.066406 10.175781 C 11.066406 10.136719 11.097656 10.109375 11.132812 10.109375 C 11.167969 10.109375 11.199219 10.136719 11.199219 10.175781 Z M 11.199219 10.175781 "/>
<path style=" stroke:none;fill-rule:nonzero;fill:rgb(100%,100%,100%);fill-opacity:1;" d="M 11.558594 10.175781 C 11.558594 10.210938 11.527344 10.242188 11.492188 10.242188 C 11.457031 10.242188 11.425781 10.210938 11.425781 10.175781 C 11.425781 10.136719 11.457031 10.109375 11.492188 10.109375 C 11.527344 10.109375 11.558594 10.136719 11.558594 10.175781 Z M 11.558594 10.175781 "/>
<path style=" stroke:none;fill-rule:nonzero;fill:rgb(0%,20%,60%);fill-opacity:1;" d="M 10.078125 11.253906 C 10.078125 11.347656 10.113281 11.4375 10.175781 11.507812 C 10.234375 11.574219 10.316406 11.613281 10.40625 11.613281 C 10.496094 11.613281 10.578125 11.570312 10.632812 11.507812 C 10.695312 11.4375 10.730469 11.347656 10.730469 11.253906 L 10.730469 10.773438 L 10.078125 10.773438 L 10.078125 11.253906 "/>
<path style=" stroke:none;fill-rule:nonzero;fill:rgb(100%,100%,100%);fill-opacity:1;" d="M 10.296875 10.957031 C 10.296875 10.992188 10.265625 11.023438 10.230469 11.023438 C 10.195312 11.023438 10.167969 10.992188 10.167969 10.957031 C 10.167969 10.921875 10.195312 10.890625 10.230469 10.890625 C 10.265625 10.890625 10.296875 10.921875 10.296875 10.957031 Z M 10.296875 10.957031 "/>
<path style=" stroke:none;fill-rule:nonzero;fill:rgb(100%,100%,100%);fill-opacity:1;" d="M 10.65625 10.957031 C 10.65625 10.992188 10.625 11.023438 10.589844 11.023438 C 10.554688 11.023438 10.527344 10.992188 10.527344 10.957031 C 10.527344 10.921875 10.554688 10.890625 10.589844 10.890625 C 10.625 10.890625 10.65625 10.921875 10.65625 10.957031 Z M 10.65625 10.957031 "/>
<path style=" stroke:none;fill-rule:nonzero;fill:rgb(100%,100%,100%);fill-opacity:1;" d="M 10.472656 11.132812 C 10.472656 11.171875 10.445312 11.203125 10.410156 11.203125 C 10.371094 11.203125 10.34375 11.171875 10.34375 11.132812 C 10.34375 11.097656 10.371094 11.066406 10.410156 11.066406 C 10.445312 11.066406 10.472656 11.097656 10.472656 11.132812 Z M 10.472656 11.132812 "/>
<path style=" stroke:none;fill-rule:nonzero;fill:rgb(100%,100%,100%);fill-opacity:1;" d="M 10.296875 11.320312 C 10.296875 11.359375 10.265625 11.386719 10.230469 11.386719 C 10.195312 11.386719 10.167969 11.359375 10.167969 11.320312 C 10.167969 11.285156 10.195312 11.253906 10.230469 11.253906 C 10.265625 11.253906 10.296875 11.285156 10.296875 11.320312 Z M 10.296875 11.320312 "/>
<path style=" stroke:none;fill-rule:nonzero;fill:rgb(100%,100%,100%);fill-opacity:1;" d="M 10.65625 11.320312 C 10.65625 11.359375 10.625 11.386719 10.589844 11.386719 C 10.554688 11.386719 10.527344 11.359375 10.527344 11.320312 C 10.527344 11.285156 10.554688 11.253906 10.589844 11.253906 C 10.625 11.253906 10.65625 11.285156 10.65625 11.320312 Z M 10.65625 11.320312 "/>
</g>
</svg>
