<svg width="90" height="90" viewBox="0 0 90 90" fill="none" xmlns="http://www.w3.org/2000/svg">
<path fill-rule="evenodd" clip-rule="evenodd" d="M3.75 11.25C3.75 9.17895 5.42895 7.5 7.5 7.5C13.593 7.5 19.0025 11.3989 20.9293 17.1793L21.4528 18.75H67.6125C70.0721 18.7499 72.1639 18.7498 73.8566 18.9011C75.6187 19.0585 77.3801 19.4067 78.99 20.3844C81.2501 21.7569 82.9541 23.8814 83.8039 26.3852C84.4091 28.1688 84.3667 29.9639 84.1384 31.7181C83.9186 33.4033 83.4649 35.4453 82.9312 37.8465L81.783 43.014C81.24 45.4568 80.7881 47.4904 80.2897 49.1411C79.7685 50.8684 79.1272 52.4261 78.0866 53.85C76.5217 55.9912 74.4172 57.6795 71.9876 58.7423C70.3717 59.4495 68.712 59.7375 66.9127 59.8717C65.1934 60 63.1106 60 60.6079 60H40.6421C38.1394 60 36.0567 60 34.3371 59.8717C32.5379 59.7375 30.8783 59.4495 29.2623 58.7423C26.8326 57.6795 24.7282 55.9912 23.1634 53.85C22.1228 52.4261 21.4816 50.8684 20.9602 49.1411C20.4618 47.4904 20.0101 45.4571 19.4672 43.014L15.1312 23.5023L13.8141 19.551C12.9082 16.8332 10.3648 15 7.5 15C5.42895 15 3.75 13.321 3.75 11.25ZM23.4248 26.25L26.7588 41.253C27.3391 43.8641 27.7323 45.6225 28.1401 46.9736C28.534 48.2783 28.8712 48.9491 29.2189 49.425C30.0013 50.4956 31.0535 51.3397 32.2684 51.8711C32.8083 52.1074 33.5363 52.2911 34.8955 52.3924C36.3028 52.4978 38.1045 52.5 40.7794 52.5H60.4706C63.1455 52.5 64.947 52.4978 66.3544 52.3924C67.7137 52.2911 68.4416 52.1074 68.9816 51.8711C70.1966 51.3397 71.2489 50.4956 72.0311 49.425C72.3787 48.9491 72.7159 48.2783 73.11 46.9736C73.5176 45.6225 73.911 43.8641 74.4911 41.253L75.5737 36.381C76.1531 33.7744 76.53 32.0619 76.701 30.749C76.8682 29.4675 76.7707 28.9992 76.7014 28.795C76.4182 27.9605 75.8501 27.2523 75.0971 26.7948C74.9126 26.6829 74.4769 26.4863 73.1895 26.3713C71.8706 26.2535 70.1171 26.25 67.4471 26.25H23.4248Z" fill="black"/>
<path d="M41.25 71.25C41.25 75.3923 37.8922 78.75 33.75 78.75C29.6079 78.75 26.25 75.3923 26.25 71.25C26.25 67.1078 29.6079 63.75 33.75 63.75C37.8922 63.75 41.25 67.1078 41.25 71.25Z" fill="black"/>
<path d="M67.5 78.75C71.6422 78.75 75 75.3923 75 71.25C75 67.1078 71.6422 63.75 67.5 63.75C63.3577 63.75 60 67.1078 60 71.25C60 75.3923 63.3577 78.75 67.5 78.75Z" fill="black"/>
</svg>
