<svg width="49" height="49" viewBox="0 0 49 49" fill="none" xmlns="http://www.w3.org/2000/svg">
<path d="M19.4482 1.59532C11.4714 3.57051 3.79853 12.3069 3.79853 19.448C3.79853 20.2837 3.11481 21.4992 2.27915 22.2589C1.06365 23.2465 0.759766 24.462 0.759766 28.2604C0.759766 33.6542 1.13961 34.5659 3.8745 35.5535C7.52099 36.9968 8.35666 35.6294 8.35666 28.4124C8.35666 23.3984 8.12876 21.879 7.21713 21.5752C4.33031 20.4356 7.14118 12.6108 12.0032 8.20462C14.814 5.62167 21.0435 3.03872 24.3102 3.03872C27.5768 3.03872 33.8063 5.62167 36.6171 8.20462C41.4791 12.6108 44.29 20.4356 41.4032 21.5752C40.4916 21.879 40.2636 23.3984 40.2636 28.4124C40.2636 34.186 40.4156 34.9457 41.859 35.7054C43.0745 36.3891 43.3024 36.9968 42.9226 38.5922C42.1628 41.479 41.2512 42.4666 38.2884 42.9984C36.3892 43.3782 35.2497 43.1503 34.2621 42.2387C33.1985 41.3271 31.7551 41.0232 29.2482 41.1752C26.2854 41.3271 25.5256 41.7069 24.9939 43.1503C23.9303 45.9612 26.7412 48.1643 30.6156 47.6325C32.2869 47.4046 33.8822 46.8728 34.1102 46.493C34.3381 46.1131 36.1613 45.5814 38.0605 45.2775C42.3148 44.6697 44.5179 42.5426 45.2776 38.3643C45.5815 36.693 46.2652 34.8697 46.8729 34.338C48.4683 32.6666 48.1644 23.9302 46.4171 22.2589C45.6575 21.4992 44.8218 19.6 44.5939 18.0806C42.8466 6.83717 30.6156 -1.21554 19.4482 1.59532ZM6.07759 28.1845C6.07759 32.8945 5.92564 33.5023 4.78612 33.2744C2.12721 32.8186 2.73496 22.7907 5.39388 22.7907C5.77374 22.7907 6.07759 25.2217 6.07759 28.1845ZM44.7458 23.8542C45.2776 24.462 45.5815 26.6651 45.4296 29.0201C45.2776 32.1348 44.8977 33.1224 43.9102 33.2744C42.6947 33.5023 42.5427 32.8945 42.5427 28.1845C42.5427 22.7907 43.0745 21.8031 44.7458 23.8542ZM32.5148 44.2139C31.983 45.7333 27.3489 45.9612 27.3489 44.5178C27.3489 43.6061 28.1086 43.3023 30.0838 43.3023C31.907 43.3023 32.6668 43.6061 32.5148 44.2139Z" fill="white"/>
<path d="M13.6744 13.6744C12.3829 14.9659 12.155 16.1814 12.155 21.955C12.155 28.4884 12.231 28.7922 14.2821 30.3876C15.4217 31.2992 16.4853 32.7427 16.7132 33.5783C16.9411 34.4899 17.7007 35.5535 18.3845 36.0093C19.4481 36.6171 20.2077 36.3132 22.2589 34.338C24.386 32.2869 25.2976 31.907 28.6403 31.907C31.3752 31.907 33.0465 31.4512 34.4899 30.3116C36.3891 28.8682 36.4651 28.4124 36.4651 21.955C36.4651 12.3829 36.1612 12.155 24.31 12.155C16.1813 12.155 15.0418 12.307 13.6744 13.6744ZM33.2744 15.3457C33.8062 15.8775 34.186 18.6124 34.186 22.1829C34.186 29.0201 33.6542 29.6279 27.6527 29.6279C24.6139 29.6279 23.6263 30.0078 21.4992 32.0589L18.9922 34.4899V32.2108C18.9922 30.3876 18.5364 29.7799 16.7132 29.0962C14.4341 28.2605 14.4341 28.1845 14.4341 22.2589C14.4341 18.6124 14.8139 15.8775 15.3457 15.3457C16.5612 14.1302 32.0589 14.1302 33.2744 15.3457Z" fill="white"/>
<path d="M17.4729 22.031C17.4729 23.1705 17.8528 23.5503 18.8403 23.3984C19.5241 23.2464 20.1318 22.6387 20.1318 22.031C20.1318 21.4232 19.5241 20.8154 18.8403 20.6635C17.8528 20.5116 17.4729 20.8914 17.4729 22.031Z" fill="white"/>
<path d="M22.7908 22.0311C22.7908 23.0187 23.3225 23.5505 24.3102 23.5505C25.2977 23.5505 25.8295 23.0187 25.8295 22.0311C25.8295 21.0435 25.2977 20.5117 24.3102 20.5117C23.3225 20.5117 22.7908 21.0435 22.7908 22.0311Z" fill="white"/>
<path d="M28.4885 21.2712C27.8808 22.3348 28.7164 23.5503 30.0839 23.5503C30.6916 23.5503 31.1475 22.8666 31.1475 22.0309C31.1475 20.4356 29.3242 19.9038 28.4885 21.2712Z" fill="white"/>
</svg>
