<svg width="86" height="86" viewBox="0 0 86 86" fill="none" xmlns="http://www.w3.org/2000/svg">
<path d="M84.2627 59.2925H78.6161V14.9724C78.6161 11.1644 75.5181 8.06636 71.7101 8.06636H14.2899C10.4819 8.06636 7.38391 11.1644 7.38391 14.9724V59.2925H1.7373C0.777863 59.2925 0 60.0703 0 61.0298V63.5199C0 68.3737 3.94895 72.3226 8.80274 72.3226H71.2325L76.3347 77.4249C76.674 77.764 77.1187 77.9338 77.5633 77.9338C78.0079 77.9338 78.4525 77.764 78.7918 77.4249L84.3201 71.8967C84.6458 71.571 84.8291 71.1289 84.8291 70.6681C84.8291 70.2074 84.646 69.7656 84.3201 69.4396L83.9887 69.1086C85.2431 67.5871 86 65.6413 86 63.5201V61.0298C86 60.0703 85.222 59.2925 84.2627 59.2925ZM10.8585 14.9724C10.8585 13.0802 12.3978 11.5411 14.2898 11.5411H71.7101C73.6022 11.5411 75.1413 13.0802 75.1413 14.9724V59.2925H74.173L60.4306 45.5503H68.6088C69.5683 45.5503 70.3461 44.7722 70.3461 43.813C70.3461 42.8537 69.5681 42.0757 68.6088 42.0757H60.4273C61.877 38.0547 61.9383 33.642 60.6102 29.5879H61.7636C62.7231 29.5879 63.5009 28.8098 63.5009 27.8506C63.5009 26.8911 62.7229 26.1133 61.7636 26.1133H59.0716C58.2448 24.6597 57.2135 23.2914 55.9751 22.053C55.8792 21.957 55.7821 21.8631 55.6847 21.7698H68.609C69.5685 21.7698 70.3463 20.9917 70.3463 20.0325C70.3463 19.073 69.5683 18.2952 68.609 18.2952H51.0615C50.9429 18.2952 50.8272 18.3071 50.7153 18.3299C45.5367 15.8561 39.4673 15.8442 34.2802 18.2952H24.3407C23.3811 18.2952 22.6034 19.0732 22.6034 20.0325C22.6034 20.9919 23.3813 21.7698 24.3407 21.7698H29.2383C29.1409 21.8631 29.0436 21.957 28.9479 22.053C27.7206 23.2803 26.6813 24.6454 25.8432 26.1133H21.0223C20.0627 26.1133 19.285 26.8913 19.285 27.8506C19.285 28.81 20.0629 29.5879 21.0223 29.5879H24.2999C23.8415 30.985 23.5459 32.4406 23.4202 33.9314H16.9395C15.9799 33.9314 15.2022 34.7094 15.2022 35.6687C15.2022 36.6281 15.98 37.406 16.9395 37.406H23.438C23.5796 38.8982 23.8937 40.3535 24.3694 41.7495H21.0223C20.0627 41.7495 19.285 42.5275 19.285 43.4868C19.285 44.446 20.0629 45.2241 21.0223 45.2241H25.9626C26.7793 46.6142 27.7778 47.9097 28.9479 49.0798C29.1147 49.2466 29.2845 49.4082 29.4557 49.5674H21.0223C20.0627 49.5674 19.285 50.3454 19.285 51.3047C19.285 52.264 20.0629 53.042 21.0223 53.042H34.7277C37.1836 54.1254 39.8224 54.6681 42.4615 54.6681C45.5306 54.6681 48.5992 53.9351 51.3803 52.4701L58.2023 59.2921H10.8585V14.9724ZM53.518 46.6226C47.4214 52.7197 37.5015 52.7193 31.4048 46.6227C28.4514 43.6695 26.8251 39.7429 26.8251 35.5662C26.8251 31.3895 28.4514 27.4629 31.4048 24.5095C34.4532 21.461 38.4573 19.937 42.4615 19.937C46.4657 19.937 50.4699 21.461 53.5182 24.5095C59.6146 30.6063 59.6146 40.5262 53.518 46.6226ZM8.80274 68.8479C5.8648 68.8479 3.47477 66.4578 3.47477 63.5199V62.7671H61.6769L67.7577 68.8479H8.80274ZM77.5631 73.7393L54.3518 50.5279C54.9134 50.0811 55.4559 49.599 55.9752 49.08C56.4946 48.5608 56.9762 48.0181 57.423 47.4565L80.6346 70.6681L77.5631 73.7393ZM82.5252 63.5199C82.5252 64.6824 82.149 65.7572 81.5144 66.6339L77.6478 62.7672H82.5252V63.5199Z" fill="black"/>
<path d="M47.9645 31.6512H39.8553V29.9139C39.8553 28.4769 41.0244 27.3079 42.4613 27.3079C43.1782 27.3079 43.8466 27.5931 44.3429 28.1107C45.0069 28.8031 46.1066 28.8261 46.7995 28.1623C47.492 27.4983 47.515 26.3985 46.851 25.7058C45.6931 24.4981 44.1341 23.8331 42.4613 23.8331C39.1083 23.8331 36.3805 26.5609 36.3805 29.9139V31.7135C35.1411 31.9797 34.2089 33.083 34.2089 34.4007V42.8008C34.2089 44.3169 35.4423 45.5503 36.9582 45.5503H47.9645C49.4806 45.5503 50.714 44.3167 50.714 42.801V34.4008C50.714 32.8846 49.4806 31.6512 47.9645 31.6512ZM47.2392 42.0753H37.6836V35.1258H47.2392V42.0753Z" fill="black"/>
<path d="M16.9394 21.7694H16.9895C17.9491 21.7694 18.7268 20.9914 18.7268 20.0321C18.7268 19.0727 17.9489 18.2948 16.9895 18.2948H16.9394C15.9798 18.2948 15.2021 19.0728 15.2021 20.0321C15.202 20.9914 15.9798 21.7694 16.9394 21.7694Z" fill="black"/>
</svg>
