<?xml version="1.0" encoding="UTF-8"?>
<svg xmlns="http://www.w3.org/2000/svg" xmlns:xlink="http://www.w3.org/1999/xlink" width="26px" height="20px" viewBox="0 0 26 20" version="1.1">
<g id="surface1">
<rect x="0" y="0" width="26" height="20" style="fill:rgb(89.019608%,3.921569%,9.019608%);fill-opacity:1;stroke:none;"/>
<path style=" stroke:none;fill-rule:evenodd;fill:rgb(100%,100%,100%);fill-opacity:1;" d="M 16.535156 10.3125 C 16.535156 13.070312 14.316406 15.308594 11.578125 15.308594 C 8.839844 15.308594 6.621094 13.070312 6.621094 10.308594 C 6.621094 7.546875 8.839844 5.316406 11.578125 5.316406 C 14.316406 5.316406 16.535156 7.554688 16.535156 10.3125 Z M 16.535156 10.3125 "/>
<path style=" stroke:none;fill-rule:evenodd;fill:rgb(89.019608%,3.921569%,9.019608%);fill-opacity:1;" d="M 16.777344 10.3125 C 16.777344 12.519531 15.007812 14.308594 12.816406 14.308594 C 10.628906 14.308594 8.851562 12.515625 8.851562 10.308594 C 8.851562 8.101562 10.628906 6.316406 12.816406 6.316406 C 15.007812 6.316406 16.78125 8.105469 16.78125 10.3125 Z M 16.777344 10.3125 "/>
<path style=" stroke:none;fill-rule:evenodd;fill:rgb(100%,100%,100%);fill-opacity:1;" d="M 17.496094 7.980469 L 17.457031 9.824219 L 15.777344 10.292969 L 17.4375 10.894531 L 17.394531 12.589844 L 18.472656 11.265625 L 20.105469 11.851562 L 19.164062 10.429688 L 20.3125 9.015625 L 18.546875 9.515625 L 17.496094 7.976562 Z M 17.496094 7.980469 "/>
</g>
</svg>
