<svg width="86" height="86" viewBox="0 0 86 86" fill="none" xmlns="http://www.w3.org/2000/svg">
<g clip-path="url(#clip0_953_298)">
<path d="M1.66933 70.2868L1.66482 70.281L1.66066 70.275C1.26716 69.7026 0.958379 68.8909 0.711552 67.7116C0.464358 66.5306 0.275892 64.9633 0.133905 62.8669C-0.15008 58.6739 -0.25 52.3326 -0.25 42.6667C-0.25 30.0102 -0.117647 22.983 0.620667 18.9055C0.990599 16.8624 1.51762 15.5269 2.28121 14.59C3.04799 13.6491 4.03093 13.1379 5.24725 12.6986C5.34581 12.662 5.50498 12.6352 5.69293 12.6119C5.89143 12.5872 6.14987 12.5636 6.46338 12.5408C7.09086 12.4951 7.94892 12.4523 9.00941 12.4127C11.131 12.3334 14.0707 12.2667 17.6131 12.2167C24.6985 12.1167 34.2003 12.0833 44.4016 12.15L44.4019 12.15C61.9304 12.2833 71.241 12.3832 76.4011 12.7506C78.9785 12.9341 80.5448 13.1856 81.589 13.5516C82.654 13.9249 83.1746 14.4172 83.664 15.0465L83.6684 15.0522L83.6725 15.0581C83.8655 15.3379 84.0303 15.7851 84.1773 16.3486C84.3263 16.9195 84.4632 17.6362 84.5889 18.4749C84.8404 20.1529 85.0493 22.3366 85.2161 24.8543C85.5499 29.8907 85.7167 36.2798 85.7167 42.6667C85.7167 49.0535 85.5499 55.4427 85.2161 60.479C85.0493 62.9967 84.8404 65.1804 84.5889 66.8584C84.4632 67.6971 84.3263 68.4139 84.1773 68.9848C84.0303 69.5482 83.8655 69.9954 83.6725 70.2753L83.6684 70.2812L83.664 70.2868C83.1749 70.9157 82.6622 71.4091 81.5786 71.7783C80.5174 72.1399 78.9092 72.3827 76.2322 72.5495C70.8723 72.8835 61.1287 72.9167 42.6667 72.9167C24.2047 72.9167 14.461 72.8835 9.10112 72.5495C6.42412 72.3827 4.81594 72.1399 3.75478 71.7783C2.67118 71.4091 2.15846 70.9157 1.66933 70.2868ZM78.0108 16.25H42.6667H7.21617L24.8281 31.1424L24.8296 31.1437L42.6678 46.4714L55.5715 35.5428C62.6367 29.5441 70.7678 22.6126 73.569 20.2116C73.5695 20.2111 73.5701 20.2107 73.5706 20.2102L78.0108 16.25ZM18.5071 30.8591L18.5044 30.8568C15.6454 28.4162 12.782 26.0085 10.5303 24.115C8.48934 22.3988 6.95084 21.1051 6.37346 20.5924C5.79429 20.143 5.19217 19.8294 4.69898 19.6907C4.45084 19.6209 4.2436 19.5992 4.08679 19.6171C3.93204 19.6349 3.84667 19.6878 3.8 19.75L3.78537 19.7695L3.77293 19.7807C3.77105 19.7835 3.76708 19.7898 3.76143 19.8009C3.74915 19.8251 3.73401 19.8618 3.71705 19.914C3.68312 20.0185 3.64807 20.1654 3.61302 20.3565C3.5431 20.7375 3.47763 21.2687 3.4172 21.9323C3.29647 23.258 3.1977 25.0906 3.12068 27.261C2.96666 31.6004 2.9 37.2762 2.91667 42.9159C2.93333 48.5558 3.0333 54.1563 3.21227 58.3456C3.30179 60.441 3.41091 62.1791 3.53873 63.3912C3.60279 63.9988 3.67073 64.466 3.74129 64.7777C3.76689 64.8908 3.79133 64.9765 3.8134 65.038C3.88618 64.9973 3.98217 64.9348 4.10194 64.8487C4.34943 64.6708 4.67923 64.4063 5.08131 64.0645C5.88441 63.3818 6.9611 62.4033 8.21632 61.224C10.726 58.8663 13.9405 55.7143 17.0892 52.5406C20.238 49.3668 23.3189 46.1734 25.5618 43.7329C26.6838 42.512 27.5931 41.4827 28.196 40.7396C28.4984 40.3669 28.7182 40.0727 28.8491 39.8654C28.8926 39.7964 28.9229 39.7424 28.9426 39.702C28.6167 39.4077 27.434 38.3832 25.7212 36.9236C23.8052 35.2909 21.2394 33.125 18.5071 30.8591ZM55.7076 40.0207L68.1768 52.4899C71.642 55.9551 74.9065 59.1197 77.3705 61.4172C78.6028 62.5662 79.633 63.4966 80.3871 64.1388C80.7646 64.4604 81.0697 64.7069 81.2947 64.8718C81.3906 64.9422 81.4687 64.9952 81.5295 65.0323C81.5493 64.9792 81.5713 64.9072 81.5946 64.8135C81.6654 64.5282 81.7342 64.0969 81.7995 63.5278C81.9298 62.3927 82.042 60.7455 82.1336 58.7055C82.3167 54.6272 82.4167 48.998 82.4167 42.8C82.4167 36.5355 82.3167 30.8057 82.1502 26.6099C82.0669 24.5114 81.9671 22.7999 81.8552 21.5982C81.7992 20.9964 81.7407 20.5281 81.6807 20.2049C81.6506 20.0423 81.6216 19.9247 81.5952 19.848C81.5899 19.8325 81.5851 19.8199 81.581 19.81C81.5527 19.8069 81.4963 19.8065 81.3982 19.8279C81.2502 19.8601 81.0529 19.9313 80.8075 20.0454C80.3183 20.2729 79.6765 20.6523 78.9225 21.1577C77.4168 22.167 75.4918 23.6601 73.4971 25.3889L73.4972 25.389L73.4903 25.3946C71.0295 27.3791 68.0587 29.8752 65.4351 32.0796C63.6466 33.5824 62.0194 34.9496 60.825 35.9268L60.8228 35.9286L55.7076 40.0207ZM37.704 46.9898L37.7039 46.9899L37.7 46.9863C36.4397 45.8587 35.1468 44.8311 34.1047 44.0868C33.5832 43.7143 33.1279 43.4152 32.7729 43.2103C32.5951 43.1077 32.4466 43.0311 32.3301 42.9809C32.2719 42.9559 32.225 42.9389 32.1887 42.9284C32.1707 42.9233 32.1569 42.9202 32.1468 42.9184C32.1454 42.9182 32.1442 42.918 32.1431 42.9178C32.1347 42.9209 32.1107 42.9298 32.0665 42.9539C31.9977 42.9913 31.9056 43.0509 31.7893 43.1351C31.5576 43.3028 31.2495 43.5539 30.8725 43.8823C30.1195 44.538 29.1068 45.4883 27.9082 46.662C25.5119 49.0084 22.3817 52.2385 19.1172 55.7693C19.1171 55.7695 19.117 55.7696 19.1169 55.7697L7.49095 68.4291L24.8034 68.8167C24.8037 68.8167 24.8041 68.8167 24.8045 68.8167C34.6687 68.95 50.7981 68.95 60.5289 68.8167C60.5292 68.8167 60.5296 68.8167 60.5299 68.8167L77.971 68.4291L65.9512 55.5046L65.9503 55.5036L53.5764 42.3399L48.2901 46.5948L48.2878 46.5966L42.6878 50.9966L42.5264 51.1234L42.3706 50.9898L37.704 46.9898Z" fill="black" stroke="black" stroke-width="0.5"/>
</g>
<defs>
<clipPath id="clip0_953_298">
<rect width="85.3333" height="85.3333" fill="white"/>
</clipPath>
</defs>
</svg>
