<svg width="96" height="96" viewBox="0 0 96 96" fill="none" xmlns="http://www.w3.org/2000/svg">
<path d="M75.8576 36.1621C76.0332 34.5812 77.4571 33.442 79.0379 33.6176C80.6188 33.7932 81.758 35.217 81.5824 36.7979L75.8576 36.1621ZM14.4177 36.7975C14.2422 35.2167 15.3815 33.7929 16.9625 33.6176C18.5434 33.4422 19.9673 34.5816 20.1424 36.1625L14.4177 36.7975ZM86.4 33.6C87.9906 33.6 89.28 34.8894 89.28 36.48C89.28 38.0706 87.9906 39.36 86.4 39.36V33.6ZM9.60003 39.36C8.0095 39.36 6.72003 38.0706 6.72003 36.48C6.72003 34.8894 8.0095 33.6 9.60003 33.6V39.36ZM77.456 35.192C78.1673 36.6147 77.5906 38.3446 76.168 39.056C74.7454 39.7673 73.0154 39.1906 72.3041 37.768L77.456 35.192ZM64.6241 22.408C63.9128 20.9853 64.4894 19.2554 65.9121 18.5441C67.3347 17.8327 69.0647 18.4094 69.776 19.832L64.6241 22.408ZM23.6959 37.768C22.9847 39.1906 21.2548 39.7673 19.8321 39.056C18.4094 38.3446 17.8326 36.6147 18.5442 35.192L23.6959 37.768ZM26.2242 19.832C26.9353 18.4094 28.6652 17.8327 30.088 18.5441C31.5107 19.2554 32.0875 20.9853 31.3759 22.408L26.2242 19.832ZM62.4 59.52C62.4 61.1105 61.1106 62.4 59.52 62.4C57.9295 62.4 56.64 61.1105 56.64 59.52H62.4ZM56.64 51.84C56.64 50.2495 57.9295 48.96 59.52 48.96C61.1106 48.96 62.4 50.2495 62.4 51.84H56.64ZM50.88 59.52C50.88 61.1105 49.5906 62.4 48 62.4C46.4095 62.4 45.12 61.1105 45.12 59.52H50.88ZM45.12 51.84C45.12 50.2495 46.4095 48.96 48 48.96C49.5906 48.96 50.88 50.2495 50.88 51.84H45.12ZM39.36 59.52C39.36 61.1105 38.0706 62.4 36.48 62.4C34.8895 62.4 33.6 61.1105 33.6 59.52H39.36ZM33.6 51.84C33.6 50.2495 34.8895 48.96 36.48 48.96C38.0706 48.96 39.36 50.2495 39.36 51.84H33.6ZM81.5824 36.7979L78.0765 68.3666L72.3517 67.7307L75.8576 36.1621L81.5824 36.7979ZM78.0765 68.3666C77.4821 73.7126 72.9642 77.7581 67.5851 77.76L67.583 72C70.028 71.9992 72.0815 70.161 72.3517 67.7307L78.0765 68.3666ZM67.5851 77.76H28.416L28.4156 72H67.583L67.5851 77.76ZM28.416 77.76C23.035 77.7608 18.5142 73.7149 17.9198 68.367L23.6444 67.7303C23.9148 70.1614 25.9696 72.0004 28.4156 72L28.416 77.76ZM17.9198 68.367L14.4177 36.7975L20.1424 36.1625L23.6444 67.7303L17.9198 68.367ZM86.4 39.36H9.60003V33.6H86.4V39.36ZM72.3041 37.768L64.6241 22.408L69.776 19.832L77.456 35.192L72.3041 37.768ZM18.5442 35.192L26.2242 19.832L31.3759 22.408L23.6959 37.768L18.5442 35.192ZM56.64 59.52V51.84H62.4V59.52H56.64ZM45.12 59.52V51.84H50.88V59.52H45.12ZM33.6 59.52V51.84H39.36V59.52H33.6Z" fill="black"/>
</svg>
