<?xml version="1.0" encoding="UTF-8"?>
<svg xmlns="http://www.w3.org/2000/svg" xmlns:xlink="http://www.w3.org/1999/xlink" width="26px" height="20px" viewBox="0 0 26 20" version="1.1">
<defs>
<clipPath id="clip1">
  <path d="M 0.648438 0.457031 L 1.867188 0.457031 L 1.867188 1.707031 L 0.648438 1.707031 Z M 0.648438 0.457031 "/>
</clipPath>
<clipPath id="clip2">
  <path d="M 3.128906 0.457031 L 4.347656 0.457031 L 4.347656 1.707031 L 3.128906 1.707031 Z M 3.128906 0.457031 "/>
</clipPath>
<clipPath id="clip3">
  <path d="M 5.605469 0.457031 L 6.824219 0.457031 L 6.824219 1.707031 L 5.605469 1.707031 Z M 5.605469 0.457031 "/>
</clipPath>
<clipPath id="clip4">
  <path d="M 8.085938 0.457031 L 9.304688 0.457031 L 9.304688 1.707031 L 8.085938 1.707031 Z M 8.085938 0.457031 "/>
</clipPath>
<clipPath id="clip5">
  <path d="M 10.5625 0.457031 L 11.78125 0.457031 L 11.78125 1.707031 L 10.5625 1.707031 Z M 10.5625 0.457031 "/>
</clipPath>
<clipPath id="clip6">
  <path d="M 13 0.457031 L 14.21875 0.457031 L 14.21875 1.707031 L 13 1.707031 Z M 13 0.457031 "/>
</clipPath>
<clipPath id="clip7">
  <path d="M 1.910156 1.542969 L 3.128906 1.542969 L 3.128906 2.792969 L 1.910156 2.792969 Z M 1.910156 1.542969 "/>
</clipPath>
<clipPath id="clip8">
  <path d="M 4.386719 1.542969 L 5.605469 1.542969 L 5.605469 2.792969 L 4.386719 2.792969 Z M 4.386719 1.542969 "/>
</clipPath>
<clipPath id="clip9">
  <path d="M 6.867188 1.542969 L 8.085938 1.542969 L 8.085938 2.792969 L 6.867188 2.792969 Z M 6.867188 1.542969 "/>
</clipPath>
<clipPath id="clip10">
  <path d="M 9.304688 1.542969 L 10.523438 1.542969 L 10.523438 2.792969 L 9.304688 2.792969 Z M 9.304688 1.542969 "/>
</clipPath>
<clipPath id="clip11">
  <path d="M 11.78125 1.542969 L 13 1.542969 L 13 2.792969 L 11.78125 2.792969 Z M 11.78125 1.542969 "/>
</clipPath>
<clipPath id="clip12">
  <path d="M 0.648438 2.625 L 1.867188 2.625 L 1.867188 3.875 L 0.648438 3.875 Z M 0.648438 2.625 "/>
</clipPath>
<clipPath id="clip13">
  <path d="M 3.128906 2.625 L 4.347656 2.625 L 4.347656 3.875 L 3.128906 3.875 Z M 3.128906 2.625 "/>
</clipPath>
<clipPath id="clip14">
  <path d="M 5.605469 2.625 L 6.824219 2.625 L 6.824219 3.875 L 5.605469 3.875 Z M 5.605469 2.625 "/>
</clipPath>
<clipPath id="clip15">
  <path d="M 8.085938 2.625 L 9.304688 2.625 L 9.304688 3.875 L 8.085938 3.875 Z M 8.085938 2.625 "/>
</clipPath>
<clipPath id="clip16">
  <path d="M 10.5625 2.625 L 11.78125 2.625 L 11.78125 3.875 L 10.5625 3.875 Z M 10.5625 2.625 "/>
</clipPath>
<clipPath id="clip17">
  <path d="M 13 2.625 L 14.21875 2.625 L 14.21875 3.875 L 13 3.875 Z M 13 2.625 "/>
</clipPath>
<clipPath id="clip18">
  <path d="M 1.910156 3.707031 L 3.128906 3.707031 L 3.128906 4.957031 L 1.910156 4.957031 Z M 1.910156 3.707031 "/>
</clipPath>
<clipPath id="clip19">
  <path d="M 4.386719 3.707031 L 5.605469 3.707031 L 5.605469 4.957031 L 4.386719 4.957031 Z M 4.386719 3.707031 "/>
</clipPath>
<clipPath id="clip20">
  <path d="M 6.867188 3.707031 L 8.085938 3.707031 L 8.085938 4.957031 L 6.867188 4.957031 Z M 6.867188 3.707031 "/>
</clipPath>
<clipPath id="clip21">
  <path d="M 9.304688 3.707031 L 10.523438 3.707031 L 10.523438 4.957031 L 9.304688 4.957031 Z M 9.304688 3.707031 "/>
</clipPath>
<clipPath id="clip22">
  <path d="M 11.78125 3.707031 L 13 3.707031 L 13 4.957031 L 11.78125 4.957031 Z M 11.78125 3.707031 "/>
</clipPath>
<clipPath id="clip23">
  <path d="M 0.648438 4.792969 L 1.867188 4.792969 L 1.867188 6 L 0.648438 6 Z M 0.648438 4.792969 "/>
</clipPath>
<clipPath id="clip24">
  <path d="M 3.128906 4.792969 L 4.347656 4.792969 L 4.347656 6 L 3.128906 6 Z M 3.128906 4.792969 "/>
</clipPath>
<clipPath id="clip25">
  <path d="M 5.605469 4.792969 L 6.824219 4.792969 L 6.824219 6 L 5.605469 6 Z M 5.605469 4.792969 "/>
</clipPath>
<clipPath id="clip26">
  <path d="M 8.085938 4.792969 L 9.304688 4.792969 L 9.304688 6 L 8.085938 6 Z M 8.085938 4.792969 "/>
</clipPath>
<clipPath id="clip27">
  <path d="M 10.5625 4.792969 L 11.78125 4.792969 L 11.78125 6 L 10.5625 6 Z M 10.5625 4.792969 "/>
</clipPath>
<clipPath id="clip28">
  <path d="M 13 4.792969 L 14.21875 4.792969 L 14.21875 6 L 13 6 Z M 13 4.792969 "/>
</clipPath>
<clipPath id="clip29">
  <path d="M 1.910156 5.875 L 3.128906 5.875 L 3.128906 7 L 1.910156 7 Z M 1.910156 5.875 "/>
</clipPath>
<clipPath id="clip30">
  <path d="M 4.386719 5.875 L 5.605469 5.875 L 5.605469 7 L 4.386719 7 Z M 4.386719 5.875 "/>
</clipPath>
<clipPath id="clip31">
  <path d="M 6.867188 5.875 L 8.085938 5.875 L 8.085938 7 L 6.867188 7 Z M 6.867188 5.875 "/>
</clipPath>
<clipPath id="clip32">
  <path d="M 9.304688 5.875 L 10.523438 5.875 L 10.523438 7 L 9.304688 7 Z M 9.304688 5.875 "/>
</clipPath>
<clipPath id="clip33">
  <path d="M 11.78125 5.875 L 13 5.875 L 13 7 L 11.78125 7 Z M 11.78125 5.875 "/>
</clipPath>
<clipPath id="clip34">
  <path d="M 0.648438 6.917969 L 1.867188 6.917969 L 1.867188 8.167969 L 0.648438 8.167969 Z M 0.648438 6.917969 "/>
</clipPath>
<clipPath id="clip35">
  <path d="M 3.128906 6.917969 L 4.347656 6.917969 L 4.347656 8.167969 L 3.128906 8.167969 Z M 3.128906 6.917969 "/>
</clipPath>
<clipPath id="clip36">
  <path d="M 5.605469 6.917969 L 6.824219 6.917969 L 6.824219 8.167969 L 5.605469 8.167969 Z M 5.605469 6.917969 "/>
</clipPath>
<clipPath id="clip37">
  <path d="M 8.085938 6.917969 L 9.304688 6.917969 L 9.304688 8.167969 L 8.085938 8.167969 Z M 8.085938 6.917969 "/>
</clipPath>
<clipPath id="clip38">
  <path d="M 10.5625 6.917969 L 11.78125 6.917969 L 11.78125 8.167969 L 10.5625 8.167969 Z M 10.5625 6.917969 "/>
</clipPath>
<clipPath id="clip39">
  <path d="M 13 6.917969 L 14.21875 6.917969 L 14.21875 8.167969 L 13 8.167969 Z M 13 6.917969 "/>
</clipPath>
<clipPath id="clip40">
  <path d="M 1.910156 8 L 3.128906 8 L 3.128906 9.25 L 1.910156 9.25 Z M 1.910156 8 "/>
</clipPath>
<clipPath id="clip41">
  <path d="M 4.386719 8 L 5.605469 8 L 5.605469 9.25 L 4.386719 9.25 Z M 4.386719 8 "/>
</clipPath>
<clipPath id="clip42">
  <path d="M 6.867188 8 L 8.085938 8 L 8.085938 9.25 L 6.867188 9.25 Z M 6.867188 8 "/>
</clipPath>
<clipPath id="clip43">
  <path d="M 9.304688 8 L 10.523438 8 L 10.523438 9.25 L 9.304688 9.25 Z M 9.304688 8 "/>
</clipPath>
<clipPath id="clip44">
  <path d="M 11.78125 8 L 13 8 L 13 9.25 L 11.78125 9.25 Z M 11.78125 8 "/>
</clipPath>
<clipPath id="clip45">
  <path d="M 0.648438 9.082031 L 1.867188 9.082031 L 1.867188 10.332031 L 0.648438 10.332031 Z M 0.648438 9.082031 "/>
</clipPath>
<clipPath id="clip46">
  <path d="M 3.128906 9.082031 L 4.347656 9.082031 L 4.347656 10.332031 L 3.128906 10.332031 Z M 3.128906 9.082031 "/>
</clipPath>
<clipPath id="clip47">
  <path d="M 5.605469 9.082031 L 6.824219 9.082031 L 6.824219 10.332031 L 5.605469 10.332031 Z M 5.605469 9.082031 "/>
</clipPath>
<clipPath id="clip48">
  <path d="M 8.085938 9.082031 L 9.304688 9.082031 L 9.304688 10.332031 L 8.085938 10.332031 Z M 8.085938 9.082031 "/>
</clipPath>
<clipPath id="clip49">
  <path d="M 10.5625 9.082031 L 11.78125 9.082031 L 11.78125 10.332031 L 10.5625 10.332031 Z M 10.5625 9.082031 "/>
</clipPath>
<clipPath id="clip50">
  <path d="M 13 9.082031 L 14.21875 9.082031 L 14.21875 10.332031 L 13 10.332031 Z M 13 9.082031 "/>
</clipPath>
</defs>
<g id="surface1">
<rect x="0" y="0" width="26" height="20" style="fill:rgb(74.117647%,23.921569%,26.666667%);fill-opacity:1;stroke:none;"/>
<path style="fill-rule:nonzero;fill:rgb(0%,0%,0%);fill-opacity:1;stroke-width:37;stroke-linecap:butt;stroke-linejoin:miter;stroke:rgb(100%,100%,100%);stroke-opacity:1;stroke-miterlimit:4;" d="M 0 55.3125 L 640 55.3125 M 0 129 L 640 129 M 0 202.96875 L 640 202.96875 M 0 277.03125 L 640 277.03125 M 0 351 L 640 351 M 0 424.96875 L 640 424.96875 " transform="matrix(0.040625,0,0,0.0416667,0,0)"/>
<path style=" stroke:none;fill-rule:nonzero;fill:rgb(9.803922%,18.431373%,36.470588%);fill-opacity:1;" d="M 0 0 L 14.820312 0 L 14.820312 10.769531 L 0 10.769531 "/>
<g clip-path="url(#clip1)" clip-rule="nonzero">
<path style=" stroke:none;fill-rule:nonzero;fill:rgb(100%,100%,100%);fill-opacity:1;" d="M 1.21875 0.457031 L 1.585938 1.582031 L 0.648438 0.875 L 1.789062 0.875 L 0.851562 1.582031 Z M 1.21875 0.457031 "/>
</g>
<g clip-path="url(#clip2)" clip-rule="nonzero">
<path style=" stroke:none;fill-rule:nonzero;fill:rgb(100%,100%,100%);fill-opacity:1;" d="M 3.695312 0.457031 L 4.0625 1.582031 L 3.128906 0.875 L 4.265625 0.875 L 3.332031 1.582031 Z M 3.695312 0.457031 "/>
</g>
<g clip-path="url(#clip3)" clip-rule="nonzero">
<path style=" stroke:none;fill-rule:nonzero;fill:rgb(100%,100%,100%);fill-opacity:1;" d="M 6.175781 0.457031 L 6.539062 1.582031 L 5.605469 0.875 L 6.742188 0.875 L 5.808594 1.582031 Z M 6.175781 0.457031 "/>
</g>
<g clip-path="url(#clip4)" clip-rule="nonzero">
<path style=" stroke:none;fill-rule:nonzero;fill:rgb(100%,100%,100%);fill-opacity:1;" d="M 8.652344 0.457031 L 9.019531 1.582031 L 8.085938 0.875 L 9.222656 0.875 L 8.289062 1.582031 Z M 8.652344 0.457031 "/>
</g>
<g clip-path="url(#clip5)" clip-rule="nonzero">
<path style=" stroke:none;fill-rule:nonzero;fill:rgb(100%,100%,100%);fill-opacity:1;" d="M 11.132812 0.457031 L 11.496094 1.582031 L 10.5625 0.875 L 11.699219 0.875 L 10.765625 1.582031 Z M 11.132812 0.457031 "/>
</g>
<g clip-path="url(#clip6)" clip-rule="nonzero">
<path style=" stroke:none;fill-rule:nonzero;fill:rgb(100%,100%,100%);fill-opacity:1;" d="M 13.570312 0.457031 L 13.933594 1.582031 L 13 0.875 L 14.136719 0.875 L 13.203125 1.582031 Z M 13.570312 0.457031 "/>
</g>
<g clip-path="url(#clip7)" clip-rule="nonzero">
<path style=" stroke:none;fill-rule:nonzero;fill:rgb(100%,100%,100%);fill-opacity:1;" d="M 2.476562 1.542969 L 2.84375 2.667969 L 1.910156 1.957031 L 3.046875 1.957031 L 2.113281 2.667969 Z M 2.476562 1.542969 "/>
</g>
<g clip-path="url(#clip8)" clip-rule="nonzero">
<path style=" stroke:none;fill-rule:nonzero;fill:rgb(100%,100%,100%);fill-opacity:1;" d="M 4.957031 1.542969 L 5.320312 2.667969 L 4.386719 1.957031 L 5.523438 1.957031 L 4.589844 2.667969 Z M 4.957031 1.542969 "/>
</g>
<g clip-path="url(#clip9)" clip-rule="nonzero">
<path style=" stroke:none;fill-rule:nonzero;fill:rgb(100%,100%,100%);fill-opacity:1;" d="M 7.433594 1.542969 L 7.800781 2.667969 L 6.867188 1.957031 L 8.003906 1.957031 L 7.070312 2.667969 Z M 7.433594 1.542969 "/>
</g>
<g clip-path="url(#clip10)" clip-rule="nonzero">
<path style=" stroke:none;fill-rule:nonzero;fill:rgb(100%,100%,100%);fill-opacity:1;" d="M 9.871094 1.542969 L 10.238281 2.667969 L 9.304688 1.957031 L 10.441406 1.957031 L 9.507812 2.667969 Z M 9.871094 1.542969 "/>
</g>
<g clip-path="url(#clip11)" clip-rule="nonzero">
<path style=" stroke:none;fill-rule:nonzero;fill:rgb(100%,100%,100%);fill-opacity:1;" d="M 12.351562 1.542969 L 12.714844 2.667969 L 11.78125 1.957031 L 12.917969 1.957031 L 11.984375 2.667969 Z M 12.351562 1.542969 "/>
</g>
<g clip-path="url(#clip12)" clip-rule="nonzero">
<path style=" stroke:none;fill-rule:nonzero;fill:rgb(100%,100%,100%);fill-opacity:1;" d="M 1.21875 2.625 L 1.585938 3.75 L 0.648438 3.042969 L 1.789062 3.042969 L 0.851562 3.75 Z M 1.21875 2.625 "/>
</g>
<g clip-path="url(#clip13)" clip-rule="nonzero">
<path style=" stroke:none;fill-rule:nonzero;fill:rgb(100%,100%,100%);fill-opacity:1;" d="M 3.695312 2.625 L 4.0625 3.75 L 3.128906 3.042969 L 4.265625 3.042969 L 3.332031 3.75 Z M 3.695312 2.625 "/>
</g>
<g clip-path="url(#clip14)" clip-rule="nonzero">
<path style=" stroke:none;fill-rule:nonzero;fill:rgb(100%,100%,100%);fill-opacity:1;" d="M 6.175781 2.625 L 6.539062 3.75 L 5.605469 3.042969 L 6.742188 3.042969 L 5.808594 3.75 Z M 6.175781 2.625 "/>
</g>
<g clip-path="url(#clip15)" clip-rule="nonzero">
<path style=" stroke:none;fill-rule:nonzero;fill:rgb(100%,100%,100%);fill-opacity:1;" d="M 8.652344 2.625 L 9.019531 3.75 L 8.085938 3.042969 L 9.222656 3.042969 L 8.289062 3.75 Z M 8.652344 2.625 "/>
</g>
<g clip-path="url(#clip16)" clip-rule="nonzero">
<path style=" stroke:none;fill-rule:nonzero;fill:rgb(100%,100%,100%);fill-opacity:1;" d="M 11.132812 2.625 L 11.496094 3.75 L 10.5625 3.042969 L 11.699219 3.042969 L 10.765625 3.75 Z M 11.132812 2.625 "/>
</g>
<g clip-path="url(#clip17)" clip-rule="nonzero">
<path style=" stroke:none;fill-rule:nonzero;fill:rgb(100%,100%,100%);fill-opacity:1;" d="M 13.570312 2.625 L 13.933594 3.75 L 13 3.042969 L 14.136719 3.042969 L 13.203125 3.75 Z M 13.570312 2.625 "/>
</g>
<g clip-path="url(#clip18)" clip-rule="nonzero">
<path style=" stroke:none;fill-rule:nonzero;fill:rgb(100%,100%,100%);fill-opacity:1;" d="M 2.476562 3.707031 L 2.84375 4.832031 L 1.910156 4.125 L 3.046875 4.125 L 2.113281 4.832031 Z M 2.476562 3.707031 "/>
</g>
<g clip-path="url(#clip19)" clip-rule="nonzero">
<path style=" stroke:none;fill-rule:nonzero;fill:rgb(100%,100%,100%);fill-opacity:1;" d="M 4.957031 3.707031 L 5.320312 4.832031 L 4.386719 4.125 L 5.523438 4.125 L 4.589844 4.832031 Z M 4.957031 3.707031 "/>
</g>
<g clip-path="url(#clip20)" clip-rule="nonzero">
<path style=" stroke:none;fill-rule:nonzero;fill:rgb(100%,100%,100%);fill-opacity:1;" d="M 7.433594 3.707031 L 7.800781 4.832031 L 6.867188 4.125 L 8.003906 4.125 L 7.070312 4.832031 Z M 7.433594 3.707031 "/>
</g>
<g clip-path="url(#clip21)" clip-rule="nonzero">
<path style=" stroke:none;fill-rule:nonzero;fill:rgb(100%,100%,100%);fill-opacity:1;" d="M 9.871094 3.707031 L 10.238281 4.832031 L 9.304688 4.125 L 10.441406 4.125 L 9.507812 4.832031 Z M 9.871094 3.707031 "/>
</g>
<g clip-path="url(#clip22)" clip-rule="nonzero">
<path style=" stroke:none;fill-rule:nonzero;fill:rgb(100%,100%,100%);fill-opacity:1;" d="M 12.351562 3.707031 L 12.714844 4.832031 L 11.78125 4.125 L 12.917969 4.125 L 11.984375 4.832031 Z M 12.351562 3.707031 "/>
</g>
<g clip-path="url(#clip23)" clip-rule="nonzero">
<path style=" stroke:none;fill-rule:nonzero;fill:rgb(100%,100%,100%);fill-opacity:1;" d="M 1.21875 4.792969 L 1.585938 5.917969 L 0.648438 5.207031 L 1.789062 5.207031 L 0.851562 5.917969 Z M 1.21875 4.792969 "/>
</g>
<g clip-path="url(#clip24)" clip-rule="nonzero">
<path style=" stroke:none;fill-rule:nonzero;fill:rgb(100%,100%,100%);fill-opacity:1;" d="M 3.695312 4.792969 L 4.0625 5.917969 L 3.128906 5.207031 L 4.265625 5.207031 L 3.332031 5.917969 Z M 3.695312 4.792969 "/>
</g>
<g clip-path="url(#clip25)" clip-rule="nonzero">
<path style=" stroke:none;fill-rule:nonzero;fill:rgb(100%,100%,100%);fill-opacity:1;" d="M 6.175781 4.792969 L 6.539062 5.917969 L 5.605469 5.207031 L 6.742188 5.207031 L 5.808594 5.917969 Z M 6.175781 4.792969 "/>
</g>
<g clip-path="url(#clip26)" clip-rule="nonzero">
<path style=" stroke:none;fill-rule:nonzero;fill:rgb(100%,100%,100%);fill-opacity:1;" d="M 8.652344 4.792969 L 9.019531 5.917969 L 8.085938 5.207031 L 9.222656 5.207031 L 8.289062 5.917969 Z M 8.652344 4.792969 "/>
</g>
<g clip-path="url(#clip27)" clip-rule="nonzero">
<path style=" stroke:none;fill-rule:nonzero;fill:rgb(100%,100%,100%);fill-opacity:1;" d="M 11.132812 4.792969 L 11.496094 5.917969 L 10.5625 5.207031 L 11.699219 5.207031 L 10.765625 5.917969 Z M 11.132812 4.792969 "/>
</g>
<g clip-path="url(#clip28)" clip-rule="nonzero">
<path style=" stroke:none;fill-rule:nonzero;fill:rgb(100%,100%,100%);fill-opacity:1;" d="M 13.570312 4.792969 L 13.933594 5.917969 L 13 5.207031 L 14.136719 5.207031 L 13.203125 5.917969 Z M 13.570312 4.792969 "/>
</g>
<g clip-path="url(#clip29)" clip-rule="nonzero">
<path style=" stroke:none;fill-rule:nonzero;fill:rgb(100%,100%,100%);fill-opacity:1;" d="M 2.476562 5.875 L 2.84375 7 L 1.910156 6.292969 L 3.046875 6.292969 L 2.113281 7 Z M 2.476562 5.875 "/>
</g>
<g clip-path="url(#clip30)" clip-rule="nonzero">
<path style=" stroke:none;fill-rule:nonzero;fill:rgb(100%,100%,100%);fill-opacity:1;" d="M 4.957031 5.875 L 5.320312 7 L 4.386719 6.292969 L 5.523438 6.292969 L 4.589844 7 Z M 4.957031 5.875 "/>
</g>
<g clip-path="url(#clip31)" clip-rule="nonzero">
<path style=" stroke:none;fill-rule:nonzero;fill:rgb(100%,100%,100%);fill-opacity:1;" d="M 7.433594 5.875 L 7.800781 7 L 6.867188 6.292969 L 8.003906 6.292969 L 7.070312 7 Z M 7.433594 5.875 "/>
</g>
<g clip-path="url(#clip32)" clip-rule="nonzero">
<path style=" stroke:none;fill-rule:nonzero;fill:rgb(100%,100%,100%);fill-opacity:1;" d="M 9.871094 5.875 L 10.238281 7 L 9.304688 6.292969 L 10.441406 6.292969 L 9.507812 7 Z M 9.871094 5.875 "/>
</g>
<g clip-path="url(#clip33)" clip-rule="nonzero">
<path style=" stroke:none;fill-rule:nonzero;fill:rgb(100%,100%,100%);fill-opacity:1;" d="M 12.351562 5.875 L 12.714844 7 L 11.78125 6.292969 L 12.917969 6.292969 L 11.984375 7 Z M 12.351562 5.875 "/>
</g>
<g clip-path="url(#clip34)" clip-rule="nonzero">
<path style=" stroke:none;fill-rule:nonzero;fill:rgb(100%,100%,100%);fill-opacity:1;" d="M 1.21875 6.917969 L 1.585938 8.042969 L 0.648438 7.332031 L 1.789062 7.332031 L 0.851562 8.042969 Z M 1.21875 6.917969 "/>
</g>
<g clip-path="url(#clip35)" clip-rule="nonzero">
<path style=" stroke:none;fill-rule:nonzero;fill:rgb(100%,100%,100%);fill-opacity:1;" d="M 3.695312 6.917969 L 4.0625 8.042969 L 3.128906 7.332031 L 4.265625 7.332031 L 3.332031 8.042969 Z M 3.695312 6.917969 "/>
</g>
<g clip-path="url(#clip36)" clip-rule="nonzero">
<path style=" stroke:none;fill-rule:nonzero;fill:rgb(100%,100%,100%);fill-opacity:1;" d="M 6.175781 6.917969 L 6.539062 8.042969 L 5.605469 7.332031 L 6.742188 7.332031 L 5.808594 8.042969 Z M 6.175781 6.917969 "/>
</g>
<g clip-path="url(#clip37)" clip-rule="nonzero">
<path style=" stroke:none;fill-rule:nonzero;fill:rgb(100%,100%,100%);fill-opacity:1;" d="M 8.652344 6.917969 L 9.019531 8.042969 L 8.085938 7.332031 L 9.222656 7.332031 L 8.289062 8.042969 Z M 8.652344 6.917969 "/>
</g>
<g clip-path="url(#clip38)" clip-rule="nonzero">
<path style=" stroke:none;fill-rule:nonzero;fill:rgb(100%,100%,100%);fill-opacity:1;" d="M 11.132812 6.917969 L 11.496094 8.042969 L 10.5625 7.332031 L 11.699219 7.332031 L 10.765625 8.042969 Z M 11.132812 6.917969 "/>
</g>
<g clip-path="url(#clip39)" clip-rule="nonzero">
<path style=" stroke:none;fill-rule:nonzero;fill:rgb(100%,100%,100%);fill-opacity:1;" d="M 13.570312 6.917969 L 13.933594 8.042969 L 13 7.332031 L 14.136719 7.332031 L 13.203125 8.042969 Z M 13.570312 6.917969 "/>
</g>
<g clip-path="url(#clip40)" clip-rule="nonzero">
<path style=" stroke:none;fill-rule:nonzero;fill:rgb(100%,100%,100%);fill-opacity:1;" d="M 2.476562 8 L 2.84375 9.125 L 1.910156 8.417969 L 3.046875 8.417969 L 2.113281 9.125 Z M 2.476562 8 "/>
</g>
<g clip-path="url(#clip41)" clip-rule="nonzero">
<path style=" stroke:none;fill-rule:nonzero;fill:rgb(100%,100%,100%);fill-opacity:1;" d="M 4.957031 8 L 5.320312 9.125 L 4.386719 8.417969 L 5.523438 8.417969 L 4.589844 9.125 Z M 4.957031 8 "/>
</g>
<g clip-path="url(#clip42)" clip-rule="nonzero">
<path style=" stroke:none;fill-rule:nonzero;fill:rgb(100%,100%,100%);fill-opacity:1;" d="M 7.433594 8 L 7.800781 9.125 L 6.867188 8.417969 L 8.003906 8.417969 L 7.070312 9.125 Z M 7.433594 8 "/>
</g>
<g clip-path="url(#clip43)" clip-rule="nonzero">
<path style=" stroke:none;fill-rule:nonzero;fill:rgb(100%,100%,100%);fill-opacity:1;" d="M 9.871094 8 L 10.238281 9.125 L 9.304688 8.417969 L 10.441406 8.417969 L 9.507812 9.125 Z M 9.871094 8 "/>
</g>
<g clip-path="url(#clip44)" clip-rule="nonzero">
<path style=" stroke:none;fill-rule:nonzero;fill:rgb(100%,100%,100%);fill-opacity:1;" d="M 12.351562 8 L 12.714844 9.125 L 11.78125 8.417969 L 12.917969 8.417969 L 11.984375 9.125 Z M 12.351562 8 "/>
</g>
<g clip-path="url(#clip45)" clip-rule="nonzero">
<path style=" stroke:none;fill-rule:nonzero;fill:rgb(100%,100%,100%);fill-opacity:1;" d="M 1.21875 9.082031 L 1.585938 10.207031 L 0.648438 9.5 L 1.789062 9.5 L 0.851562 10.207031 Z M 1.21875 9.082031 "/>
</g>
<g clip-path="url(#clip46)" clip-rule="nonzero">
<path style=" stroke:none;fill-rule:nonzero;fill:rgb(100%,100%,100%);fill-opacity:1;" d="M 3.695312 9.082031 L 4.0625 10.207031 L 3.128906 9.5 L 4.265625 9.5 L 3.332031 10.207031 Z M 3.695312 9.082031 "/>
</g>
<g clip-path="url(#clip47)" clip-rule="nonzero">
<path style=" stroke:none;fill-rule:nonzero;fill:rgb(100%,100%,100%);fill-opacity:1;" d="M 6.175781 9.082031 L 6.539062 10.207031 L 5.605469 9.5 L 6.742188 9.5 L 5.808594 10.207031 Z M 6.175781 9.082031 "/>
</g>
<g clip-path="url(#clip48)" clip-rule="nonzero">
<path style=" stroke:none;fill-rule:nonzero;fill:rgb(100%,100%,100%);fill-opacity:1;" d="M 8.652344 9.082031 L 9.019531 10.207031 L 8.085938 9.5 L 9.222656 9.5 L 8.289062 10.207031 Z M 8.652344 9.082031 "/>
</g>
<g clip-path="url(#clip49)" clip-rule="nonzero">
<path style=" stroke:none;fill-rule:nonzero;fill:rgb(100%,100%,100%);fill-opacity:1;" d="M 11.132812 9.082031 L 11.496094 10.207031 L 10.5625 9.5 L 11.699219 9.5 L 10.765625 10.207031 Z M 11.132812 9.082031 "/>
</g>
<g clip-path="url(#clip50)" clip-rule="nonzero">
<path style=" stroke:none;fill-rule:nonzero;fill:rgb(100%,100%,100%);fill-opacity:1;" d="M 13.570312 9.082031 L 13.933594 10.207031 L 13 9.5 L 14.136719 9.5 L 13.203125 10.207031 Z M 13.570312 9.082031 "/>
</g>
</g>
</svg>
