<svg width="35" height="35" viewBox="0 0 35 35" fill="none" xmlns="http://www.w3.org/2000/svg">
<path fill-rule="evenodd" clip-rule="evenodd" d="M21.8752 17.5002C25.0981 17.5002 27.7085 14.8897 27.7085 11.6668C27.7085 8.44391 25.0981 5.8335 21.8752 5.8335C18.6522 5.8335 16.0418 8.44391 16.0418 11.6668C16.0418 14.8897 18.6522 17.5002 21.8752 17.5002ZM21.8752 8.75016C23.4793 8.75016 24.7918 10.0627 24.7918 11.6668C24.7918 13.271 23.4793 14.5835 21.8752 14.5835C20.271 14.5835 18.9585 13.271 18.9585 11.6668C18.9585 10.0627 20.271 8.75016 21.8752 8.75016ZM10.2085 26.2502C10.2085 22.371 17.9814 20.4168 21.8752 20.4168C25.7689 20.4168 33.5418 22.371 33.5418 26.2502V29.1668H10.2085V26.2502ZM13.1252 26.2502C13.446 25.2002 17.9522 23.3335 21.8752 23.3335C25.8127 23.3335 30.3335 25.2147 30.6252 26.2502H13.1252ZM8.75016 17.5002V21.8752H5.8335V17.5002H1.4585V14.5835H5.8335V10.2085H8.75016V14.5835H13.1252V17.5002H8.75016Z" fill="black"/>
</svg>
